<?xml version="1.0" encoding="UTF-8"?>
<svg width="502px" height="98px" viewBox="0 0 502 98" version="1.1" xmlns="http://www.w3.org/2000/svg" xmlns:xlink="http://www.w3.org/1999/xlink">
    <!-- Generator: Sketch 61 (89581) - https://sketch.com -->
    <title>编组 9备份 2</title>
    <desc>Created with Sketch.</desc>
    <g id="页面-1" stroke="none" stroke-width="1" fill="none" fill-rule="evenodd">
        <g id="傲创官网-移动端" transform="translate(-300.000000, -3670.000000)">
            <g id="编组-9备份-2" transform="translate(301.000000, 3671.000000)">
                <path d="M4,0 L495.88265,0 C498.091789,-3.90415735e-14 499.88265,1.790861 499.88265,4 C499.88265,4.55209723 499.768359,5.09821678 499.54697,5.60398202 L461.02675,93.603982 C460.389603,95.059552 458.951341,96 457.36243,96 L4,96 C1.790861,96 2.705415e-16,94.209139 0,92 L0,4 C-2.705415e-16,1.790861 1.790861,4.05812251e-16 4,0 Z" id="矩形" stroke="#979797" fill="#FFFFFF" transform="translate(251.000000, 48.000000) scale(1, -1) translate(-251.000000, -48.000000) "></path>
                <path d="M4,0 L128,0 L128,0 L128,96 L4,96 C1.790861,96 2.705415e-16,94.209139 0,92 L0,4 C-2.705415e-16,1.790861 1.790861,4.05812251e-16 4,0 Z" id="矩形" fill="#2C2C30"></path>
            </g>
        </g>
    </g>
</svg>