<?xml version="1.0" encoding="UTF-8"?>
<svg width="80px" height="80px" viewBox="0 0 80 80" version="1.1" xmlns="http://www.w3.org/2000/svg" xmlns:xlink="http://www.w3.org/1999/xlink">
    <!-- Generator: Sketch 59.1 (86144) - https://sketch.com -->
    <title>产品运营</title>
    <desc>Created with Sketch.</desc>
    <g id="组件" stroke="none" stroke-width="1" fill="none" fill-rule="evenodd">
        <g id="产品运营">
            <g>
                <path d="M19,73 C18.4477153,73 18,72.5522847 18,72 C18,71.4477153 18.4477153,71 19,71 L24.425,71 L30.258,61 L11,61 C8.790861,61 7,59.209139 7,57 L7,16 C7,13.790861 8.790861,12 11,12 L69,12 C71.209139,12 73,13.790861 73,16 L73,57 C73,59.209139 71.209139,61 69,61 L47.741,61 L53.574,71 L61,71 C61.5522847,71 62,71.4477153 62,72 C62,72.5522847 61.5522847,73 61,73 L19,73 Z M45.426,61 L32.573,61 L26.741037,71 L51.258963,71 L45.426,61 Z M69,14 L11,14 C9.8954305,14 9,14.8954305 9,16 L9,57 C9,58.1045695 9.8954305,59 11,59 L69,59 C70.1045695,59 71,58.1045695 71,57 L71,16 C71,14.8954305 70.1045695,14 69,14 Z M54,32 C60.627417,32 66,37.372583 66,44 C66,50.627417 60.627417,56 54,56 C47.372583,56 42,50.627417 42,44 C42,37.372583 47.372583,32 54,32 Z M17,47 C17.5522847,47 18,47.4477153 18,48 L18,54 C18,54.5522847 17.5522847,55 17,55 C16.4477153,55 16,54.5522847 16,54 L16,48 C16,47.4477153 16.4477153,47 17,47 Z M23,44 C23.5522847,44 24,44.4477153 24,45 L24,54 C24,54.5522847 23.5522847,55 23,55 C22.4477153,55 22,54.5522847 22,54 L22,45 C22,44.4477153 22.4477153,44 23,44 Z M29,40 C29.5522847,40 30,40.4477153 30,41 L30,54 C30,54.5522847 29.5522847,55 29,55 C28.4477153,55 28,54.5522847 28,54 L28,41 C28,40.4477153 28.4477153,40 29,40 Z M35,36 C35.5522847,36 36,36.4477153 36,37 L36,54 C36,54.5522847 35.5522847,55 35,55 C34.4477153,55 34,54.5522847 34,54 L34,37 C34,36.4477153 34.4477153,36 35,36 Z M53.6752555,45.8529557 L44.5034695,47.1416726 C45.8206824,51.1254373 49.5746462,54 54,54 C56.7359869,54 59.2153441,52.9012375 61.0208838,51.1209003 L60.9303869,51.0584874 L54.4176435,45.9710394 C54.3561033,45.9852229 54.2923202,45.993754 54.2268467,45.9960404 C54.0253899,46.0030754 53.8357738,45.9500163 53.6752555,45.8529557 Z M54.8099884,34.0323296 L55.158,44.011 L62.1617099,49.4824659 C62.2077863,49.5184647 62.2498494,49.5576966 62.2878291,49.5995897 C63.367938,48.0026019 64,46.0751139 64,44 C64,38.7498355 59.9540397,34.4446556 54.8099884,34.0323296 Z M44,44 C44,44.4005854 44.0235541,44.7956695 44.0693528,45.1839427 L53.153,43.906 L52.8090531,34.0701815 C47.8476077,34.6589508 44,38.8801469 44,44 Z M37.5,19 C39.4329966,19 41,20.5670034 41,22.5 C41,24.4329966 39.4329966,26 37.5,26 C36.8379802,26 36.2188897,25.8161982 35.6909749,25.4968413 L32.4540092,28.6219904 C32.7997089,29.1646247 33,29.8089221 33,30.5 C33,32.4329966 31.4329966,34 29.5,34 C28.2936185,34 27.2297914,33.3896527 26.6004676,32.4609073 L20.9999999,34.4989985 C21,34.4993323 21,34.4996661 21,34.5 C21,36.4329966 19.4329966,38 17.5,38 C15.5670034,38 14,36.4329966 14,34.5 C14,32.5670034 15.5670034,31 17.5,31 C18.7242312,31 19.8016584,31.6285425 20.4271807,32.5805263 L26.0003677,30.5512583 C26.0001228,30.5342015 26,30.5171151 26,30.5 C26,28.5670034 27.5670034,27 29.5,27 C30.0119933,27 30.4983099,27.1099351 30.9366323,27.3074877 L34.3160388,24.0440144 L34.3459526,24.0190842 C34.1242568,23.559623 34,23.0443224 34,22.5 C34,20.5670034 35.5670034,19 37.5,19 Z M17.5,33 C16.6715729,33 16,33.6715729 16,34.5 C16,35.3284271 16.6715729,36 17.5,36 C18.3284271,36 19,35.3284271 19,34.5 C19,33.6715729 18.3284271,33 17.5,33 Z M29.5,29 C28.6715729,29 28,29.6715729 28,30.5 C28,31.3284271 28.6715729,32 29.5,32 C30.3284271,32 31,31.3284271 31,30.5 C31,29.6715729 30.3284271,29 29.5,29 Z M17,27 C17.5522847,27 18,27.4477153 18,28 C18,28.5522847 17.5522847,29 17,29 C16.4477153,29 16,28.5522847 16,28 C16,27.4477153 16.4477153,27 17,27 Z M65,25 C65.5522847,25 66,25.4477153 66,26 C66,26.5522847 65.5522847,27 65,27 L56,27 C55.4477153,27 55,26.5522847 55,26 C55,25.4477153 55.4477153,25 56,25 L65,25 Z M52,25 C52.5522847,25 53,25.4477153 53,26 C53,26.5522847 52.5522847,27 52,27 L50,27 C49.4477153,27 49,26.5522847 49,26 C49,25.4477153 49.4477153,25 50,25 L52,25 Z M37.5,21 C36.6715729,21 36,21.6715729 36,22.5 C36,23.3284271 36.6715729,24 37.5,24 C38.3284271,24 39,23.3284271 39,22.5 C39,21.6715729 38.3284271,21 37.5,21 Z M17,22 C17.5522847,22 18,22.4477153 18,23 C18,23.5522847 17.5522847,24 17,24 C16.4477153,24 16,23.5522847 16,23 C16,22.4477153 16.4477153,22 17,22 Z M65,19 C65.5522847,19 66,19.4477153 66,20 C66,20.5522847 65.5522847,21 65,21 L47,21 C46.4477153,21 46,20.5522847 46,20 C46,19.4477153 46.4477153,19 47,19 L65,19 Z M17,17 C17.5522847,17 18,17.4477153 18,18 C18,18.5522847 17.5522847,19 17,19 C16.4477153,19 16,18.5522847 16,18 C16,17.4477153 16.4477153,17 17,17 Z" id="形状结合" fill="#5C5E6B" fill-rule="nonzero"></path>
                <rect fill="#6A4E63" opacity="0" x="0" y="0" width="80" height="80" rx="1"></rect>
            </g>
        </g>
    </g>
</svg>