<?xml version="1.0" encoding="UTF-8"?>
<svg width="80px" height="80px" viewBox="0 0 80 80" version="1.1" xmlns="http://www.w3.org/2000/svg" xmlns:xlink="http://www.w3.org/1999/xlink">
    <!-- Generator: Sketch 59.1 (86144) - https://sketch.com -->
    <title>编组 5</title>
    <desc>Created with Sketch.</desc>
    <g id="页面-1" stroke="none" stroke-width="1" fill="none" fill-rule="evenodd">
        <g id="画板" transform="translate(-1320.000000, -341.000000)">
            <g id="编组-9备份" transform="translate(1320.000000, 341.000000)">
                <rect id="矩形备份-48" fill="#D8D8D8" opacity="0.007648" x="0" y="0" width="80" height="80"></rect>
                <path d="M58.007663,64.9999701 C58.0107608,65.6247182 58.0089487,66.2902498 58,67 C57.8617262,77.9669314 45.3437841,72.0504504 36.4965673,65.0002584 Z M19.000915,34.510184 L19,43 L13,50 L13.0007126,54.7113428 C11.7726377,54.5777548 10.4524179,54.3136254 9.01521695,53.8427811 C-0.80552659,50.6253877 5.92766117,40.7342203 11.1944734,38.6253877 C14.4481838,37.3226014 16.8755838,35.7616906 19.000915,34.510184 Z M61.0012949,32.716877 C66.5054744,33.336571 70.2365339,33.9727412 72.1944734,34.6253877 C75.1944734,35.6253877 80.1944734,43.6253877 67.844665,49.9669336 C67.5547284,50.1158141 67.2730782,50.259256 66.9994828,50.3976166 L67,50 L61,43 Z M35,8 C41.2156446,0.781038127 46,12 50,19 C50.76693,20.3421275 51.606761,21.6753486 52.519493,22.9996632 L27.5865925,22.9999848 C29.5095253,17.785451 31.8213604,11.6917295 35,8 Z" id="形状结合" fill="#F3F6FC"></path>
                <path d="M25,62 L25,64 L54.5,64 L54.5,64 L54.5,62 L25,62 L25,62 Z M49,56 C49.5522847,56 50,56.4477153 50,57 C50,57.5128358 49.6139598,57.9355072 49.1166211,57.9932723 L49,58 L48,58 C47.4477153,58 47,57.5522847 47,57 C47,56.4871642 47.3860402,56.0644928 47.8833789,56.0067277 L48,56 L49,56 Z M42.7066325,25.2 L44.0717115,29.0222213 C44.8748345,31.2709655 43.7029269,33.7449926 41.4541827,34.5481156 C41.2087994,34.6357525 40.9564546,34.7008654 40.7002724,34.7429132 L40.6998757,37.176608 C41.4676574,36.3354096 42.5712626,35.9 43.9995491,35.9 C47.065134,35.9 48.8952396,38.828169 49.5949159,44.4255792 C49.665776,44.9924607 48.9792503,45.3282293 48.5752851,44.9242641 C47.1072393,43.4562183 45.5482427,42.5259774 43.8862902,42.1263003 L45.5453523,47.1062347 C46.5662234,50.1688482 44.9110643,53.4791666 41.8484508,54.5000377 C41.2524247,54.6987131 40.6282667,54.8 40,54.8 C36.7717219,54.8 34.1546855,52.1829635 34.1546855,48.9546855 C34.1546855,48.3264188 34.2559724,47.7022608 34.4546477,47.1062347 L36.113674,42.1262005 C34.451566,42.5258225 32.892432,43.4560961 31.4242641,44.9242641 C31.0202988,45.3282293 30.3337731,44.9924607 30.4046333,44.4255792 C31.1043095,38.828169 32.9344152,35.9 36,35.9 C37.4288498,35.9 38.532762,36.335753 39.3005815,37.1776033 L39.3000932,34.74364 C37.2450672,34.4091425 35.676404,32.6259637 35.676404,30.476404 C35.676404,29.9808229 35.7616065,29.4889308 35.9282885,29.0222213 L37.2933675,25.2 L42.7066325,25.2 Z M42.4233926,42.8 L37.5766074,42.8 L35.972541,47.6121991 C35.8282478,48.0450789 35.7546855,48.4983902 35.7546855,48.9546855 C35.7546855,51.2993079 37.6553775,53.2 40,53.2 C40.4562953,53.2 40.9096066,53.1264377 41.3424863,52.9821445 C43.5667905,52.2407097 44.7688937,49.8365033 44.027459,47.6121991 L42.4233926,42.8 Z M36,37.1 C33.9905002,37.1 32.5813103,38.9885605 31.845523,42.9458412 C34.0338889,41.2299879 36.4399502,40.4927651 39.0378812,40.7497498 L39.2995491,40.779 L39.3000173,40.0702713 C38.9821534,38.0368555 37.9021725,37.1 36,37.1 Z M43.9995491,37.1 C42.0995981,37.1 41.0199193,38.0346686 40.7006486,40.0631517 L40.6995491,40.779 L40.9616679,40.7497498 C43.4466454,40.5039384 45.7560748,41.167761 47.8673547,42.7275855 L48.1540262,42.9458412 C47.4182388,38.9885605 46.0090489,37.1 43.9995491,37.1 Z M41.5790818,26.8 L38.4209182,26.8 L37.4350755,29.5603596 C37.3300763,29.8543574 37.276404,30.1642188 37.276404,30.476404 C37.276404,31.9806045 38.4957995,33.2 40,33.2 C40.3121852,33.2 40.6220466,33.1463277 40.9160445,33.0413285 C42.3326131,32.5354111 43.0708419,30.9769282 42.5649245,29.5603596 L41.5790818,26.8 Z M67.8368844,49.4516513 C67.8441613,49.4634821 67.8518229,49.4757042 67.8592238,49.4880999 C67.9469106,49.631791 67.9919726,49.786661 68.0004486,49.9405751 L68,61 C68,61.5128358 67.6139598,61.9355072 67.1166211,61.9932723 L67,62 L66.5,62 L66.5,62 L66.5,64 L70,64 C70.5522847,64 71,64.4477153 71,65 C71,65.5522847 70.5522847,66 70,66 L20,66 C19.4477153,66 19,65.5522847 19,65 C19,64.4477153 19.4477153,64 20,64 L23,64 L23,64 L23,62 L20,62 C19.4871642,62 19.0644928,61.6139598 19.0067277,61.1166211 L19,61 L18.9989459,57.0337833 C18.9931764,56.8818044 19.0224624,56.7259343 19.0926938,56.577618 C19.1004679,56.562329 19.107623,56.5479486 19.115109,56.5337698 C19.1177938,56.5281126 19.1214036,56.5215165 19.1250981,56.5149391 L19.1372971,56.4939724 C19.14933,56.4735024 19.1620706,56.4534984 19.1754853,56.4339942 L19.1862665,56.4187618 L23.887151,49.8375236 C24.2312887,49.3557307 24.7692943,49.0534723 25.3540812,49.0064417 L25.5146179,49 L31,49 C31.5522847,49 32,49.4477153 32,50 C32,50.5128358 31.6139598,50.9355072 31.1166211,50.9932723 L31,51 L25.5146179,51 L21.9431893,56 L44,56 C44.5522847,56 45,56.4477153 45,57 C45,57.5128358 44.6139598,57.9355072 44.1166211,57.9932723 L44,58 L21,58 L21,60 L59,60 L58.999068,58 L53,58 C52.4477153,58 52,57.5522847 52,57 C52,56.4871642 52.3860402,56.0644928 52.8833789,56.0067277 L53,56 L57.8257794,56 L53.5400651,51 L48,51 C47.4477153,51 47,50.5522847 47,50 C47,49.4871642 47.3860402,49.0644928 47.8833789,49.0067277 L48,49 L53.5400651,49 C54.0655299,49 54.5673826,49.2066516 54.9394925,49.5711417 L55.0585783,49.6984173 L60.7592566,56.3492086 L60.7675859,56.3590158 L60.78,56.374 L60.779,56.374 L60.799,56.399 L60.789,56.385 L60.8000462,56.3998009 C60.8129807,56.4168824 60.8252566,56.4341735 60.8368844,56.4516513 C60.8441613,56.4634821 60.8518229,56.4757042 60.8592238,56.4880999 C60.9469106,56.631791 60.9919726,56.786661 61.0004486,56.9405751 L61,61 C61,61.5128358 60.6139598,61.9355072 60.1166211,61.9932723 L60,62 L56.5,62 L56.5,62 L56.5,64 L64.5,64 L64.5,62 L64,62 C63.4477153,62 63,61.5522847 63,61 C63,60.4871642 63.3860402,60.0644928 63.8833789,60.0067277 L64,60 L66,60 L65.999068,51 L59,51 C58.4477153,51 58,50.5522847 58,50 C58,49.4871642 58.3860402,49.0644928 58.8833789,49.0067277 L59,49 L64.8257794,49 L60.540068,44 L52,44 C51.4871642,44 51.0644928,43.6139598 51.0067277,43.1166211 L51,43 C51,42.4871642 51.3860402,42.0644928 51.8833789,42.0067277 L52,42 L60,42 L60,24 L20,24 L20,42 L28,42 C28.5522847,42 29,42.4477153 29,43 C29,43.5128358 28.6139598,43.9355072 28.1166211,43.9932723 L28,44 L19.459068,44 L15.1742206,49 L21,49 C21.5522847,49 22,49.4477153 22,50 C22,50.5128358 21.6139598,50.9355072 21.1166211,50.9932723 L21,51 L13.999068,51 L14,60 L16,60 C16.5522847,60 17,60.4477153 17,61 C17,61.5128358 16.6139598,61.9355072 16.1166211,61.9932723 L16,62 L15,62 L15,62 L15,64 L16,64 C16.5522847,64 17,64.4477153 17,65 C17,65.5522847 16.5522847,66 16,66 L10,66 C9.44771525,66 9,65.5522847 9,65 C9,64.4477153 9.44771525,64 10,64 L13,64 L13,62 C12.4871642,62 12.0644928,61.6139598 12.0067277,61.1166211 L12,61 L11.9991125,50.0399157 C11.9903615,49.8494425 12.0363157,49.6534285 12.1477908,49.4753899 C12.1523534,49.4691369 12.1563284,49.4628554 12.1603709,49.4566217 C12.1644992,49.4495165 12.1691667,49.4425986 12.1739367,49.4357112 L12.2007491,49.3989067 C12.210702,49.3856937 12.2209749,49.3727355 12.2315563,49.3600434 L12.2407434,49.3492086 L17.999068,42.63 L17.999068,37 L17,37 C15.4023191,37 14.0963391,38.24892 14.0050927,39.8237272 L14,40 L14,45 C14,45.5522847 13.5522847,46 13,46 C12.4871642,46 12.0644928,45.6139598 12.0067277,45.1166211 L12,45 L12,40 C12,37.3112453 14.1223067,35.1181819 16.7831104,35.0046195 L17,35 L17.999068,35 L18,23 C18,22.4871642 18.3860402,22.0644928 18.8833789,22.0067277 L19,22 L61,22 C61.5128358,22 61.9355072,22.3860402 61.9932723,22.8833789 L62,23 L61.999068,35 L63,35 C65.6887547,35 67.8818181,37.1223067 67.9953805,39.7831104 L68,40 L68,45 C68,45.5522847 67.5522847,46 67,46 C66.4871642,46 66.0644928,45.6139598 66.0067277,45.1166211 L66,45 L66,40 C66,38.4023191 64.75108,37.0963391 63.1762728,37.0050927 L63,37 L61.999068,37 L61.999068,42.629 L67.7592566,49.3492086 L67.76,49.35 L67.761,49.352 L67.7675859,49.3590158 L67.768,49.36 L67.78,49.374 L67.779,49.374 L67.799,49.399 L67.799,49.398 C67.8129807,49.4168824 67.8252566,49.4341735 67.8368844,49.4516513 Z" id="形状结合" fill="#737EB1"></path>
                <rect id="矩形" fill="#737EB1" x="23" y="17" width="18" height="2" rx="1"></rect>
                <rect id="矩形备份-62" fill="#737EB1" x="43" y="17" width="2" height="2" rx="1"></rect>
                <rect id="矩形备份-61" fill="#737EB1" x="39" y="13" width="2" height="2" rx="1"></rect>
                <rect id="矩形备份-63" fill="#737EB1" x="43" y="13" width="18" height="2" rx="1"></rect>
                <path d="M14.4494897,13.4494897 C14.7256321,13.4494897 14.9494897,13.6733474 14.9494897,13.9494897 L14.9494897,14.9484897 L15.9494897,14.9494897 C16.2256321,14.9494897 16.4494897,15.1733474 16.4494897,15.4494897 C16.4494897,15.7256321 16.2256321,15.9494897 15.9494897,15.9494897 L14.9494897,15.9494897 L14.9494897,16.9494897 C14.9494897,17.2256321 14.7256321,17.4494897 14.4494897,17.4494897 C14.1733474,17.4494897 13.9494897,17.2256321 13.9494897,16.9494897 L13.9494897,15.9494897 L12.9494897,15.9494897 C12.6733474,15.9494897 12.4494897,15.7256321 12.4494897,15.4494897 C12.4494897,15.1733474 12.6733474,14.9494897 12.9494897,14.9494897 L13.9494897,14.9494897 L13.9494897,13.9494897 C13.9494897,13.6733474 14.1733474,13.4494897 14.4494897,13.4494897 Z" id="形状结合备份-15" fill="#737EB1" transform="translate(14.449490, 15.449490) rotate(-15.000000) translate(-14.449490, -15.449490) "></path>
                <path d="M69,27 C69.2761424,27 69.5,27.2238576 69.5,27.5 L69.5,28.499 L70.5,28.5 C70.7761424,28.5 71,28.7238576 71,29 C71,29.2761424 70.7761424,29.5 70.5,29.5 L69.5,29.5 L69.5,30.5 C69.5,30.7761424 69.2761424,31 69,31 C68.7238576,31 68.5,30.7761424 68.5,30.5 L68.5,29.5 L67.5,29.5 C67.2238576,29.5 67,29.2761424 67,29 C67,28.7238576 67.2238576,28.5 67.5,28.5 L68.5,28.5 L68.5,27.5 C68.5,27.2238576 68.7238576,27 69,27 Z" id="形状结合备份-26" fill="#737EB1" transform="translate(69.000000, 29.000000) rotate(-15.000000) translate(-69.000000, -29.000000) "></path>
                <path d="M61,10 C61.2761424,10 61.5,10.2238576 61.5,10.5 L61.5,11.499 L62.5,11.5 C62.7761424,11.5 63,11.7238576 63,12 C63,12.2761424 62.7761424,12.5 62.5,12.5 L61.5,12.5 L61.5,13.5 C61.5,13.7761424 61.2761424,14 61,14 C60.7238576,14 60.5,13.7761424 60.5,13.5 L60.5,12.5 L59.5,12.5 C59.2238576,12.5 59,12.2761424 59,12 C59,11.7238576 59.2238576,11.5 59.5,11.5 L60.5,11.5 L60.5,10.5 C60.5,10.2238576 60.7238576,10 61,10 Z" id="形状结合备份-28" fill="#F3F6FC" transform="translate(61.000000, 12.000000) rotate(-15.000000) translate(-61.000000, -12.000000) "></path>
                <path d="M24,64 C24.2761424,64 24.5,64.2238576 24.5,64.5 L24.5,65.499 L25.5,65.5 C25.7761424,65.5 26,65.7238576 26,66 C26,66.2761424 25.7761424,66.5 25.5,66.5 L24.5,66.5 L24.5,67.5 C24.5,67.7761424 24.2761424,68 24,68 C23.7238576,68 23.5,67.7761424 23.5,67.5 L23.5,66.5 L22.5,66.5 C22.2238576,66.5 22,66.2761424 22,66 C22,65.7238576 22.2238576,65.5 22.5,65.5 L23.5,65.5 L23.5,64.5 C23.5,64.2238576 23.7238576,64 24,64 Z" id="形状结合备份-27" fill="#F3F6FC" transform="translate(24.000000, 66.000000) rotate(-15.000000) translate(-24.000000, -66.000000) "></path>
            </g>
        </g>
    </g>
</svg>