<?xml version="1.0" encoding="UTF-8"?>
<svg width="80px" height="80px" viewBox="0 0 80 80" version="1.1" xmlns="http://www.w3.org/2000/svg" xmlns:xlink="http://www.w3.org/1999/xlink">
    <!-- Generator: Sketch 59.1 (86144) - https://sketch.com -->
    <title>编组 5</title>
    <desc>Created with Sketch.</desc>
    <g id="页面-1" stroke="none" stroke-width="1" fill="none" fill-rule="evenodd">
        <g id="画板" transform="translate(-741.000000, -341.000000)">
            <g id="编组-6" transform="translate(741.000000, 341.000000)">
                <rect id="矩形备份-34" fill="#D8D8D8" opacity="0.01" x="0" y="0" width="80" height="80"></rect>
                <path d="M50.0997447,62.0004131 C49.5767873,64.0196611 49.1454206,66.301482 48.7457405,68.9020017 C46.6390156,82.6094137 32.9453038,69.956418 26.6251291,62.5755038 C26.455192,62.3770455 26.290751,62.185386 26.1314083,62.0002211 Z M11.9839037,33.9711798 C12.8066337,34.8775928 14.1453325,35.8871995 16,37 L16,37 L16.0008545,55.045393 C14.4788301,54.5548307 12.551398,53.9287093 10,53 C-1.58698694,48.7823348 0.733187755,39.1088326 6,37 C7.79842369,36.2799108 9.79093578,35.2224199 11.7611116,34.0999281 Z M66.0013979,30.5123536 C68.8097238,31.4279008 71.0411102,32.5067127 72.6955571,33.7487893 C76.9090069,36.9120382 79.1202619,41.9064873 66.4799125,46.1241525 C66.3184095,46.1780407 66.1584823,46.2320326 66.0001127,46.2861453 Z M34.3657489,12.0919037 C40.4761908,4.9951261 45.5517888,11.7622332 47.7234054,16.0004507 L45,16 C44.3333333,16 43.6666667,16.6666667 43,18 L43,18 L43,26 L24.4754071,26.0013343 C27.0016524,22.679676 30.0652231,17.0866121 34.3657489,12.0919037 Z" id="形状结合" fill="#F3F6FC"></path>
                <path d="M64,16 C64.2761424,16 64.5,16.2238576 64.5,16.5 L64.5,17.499 L65.5,17.5 C65.7761424,17.5 66,17.7238576 66,18 C66,18.2761424 65.7761424,18.5 65.5,18.5 L64.5,18.5 L64.5,19.5 C64.5,19.7761424 64.2761424,20 64,20 C63.7238576,20 63.5,19.7761424 63.5,19.5 L63.5,18.5 L62.5,18.5 C62.2238576,18.5 62,18.2761424 62,18 C62,17.7238576 62.2238576,17.5 62.5,17.5 L63.5,17.5 L63.5,16.5 C63.5,16.2238576 63.7238576,16 64,16 Z" id="形状结合备份-4" fill="#E9EFFD" transform="translate(64.000000, 18.000000) rotate(-15.000000) translate(-64.000000, -18.000000) "></path>
                <path d="M4,54 C4.27614237,54 4.5,54.2238576 4.5,54.5 L4.5,55.499 L5.5,55.5 C5.77614237,55.5 6,55.7238576 6,56 C6,56.2761424 5.77614237,56.5 5.5,56.5 L4.5,56.5 L4.5,57.5 C4.5,57.7761424 4.27614237,58 4,58 C3.72385763,58 3.5,57.7761424 3.5,57.5 L3.5,56.5 L2.5,56.5 C2.22385763,56.5 2,56.2761424 2,56 C2,55.7238576 2.22385763,55.5 2.5,55.5 L3.5,55.5 L3.5,54.5 C3.5,54.2238576 3.72385763,54 4,54 Z" id="形状结合备份-5" fill="#E9EFFD" transform="translate(4.000000, 56.000000) rotate(-15.000000) translate(-4.000000, -56.000000) "></path>
                <path d="M60,66 C60.2761424,66 60.5,66.2238576 60.5,66.5 L60.5,67.499 L61.5,67.5 C61.7761424,67.5 62,67.7238576 62,68 C62,68.2761424 61.7761424,68.5 61.5,68.5 L60.5,68.5 L60.5,69.5 C60.5,69.7761424 60.2761424,70 60,70 C59.7238576,70 59.5,69.7761424 59.5,69.5 L59.5,68.5 L58.5,68.5 C58.2238576,68.5 58,68.2761424 58,68 C58,67.7238576 58.2238576,67.5 58.5,67.5 L59.5,67.5 L59.5,66.5 C59.5,66.2238576 59.7238576,66 60,66 Z" id="形状结合备份-6" fill="#737EB1" transform="translate(60.000000, 68.000000) rotate(-15.000000) translate(-60.000000, -68.000000) "></path>
                <path d="M14.9999359,36.3263384 C15.621658,36.6216941 16.2938252,36.8280999 16.9999918,36.92911 L16.999,57.9993737 L14.999,57.9993737 L14.9999359,36.3263384 Z M65,25 C66.1045695,25 67,25.8954305 67,27 L66.999,57.9993737 L64.999,57.9993737 L65,27 L58,27 L58,25 L65,25 Z M63.5,27.5 L63.5,56.5 L18.5,56.5 L18.5003924,36.9823903 C18.8411986,36.9583188 19.1752682,36.9098505 19.5008652,36.8387213 L19.5,55.5 L62.5,55.5 L62.5,28.5 L58,28.5 L58,27.5 L63.5,27.5 Z M43,27.5 L43,28.5 L24.8388535,28.4997404 C24.7638968,28.1564759 24.6637536,27.8226267 24.5404578,27.5002265 L43,27.5 Z M43,25 L43,27 L24.3260191,26.9992639 C23.9698231,26.2496799 23.4843222,25.5734408 22.8983435,24.9993737 L43,25 Z" id="形状结合" fill="#737EB1" fill-rule="nonzero"></path>
                <rect id="矩形备份-11" fill="#E4E9F6" x="30" y="32" width="14" height="2" rx="1"></rect>
                <rect id="矩形备份-12" fill="#E4E9F6" x="23" y="37" width="20" height="2" rx="1"></rect>
                <rect id="矩形备份-29" fill="#E4E9F6" x="23" y="47" width="22" height="2" rx="1"></rect>
                <rect id="矩形备份-31" fill="#E4E9F6" x="23" y="51" width="37" height="2" rx="1"></rect>
                <rect id="矩形备份-13" fill="#E4E9F6" x="45" y="42" width="15" height="2" rx="1"></rect>
                <rect id="矩形备份-30" fill="#E4E9F6" x="49" y="47" width="11" height="2" rx="1"></rect>
                <rect id="矩形备份-28" fill="#E4E9F6" x="23" y="42" width="15" height="2" rx="1"></rect>
                <g id="编组" transform="translate(2.000000, 14.000000)">
                    <path d="M15.5609606,8 C19.9792386,8 23.5609606,11.581722 23.5609606,16 C23.5609606,20.418278 19.9792386,24 15.5609606,24 C11.1426826,24 7.5609606,20.418278 7.5609606,16 C7.5609606,11.581722 11.1426826,8 15.5609606,8 Z M15.5609606,10 C12.2472521,10 9.5609606,12.6862915 9.5609606,16 C9.5609606,19.3137085 12.2472521,22 15.5609606,22 C18.8746691,22 21.5609606,19.3137085 21.5609606,16 C21.5609606,12.6862915 18.8746691,10 15.5609606,10 Z" id="椭圆形" fill="#737EB1" fill-rule="nonzero"></path>
                    <path d="M15.5,0.5 C16.0522847,0.5 16.5,0.94771525 16.5,1.5 L16.5,4.5 C16.5,5.05228475 16.0522847,5.5 15.5,5.5 C14.9477153,5.5 14.5,5.05228475 14.5,4.5 L14.5,1.5 C14.5,0.94771525 14.9477153,0.5 15.5,0.5 Z" id="矩形" fill="#737EB1" fill-rule="nonzero"></path>
                    <path d="M8.5,2.5 C9.05228475,2.5 9.5,2.94771525 9.5,3.5 L9.5,6.5 C9.5,7.05228475 9.05228475,7.5 8.5,7.5 C7.94771525,7.5 7.5,7.05228475 7.5,6.5 L7.5,3.5 C7.5,2.94771525 7.94771525,2.5 8.5,2.5 Z" id="矩形备份-14" fill="#737EB1" fill-rule="nonzero" transform="translate(8.500000, 5.000000) rotate(-40.000000) translate(-8.500000, -5.000000) "></path>
                    <path d="M3.5,9.5 C4.05228475,9.5 4.5,9.94771525 4.5,10.5 L4.5,13.5 C4.5,14.0522847 4.05228475,14.5 3.5,14.5 C2.94771525,14.5 2.5,14.0522847 2.5,13.5 L2.5,10.5 C2.5,9.94771525 2.94771525,9.5 3.5,9.5 Z" id="矩形备份-15" fill="#737EB1" fill-rule="nonzero" transform="translate(3.500000, 12.000000) rotate(-80.000000) translate(-3.500000, -12.000000) "></path>
                    <circle id="椭圆形" fill="#737EB1" cx="15.5609606" cy="16" r="4"></circle>
                    <polygon id="星形" fill="#FFFFFF" points="15.5 17.45 14.0305369 18.2225425 14.3111794 16.5862712 13.1223587 15.4274575 14.7652684 15.1887288 15.5 13.7 16.2347316 15.1887288 17.8776413 15.4274575 16.6888206 16.5862712 16.9694631 18.2225425"></polygon>
                    <path d="M22.7013677,27.6334998 C23.0793466,28.0114787 23.7256318,27.7437787 23.7256318,27.2092358 L23.7256318,21.2939704 C23.7256318,20.9625995 23.4570026,20.6939704 23.1256318,20.6939704 C22.7942609,20.6939704 22.5256318,20.9625995 22.5256318,21.2939704 L22.5256318,25.7607076 L21.5498958,24.7849717 C21.3155813,24.5506571 20.9356823,24.5506571 20.7013677,24.7849717 L19.7256318,25.7607076 L19.7256318,21.0857963 C19.7256318,20.7544255 19.4570026,20.4857963 19.1256318,20.4857963 C18.7942609,20.4857963 18.5256318,20.7544255 18.5256318,21.0857963 L18.5256318,27.2092358 C18.5256318,27.7437787 19.1719169,28.0114787 19.5498958,27.6334998 L21.1256318,26.0577639 L22.7013677,27.6334998 Z" id="路径" fill="#737EB1" fill-rule="nonzero" transform="translate(21.125632, 24.148117) rotate(-37.000000) translate(-21.125632, -24.148117) "></path>
                    <path d="M10,26.0574893 L11.5757359,27.6332253 C11.9537148,28.0112042 12.6,27.7435041 12.6,27.2089612 L12.6,21.0882487 C12.6,20.7568778 12.3313708,20.4882487 12,20.4882487 C11.6686292,20.4882487 11.4,20.7568778 11.4,21.0882487 L11.4,25.7604331 L10.4242641,24.7846971 C10.1899495,24.5503826 9.81005051,24.5503826 9.57573593,24.7846971 L8.6,25.7604331 L8.6,21.2964227 C8.6,20.9650519 8.33137085,20.6964227 8,20.6964227 C7.66862915,20.6964227 7.4,20.9650519 7.4,21.2964227 L7.4,27.2089612 C7.4,27.7435041 8.04628515,28.0112042 8.42426407,27.6332253 L10,26.0574893 Z" id="路径" fill="#737EB1" fill-rule="nonzero" transform="translate(10.000000, 24.149206) rotate(37.000000) translate(-10.000000, -24.149206) "></path>
                </g>
                <g id="编组-3" transform="translate(42.000000, 15.000000)">
                    <path d="M14,0 C15.6568542,0 17,1.34314575 17,3 L17,25 C17,26.6568542 15.6568542,28 14,28 L3,28 C1.34314575,28 0,26.6568542 0,25 L0,3 C0,1.34314575 1.34314575,0 3,0 L14,0 Z M14,2 L3,2 C2.44771525,2 2,2.44771525 2,3 L2,25 C2,25.5522847 2.44771525,26 3,26 L14,26 C14.5522847,26 15,25.5522847 15,25 L15,3 C15,2.44771525 14.5522847,2 14,2 Z" id="矩形" fill="#737EB1" fill-rule="nonzero"></path>
                    <path d="M11.5,0 C12.3284271,0 13,0.671572875 13,1.5 C13,2.32842712 12.3284271,3 11.5,3 L5.5,3 C4.67157288,3 4,2.32842712 4,1.5 C4,0.671572875 4.67157288,0 5.5,0 L11.5,0 Z M11.5,2 L5.5,2 C5.77614237,2 6,1.77614237 6,1.5 C6,1.22385763 5.77614237,1 5.5,1 L11.5,1 C11.2238576,1 11,1.22385763 11,1.5 C11,1.77614237 11.2238576,2 11.5,2 Z" id="矩形备份-16" fill="#737EB1" fill-rule="nonzero"></path>
                    <rect id="矩形备份-17" fill="#737EB1" x="6" y="24" width="5" height="1" rx="0.5"></rect>
                    <path d="M12.5,21 C12.7761424,21 13,21.2238576 13,21.5 C13,21.7761424 12.7761424,22 12.5,22 L4.5,22 C4.22385763,22 4,21.7761424 4,21.5 C4,21.2238576 4.22385763,21 4.5,21 L12.5,21 Z M11.5,19 C11.7761424,19 12,19.2238576 12,19.5 C12,19.7761424 11.7761424,20 11.5,20 L9.5,20 C9.22385763,20 9,19.7761424 9,19.5 C9,19.2238576 9.22385763,19 9.5,19 L11.5,19 Z M7,14 C7.55228475,14 8,14.4477153 8,15 L8,19 C8,19.5522847 7.55228475,20 7,20 L5,20 C4.44771525,20 4,19.5522847 4,19 L4,15 C4,14.4477153 4.44771525,14 5,14 L7,14 Z M12.5,17 C12.7761424,17 13,17.2238576 13,17.5 C13,17.7761424 12.7761424,18 12.5,18 L9.5,18 C9.22385763,18 9,17.7761424 9,17.5 C9,17.2238576 9.22385763,17 9.5,17 L12.5,17 Z M12.5,15 C12.7761424,15 13,15.2238576 13,15.5 C13,15.7761424 12.7761424,16 12.5,16 L9.5,16 C9.22385763,16 9,15.7761424 9,15.5 C9,15.2238576 9.22385763,15 9.5,15 L12.5,15 Z M12.5,11 C12.7761424,11 13,11.2238576 13,11.5 C13,11.7761424 12.7761424,12 12.5,12 L4.5,12 C4.22385763,12 4,11.7761424 4,11.5 C4,11.2238576 4.22385763,11 4.5,11 L12.5,11 Z M6.5,9 C6.77614237,9 7,9.22385763 7,9.5 C7,9.77614237 6.77614237,10 6.5,10 L4.5,10 C4.22385763,10 4,9.77614237 4,9.5 C4,9.22385763 4.22385763,9 4.5,9 L6.5,9 Z M12,4 C12.5522847,4 13,4.44771525 13,5 L13,9 C13,9.55228475 12.5522847,10 12,10 L10,10 C9.44771525,10 9,9.55228475 9,9 L9,5 C9,4.44771525 9.44771525,4 10,4 L12,4 Z M7.5,7 C7.77614237,7 8,7.22385763 8,7.5 C8,7.77614237 7.77614237,8 7.5,8 L4.5,8 C4.22385763,8 4,7.77614237 4,7.5 C4,7.22385763 4.22385763,7 4.5,7 L7.5,7 Z M7.5,5 C7.77614237,5 8,5.22385763 8,5.5 C8,5.77614237 7.77614237,6 7.5,6 L4.5,6 C4.22385763,6 4,5.77614237 4,5.5 C4,5.22385763 4.22385763,5 4.5,5 L7.5,5 Z" id="形状结合" fill="#E4E9F6"></path>
                </g>
                <path d="M72,58 C72,60.7614237 69.7614237,63 67,63 L15,63 C12.2385763,63 10,60.7614237 10,58 L10,57 L72,57 L72,58 Z M12.1707057,59 C12.5825421,60.1651924 13.6937812,61 15,61 L67,61 C68.2409079,61 69.3058465,60.2465861 69.7623364,59.1722379 L69.8292943,59 L12.1707057,59 Z" id="矩形" fill="#737EB1" fill-rule="nonzero"></path>
            </g>
        </g>
    </g>
</svg>