<?xml version="1.0" encoding="UTF-8"?>
<svg width="80px" height="80px" viewBox="0 0 80 80" version="1.1" xmlns="http://www.w3.org/2000/svg" xmlns:xlink="http://www.w3.org/1999/xlink">
    <!-- Generator: Sketch 59.1 (86144) - https://sketch.com -->
    <title>技术开发</title>
    <desc>Created with Sketch.</desc>
    <g id="页面-1" stroke="none" stroke-width="1" fill="none" fill-rule="evenodd">
        <g id="傲创首页备份-2" transform="translate(-587.000000, -1155.000000)">
            <g id="编组-3备份-8" transform="translate(587.000000, 1155.000000)">
                <g id="编组-10备份-2">
                    <g id="编组-16">
                        <g id="技术开发">
                            <path d="M39.8143727,2 C44.5157645,2 48.3459753,9.76299268 50.3334794,21.2902943 C61.3729294,17.2045785 70.0704058,16.6193993 72.4304448,20.7071068 C72.6996988,21.1734684 72.8785369,21.6831024 72.9688704,22.2290834 C74.0523819,22.6820702 74.8143727,23.7520489 74.8143727,25 C74.8143727,26.6568542 73.4712269,28 71.8143727,28 C71.700787,28 71.5886757,27.9936875 71.4783705,27.9813942 C69.4946011,31.4773114 65.6976407,35.5593135 60.6799966,39.6983772 C69.8654335,47.2741347 74.8086988,54.5891587 72.4315781,58.7064525 C70.0780495,62.7828835 61.4220004,62.2121737 50.4264477,58.1564901 C48.4675807,69.9881301 44.5905319,78 39.8143727,78 C35.0107202,78 31.1165593,69.8956267 29.1681999,57.9522082 C17.9117347,62.192561 9.00518182,62.8513289 6.6125141,58.7071068 C4.83391473,55.6264823 7.00040632,50.924018 12.1806313,45.4365089 C11.9469195,45.0100102 11.8143727,44.5204841 11.8143727,44 C11.8143727,42.3431458 13.1575184,41 14.8143727,41 C15.3781865,41 15.9056734,41.1555342 16.356268,41.4260374 C17.0018815,40.8565959 17.6725477,40.2850731 18.3650472,39.7136621 C9.18024218,32.1394365 4.23641846,24.8239338 6.6136474,20.7064525 C9.01274839,16.5510877 17.9608099,17.2245755 29.2601158,21.4959224 C31.2373479,9.85538877 35.0850853,2 39.8143727,2 Z M39.5228265,53.3531268 L39.1384481,53.5471621 C36.3819021,54.9334381 33.6850036,56.1557276 31.0952069,57.2001144 C32.8658246,68.3906113 36.2469982,76 39.8143727,76 C43.3584871,76 46.7188207,68.4895176 48.4981766,57.4188632 C45.6218283,56.2802933 42.6081746,54.9186264 39.5228265,53.3531268 Z M19.9562058,40.9956298 L19.3558512,41.4900785 C18.76339,41.9833216 18.1880282,42.4762943 17.630854,42.9681404 C17.7500338,43.2897741 17.8143727,43.6373735 17.8143727,44 C17.8143727,45.6568542 16.4712269,47 14.8143727,47 C14.4088834,47 14.0221836,46.9195524 13.6693633,46.7737469 C9.04197751,51.6694924 7.17328586,55.678392 8.3445649,57.7071068 C10.12112,60.7841905 18.3426468,59.9269777 28.858028,55.9064564 C28.455674,53.0204578 28.1618049,49.9388921 27.9903137,46.7154332 C25.0862229,44.8343204 22.3917206,42.9119602 19.9562058,40.9956298 Z M59.0712103,40.9945318 L58.8713691,41.1513187 C56.654934,42.8864787 54.2367342,44.6208237 51.6601962,46.3156286 C51.4870829,49.7628759 51.1755684,53.0514535 50.7404359,56.1158288 C60.9898105,59.9553722 68.9543451,60.7291966 70.6995273,57.7064525 C72.4633148,54.6514829 67.6923648,48.0339166 59.0712103,40.9945318 Z M49.5721909,47.6576999 L49.5556539,47.6688133 C48.2448633,48.4926974 46.8984029,49.3044445 45.5214794,50.0994116 L44.4303969,50.7223836 C43.5249958,51.2335676 42.6226634,51.7286757 41.724982,52.207244 C44.1542971,53.3964968 46.5272393,54.4513505 48.8045531,55.3646043 C49.1394273,52.932032 49.3997857,50.350552 49.5721909,47.6576999 Z M30.0809123,48.0400661 L30.1180481,48.5620665 C30.2826026,50.8478389 30.5106515,53.0487254 30.7938468,55.1411236 C32.9014952,54.2803129 35.0869174,53.3006677 37.3193856,52.2076437 C36.4214288,51.7280214 35.5190964,51.2329133 34.6136953,50.7217293 L33.5226127,50.0987573 L32.4375619,49.4653381 C31.6394502,48.9942534 30.8536188,48.5188941 30.0809123,48.0400661 Z M39.5227222,28.3133835 L39.133301,28.5152571 C37.6087999,29.3093043 36.0683684,30.153756 34.5214794,31.0468527 C32.9656308,31.9451224 31.4461332,32.8668169 29.9715174,33.8052246 C29.8784578,35.6293555 29.8250252,37.4998007 29.815809,39.4057226 L29.815809,40.5942774 C29.8240048,42.2891722 29.8671675,43.9560114 29.942521,45.5869457 C31.0959238,46.3222004 32.2822005,47.0508337 33.4981416,47.7686142 L34.5226127,48.3667065 L35.5528114,48.9548783 C36.8849033,49.7068919 38.210618,50.4223844 39.5238669,51.1002253 C40.6696521,50.5075578 41.8257879,49.8869739 42.9873709,49.2384402 L43.4912808,48.9555327 L44.5214794,48.3673608 C46.305893,47.3371292 48.0374459,46.2784278 49.7039898,45.2025047 C49.7599323,43.8853473 49.7955117,42.5451913 49.8086451,41.1862641 L49.8143727,40 L49.8086451,38.8137359 C49.7935021,37.2468665 49.7485181,35.7049525 49.6759126,34.194269 C48.1845323,33.230922 46.6354704,32.2780536 45.0365539,31.344581 L44.0072353,30.7503036 C42.5023597,29.8911389 41.0046059,29.0782906 39.5227222,28.3133835 Z M14.8143727,43 C14.2620879,43 13.8143727,43.4477153 13.8143727,44 C13.8143727,44.5522847 14.2620879,45 14.8143727,45 C15.3666574,45 15.8143727,44.5522847 15.8143727,44 C15.8143727,43.4477153 15.3666574,43 14.8143727,43 Z M27.9053584,35.1514042 L27.5212779,35.4074531 C25.4231552,36.8174182 23.4333228,38.2555568 21.5792244,39.7002766 C23.521534,41.2137535 25.6317466,42.73847 27.8844045,44.2430601 C27.8446222,43.0545756 27.821745,41.8490921 27.8158837,40.6294479 L27.8158837,39.3705521 C27.8227421,37.9434162 27.8528986,36.5356689 27.9053584,35.1514042 Z M39.8143727,36 C42.0235117,36 43.8143727,37.790861 43.8143727,40 C43.8143727,42.209139 42.0235117,44 39.8143727,44 C37.6052337,44 35.8143727,42.209139 35.8143727,40 C35.8143727,37.790861 37.6052337,36 39.8143727,36 Z M51.7388837,35.5584928 L51.741254,35.6491765 C51.7896405,37.0766735 51.8143727,38.5284266 51.8143727,40 C51.8143727,41.2987296 51.7951092,42.5820214 51.757323,43.8468263 C53.7782041,42.4801289 55.6883443,41.0946529 57.4641128,39.7116849 C55.6896347,38.32862 53.7746681,36.9362578 51.7388837,35.5584928 Z M39.8143727,38 C38.7098032,38 37.8143727,38.8954305 37.8143727,40 C37.8143727,41.1045695 38.7098032,42 39.8143727,42 C40.9189422,42 41.8143727,41.1045695 41.8143727,40 C41.8143727,38.8954305 40.9189422,38 39.8143727,38 Z M50.809828,23.2715385 L50.6597132,23.327816 C51.1103865,26.3685372 51.4381004,29.6380293 51.6268466,33.0704047 C54.3133739,34.8321875 56.814099,36.627311 59.0888925,38.4171751 C64.0355157,34.3782116 67.7662104,30.4205115 69.6776047,27.1019768 C69.1426069,26.5614528 68.8143727,25.819058 68.8143727,25 C68.8143727,23.6649009 69.6865032,22.5334989 70.8921383,22.14442 C70.8429693,21.9897283 70.7775259,21.8441673 70.698394,21.7071068 C68.9571859,18.6912459 61.0249179,19.4546825 50.809828,23.2715385 Z M8.3456982,21.7064525 C6.58190819,24.7614264 11.3528744,31.3790073 19.9740524,38.4184036 C22.4393502,36.4760879 25.1436617,34.547073 28.0241864,32.6790873 C28.2112539,29.4672675 28.5204103,26.4018315 28.938307,23.5367818 C18.3847982,19.4908786 10.1266807,18.6217003 8.3456982,21.7064525 Z M48.7262508,24.0801879 L48.4863516,24.1767719 C46.3062341,25.0601871 44.040831,26.0720666 41.7247867,27.2059758 C42.8027837,27.7802842 43.8877766,28.3789778 44.9767393,29.0007323 L46.0669751,29.6301802 L47.1339184,30.2598664 C47.9462655,30.7445472 48.7455191,31.233531 49.5307696,31.7259502 C49.3453041,29.0507579 49.0726084,26.4896139 48.7262508,24.0801879 Z M30.8708627,24.3036433 L30.8282375,24.6072747 C30.5328598,26.7471802 30.2952932,29.0025115 30.1245801,31.3477025 C31.2356058,30.6585424 32.3688579,29.9802683 33.5214794,29.3148019 C34.7938765,28.5801831 36.06149,27.8767938 37.3199603,27.2059123 C35.1140239,26.1256369 32.9545276,25.1565373 30.8708627,24.3036433 Z M39.8143727,4 C36.305803,4 32.9773461,11.3605892 31.1845811,22.2491249 C33.8667699,23.3338653 36.6638918,24.6093718 39.5225593,26.0598594 C42.5761687,24.5106412 45.559205,23.1610879 48.4079118,22.0299542 C46.6066039,11.2618796 43.299337,4 39.8143727,4 Z M71.8143727,24 C71.2620879,24 70.8143727,24.4477153 70.8143727,25 C70.8143727,25.5522847 71.2620879,26 71.8143727,26 C72.3666574,26 72.8143727,25.5522847 72.8143727,25 C72.8143727,24.4477153 72.3666574,24 71.8143727,24 Z" id="形状结合" fill="#5C5E6B" fill-rule="nonzero"></path>
                            <rect id="矩形" fill="#6A4E63" opacity="0" x="0" y="0" width="80" height="80" rx="1"></rect>
                        </g>
                    </g>
                </g>
            </g>
        </g>
    </g>
</svg>