<?xml version="1.0" encoding="UTF-8"?>
<svg width="46px" height="46px" viewBox="0 0 46 46" version="1.1" xmlns="http://www.w3.org/2000/svg" xmlns:xlink="http://www.w3.org/1999/xlink">
    <!-- Generator: Sketch 59 (86127) - https://sketch.com -->
    <title>加载</title>
    <desc>Created with Sketch.</desc>
    <g id="1.0.1-聊天" stroke="none" stroke-width="1" fill="none" fill-rule="evenodd">
        <g id="加载" transform="translate(-6.000000, -8.000000)" fill-rule="nonzero">
            <g transform="translate(6.000000, 8.000000)" id="路径">
                <path d="M23.0000308,0.414758564 C20.5499475,0.414758564 18.5635375,2.40105983 18.5635375,4.85130368 C18.5635375,7.30123174 20.5498905,9.28747606 23.0000308,9.28747606 C25.4502229,9.28747606 27.4365242,7.30128351 27.4365242,4.85130368 C27.4365242,2.40100806 25.4501712,0.414758564 23.0000308,0.414758564 Z" fill="#404040"></path>
                <path d="M18.5636876,41.1489806 L18.5636876,41.14898 C18.5636876,43.5990996 20.5499009,45.5853129 23.0000205,45.5853129 C25.4501401,45.5853129 27.4363534,43.5990996 27.4363534,41.14898 C27.4363534,41.14898 27.4363534,41.1489799 27.4363534,41.1489799 L27.4363534,41.1489799 C27.4363534,38.6988603 25.4501401,36.712647 23.0000205,36.712647 C20.5499009,36.712647 18.5636876,38.6988603 18.5636876,41.1489799 L18.5636876,41.1489806 Z" fill="#A6A6A6"></path>
                <path d="M36.7123786,23.0000308 L36.7123786,23.0000315 C36.7123786,25.4502391 38.6986643,27.4365249 41.1488719,27.4365249 C43.5990795,27.4365249 45.5853652,25.4502391 45.5853652,23.0000315 L45.5853652,23.0000315 C45.5853652,20.5498239 43.5990795,18.5635382 41.1488719,18.5635382 C38.6986643,18.5635382 36.7123786,20.5498239 36.7123786,23.0000315 L36.7123786,23.0000308 Z" fill="#D9D9D9"></path>
                <path d="M0.414758564,23.0000308 L0.414758564,23.0000315 C0.414758564,25.4501511 2.40097182,27.4363644 4.85109143,27.4363644 C7.30121104,27.4363644 9.2874243,25.4501511 9.2874243,23.0000315 L9.2874243,23.0000315 C9.2874243,20.5499119 7.30121104,18.5636986 4.85109143,18.5636986 C2.40097182,18.5636986 0.414758564,20.5499119 0.414758564,23.0000315 L0.414758564,23.0000308 Z" fill="#737373"></path>
                <path d="M38.9702556,13.3039357 C40.7027062,11.5714334 40.7027062,8.76234468 38.9702556,7.02985787 C37.2376963,5.29740729 34.4286128,5.29724681 32.6961777,7.02985787 C30.9637271,8.76225668 30.9637789,11.5712885 32.6963366,13.3037804 C34.4288959,15.0362828 37.2378242,15.0363915 38.9702592,13.3039394 L38.9702556,13.3039357 Z" fill="#262626"></path>
                <path d="M5.73024298,35.8333719 L5.73024298,35.8333726 C5.73024298,38.2835492 7.71650283,40.269809 10.1666846,40.269809 C12.6168611,40.269809 14.603121,38.2835492 14.603121,35.8333674 L14.603121,35.8333674 C14.603121,33.3831908 12.6168611,31.396931 10.1666846,31.396931 C7.71650801,31.396931 5.73024298,33.3831908 5.73024298,35.8333674 C5.73024298,35.8333674 5.73024298,35.8333675 5.73024298,35.8333675 L5.73024298,35.8333719 Z" fill="#8C8C8C"></path>
                <path d="M31.3969252,35.8332684 L31.3969252,35.8332678 C31.3969252,38.2833874 33.3831385,40.2696007 35.8332581,40.2696007 C38.2833777,40.2696007 40.2695909,38.2833874 40.2695909,35.8332678 C40.2695909,35.8332678 40.2695909,35.8332677 40.2695909,35.8332677 L40.2695909,35.8332677 C40.2695909,33.3831481 38.2833777,31.3969348 35.8332581,31.3969348 C33.3831385,31.3969348 31.3969252,33.3831481 31.3969252,35.8332677 L31.3969252,35.8332684 Z" fill="#BFBFBF"></path>
                <path d="M5.73039828,10.166845 L5.73039828,10.1668457 C5.73039828,12.6169653 7.71661154,14.6031786 10.1667312,14.6031786 C12.6168508,14.6031786 14.603064,12.6169653 14.603064,10.1668457 L14.603064,10.1668457 C14.603064,7.7167261 12.6168508,5.73051284 10.1667312,5.73051284 C7.71661154,5.73051284 5.73039828,7.7167261 5.73039828,10.1668457 L5.73039828,10.166845 Z" fill="#595959"></path>
            </g>
        </g>
    </g>
</svg>