<?xml version="1.0" encoding="UTF-8"?>
<svg width="100px" height="60px" viewBox="0 0 100 60" version="1.1" xmlns="http://www.w3.org/2000/svg" xmlns:xlink="http://www.w3.org/1999/xlink">
    <!-- Generator: Sketch 59.1 (86144) - https://sketch.com -->
    <title>傲创科技logo</title>
    <desc>Created with Sketch.</desc>
    <g id="页面-1" stroke="none" stroke-width="1" fill="none" fill-rule="evenodd">
        <g id="傲创首页备份-2" transform="translate(-911.000000, -3622.000000)" fill="#22263B" fill-rule="nonzero">
            <g id="傲创科技logo" transform="translate(911.000000, 3622.000000)">
                <path d="M75.2014125,18 L75.2014125,21.8394428 C84.7904445,24.4024482 90.7811383,28.0937331 90.7811383,32.1294535 C90.7811383,36.2056957 84.4141878,39.8881165 74.4158081,42.459986 C69.4497092,43.7389561 63.5864769,44.7507354 57.1521188,45.3978183 C54.3749273,45.681471 51.4886581,45.8954769 48.5300789,46.0398359 L40.5,55.927161 C41.8677607,55.9689491 42.4964894,55.9968079 43.8875364,55.9968079 C48.4589946,56.0246666 52.9066681,55.8701772 57.1508932,55.5333395 C63.3818031,55.0407461 69.2033652,54.1834562 74.4145825,53.0007255 C89.5285833,49.5994249 99.5,43.5832003 99.5,36.4285658 C99.5012256,29.4018282 89.8717491,21.733073 75.2014125,18 Z" id="路径"></path>
                <path d="M42.5,14 C25.0418261,14.2344897 9.72481898,17.7388801 0.5,23 C9.74459881,19.7611919 23.8018779,17.6883547 39.5651675,17.6663308 L42.5,14 Z" id="路径"></path>
                <path d="M58.7994252,42.2666885 C63.4061124,41.7841637 67.9805769,41.0411701 72.5,40.0414138 L72.5,0 L58.7994252,0 L7.5,60 L25.3854685,60 L58.7994252,20.9229949 L58.7994252,42.2666885 Z" id="路径"></path>
                <path d="M58.5,60 L72.5,60 L72.5,54 C67.8697443,54.978683 63.196785,55.6900363 58.5,56.1311864 L58.5,60 Z" id="路径"></path>
            </g>
        </g>
    </g>
</svg>