<?xml version="1.0" encoding="UTF-8"?>
<svg width="80px" height="80px" viewBox="0 0 80 80" version="1.1" xmlns="http://www.w3.org/2000/svg" xmlns:xlink="http://www.w3.org/1999/xlink">
    <!-- Generator: Sketch 59.1 (86144) - https://sketch.com -->
    <title>编组 5</title>
    <desc>Created with Sketch.</desc>
    <g id="页面-1" stroke="none" stroke-width="1" fill="none" fill-rule="evenodd">
        <g id="画板" transform="translate(-1116.000000, -341.000000)">
            <g id="编组-10" transform="translate(1116.000000, 341.000000)">
                <rect id="矩形备份-51" fill="#D8D8D8" opacity="0.01" x="0" y="0" width="80" height="80"></rect>
                <path d="M39,8 C42.3333333,8 46.3333333,12.3333333 51,21 C56.2715284,26.6075162 61.3658382,30.3361223 66.2829295,32.1858183 C73.6585664,34.9603623 75,37 75,41 C75,45 67.6878185,48.075152 64,49 C60.3121815,49.924848 57,52 57,57 C57,62 58,70 52,72 C46.805,73.7316667 42.3596674,67.9666597 35.4185671,61.8449361 L59,45 L59,36 L44,26 L17,45 L17.0005193,51.0084116 C15.5344717,50.4742228 13.9164765,49.8544405 12,49 C3.70240847,45.300608 6,35 14,33 C22,31 27.1560908,25.699392 29,22 C30.8439092,18.300608 34,8 39,8 Z" id="形状结合" fill="#F3F6FC"></path>
                <path d="M14,59 C14.2761424,59 14.5,59.2238576 14.5,59.5 L14.5,60.499 L15.5,60.5 C15.7761424,60.5 16,60.7238576 16,61 C16,61.2761424 15.7761424,61.5 15.5,61.5 L14.5,61.5 L14.5,62.5 C14.5,62.7761424 14.2761424,63 14,63 C13.7238576,63 13.5,62.7761424 13.5,62.5 L13.5,61.5 L12.5,61.5 C12.2238576,61.5 12,61.2761424 12,61 C12,60.7238576 12.2238576,60.5 12.5,60.5 L13.5,60.5 L13.5,59.5 C13.5,59.2238576 13.7238576,59 14,59 Z" id="形状结合备份-15" fill="#737EB1" transform="translate(14.000000, 61.000000) rotate(-15.000000) translate(-14.000000, -61.000000) "></path>
                <path d="M68,28 C68.2761424,28 68.5,28.2238576 68.5,28.5 L68.5,29.499 L69.5,29.5 C69.7761424,29.5 70,29.7238576 70,30 C70,30.2761424 69.7761424,30.5 69.5,30.5 L68.5,30.5 L68.5,31.5 C68.5,31.7761424 68.2761424,32 68,32 C67.7238576,32 67.5,31.7761424 67.5,31.5 L67.5,30.5 L66.5,30.5 C66.2238576,30.5 66,30.2761424 66,30 C66,29.7238576 66.2238576,29.5 66.5,29.5 L67.5,29.5 L67.5,28.5 C67.5,28.2238576 67.7238576,28 68,28 Z" id="形状结合备份-16" fill="#737EB1" transform="translate(68.000000, 30.000000) rotate(-15.000000) translate(-68.000000, -30.000000) "></path>
                <path d="M12,38 C12.2761424,38 12.5,38.2238576 12.5,38.5 L12.5,39.499 L13.5,39.5 C13.7761424,39.5 14,39.7238576 14,40 C14,40.2761424 13.7761424,40.5 13.5,40.5 L12.5,40.5 L12.5,41.5 C12.5,41.7761424 12.2761424,42 12,42 C11.7238576,42 11.5,41.7761424 11.5,41.5 L11.5,40.5 L10.5,40.5 C10.2238576,40.5 10,40.2761424 10,40 C10,39.7238576 10.2238576,39.5 10.5,39.5 L11.5,39.5 L11.5,38.5 C11.5,38.2238576 11.7238576,38 12,38 Z" id="形状结合备份-17" fill="#E9EFFD" transform="translate(12.000000, 40.000000) rotate(-15.000000) translate(-12.000000, -40.000000) "></path>
                <path d="M66,50 C66.2761424,50 66.5,50.2238576 66.5,50.5 L66.5,51.499 L67.5,51.5 C67.7761424,51.5 68,51.7238576 68,52 C68,52.2761424 67.7761424,52.5 67.5,52.5 L66.5,52.5 L66.5,53.5 C66.5,53.7761424 66.2761424,54 66,54 C65.7238576,54 65.5,53.7761424 65.5,53.5 L65.5,52.5 L64.5,52.5 C64.2238576,52.5 64,52.2761424 64,52 C64,51.7238576 64.2238576,51.5 64.5,51.5 L65.5,51.5 L65.5,50.5 C65.5,50.2238576 65.7238576,50 66,50 Z" id="形状结合备份-18" fill="#F3F6FC" transform="translate(66.000000, 52.000000) rotate(-15.000000) translate(-66.000000, -52.000000) "></path>
                <path d="M12,28 C12.2761424,28 12.5,28.2238576 12.5,28.5 L12.5,29.499 L13.5,29.5 C13.7761424,29.5 14,29.7238576 14,30 C14,30.2761424 13.7761424,30.5 13.5,30.5 L12.5,30.5 L12.5,31.5 C12.5,31.7761424 12.2761424,32 12,32 C11.7238576,32 11.5,31.7761424 11.5,31.5 L11.5,30.5 L10.5,30.5 C10.2238576,30.5 10,30.2761424 10,30 C10,29.7238576 10.2238576,29.5 10.5,29.5 L11.5,29.5 L11.5,28.5 C11.5,28.2238576 11.7238576,28 12,28 Z" id="形状结合备份-19" fill="#F3F6FC" transform="translate(12.000000, 30.000000) rotate(-15.000000) translate(-12.000000, -30.000000) "></path>
                <path d="M38.9384353,65.2138199 C39.2530032,65.6442812 39.1904775,66.2349003 38.8122131,66.5912519 L38.7111046,66.675231 L35.0929903,69.3192376 C32.7526131,71.0295132 29.6327413,71.192903 27.1340951,69.7604207 L26.8778879,69.6065381 L24.0317708,67.8175502 C23.5427703,67.5101784 23.3955311,66.8645911 23.7029028,66.3755906 C23.9883195,65.9215187 24.5653607,65.7621287 25.0378602,65.9877745 L25.1448624,66.0467226 L27.9909795,67.8357105 C29.7318456,68.9299692 31.9443711,68.8987978 33.6485995,67.7764678 L33.8589098,67.6304959 L37.4770242,64.9864892 C37.9433573,64.6457073 38.5976533,64.7474867 38.9384353,65.2138199 Z M58.0345945,66.9266631 C58.6121748,66.9267054 59.0803618,67.394961 59.0803195,67.9725412 L59.0803195,67.9725412 L59.0802784,68.5341759 L59.0732336,68.656138 C59.0127846,69.1762511 58.5707248,69.5799401 58.0344003,69.5799009 C57.4568201,69.5798586 56.988633,69.111603 56.9886753,68.5340228 L56.9886753,68.5340228 L56.9887164,67.9723881 L56.9957612,67.8504261 C57.0562102,67.3303129 57.49827,66.9266239 58.0345945,66.9266631 Z M53.2102996,51.5130765 C53.6205584,51.194081 54.2137695,51.2230806 54.5907641,51.6000753 L54.5907641,51.6000753 L63.4646842,60.4739954 L63.5442915,60.5624523 C64.0820667,61.228664 63.6163561,62.2593462 62.7251253,62.2592903 L62.7251253,62.2592903 L59.0805459,62.2590616 L59.0803669,65.0723197 L59.0733279,65.1942821 C59.0129038,65.7143981 58.5708631,66.1181082 58.0345386,66.1180945 C57.4569584,66.1180797 56.9887491,65.6498465 56.9887639,65.0722662 L56.9887639,65.0722662 L56.9889696,61.2131677 L56.9960089,61.0912023 C57.0564361,60.5710734 57.4984981,60.1673593 58.0348367,60.167393 L58.0348367,60.167393 L60.2002443,60.1675288 L53.8512708,53.8185553 L47.5022973,60.1675288 L49.6682934,60.167393 L49.790265,60.1744222 C50.3104218,60.2348087 50.7141821,60.676873 50.7141605,61.2132365 L50.7141605,61.2132365 L50.7138662,68.5341414 L50.7068255,68.6561037 C50.6463937,69.1762188 50.2043472,69.5799009 49.6680227,69.5799009 C49.0904425,69.5799009 48.62224,69.1116376 48.6222632,68.5340573 L48.6222632,68.5340573 L48.6225154,62.2590616 L44.9774163,62.2592903 L44.8585766,62.25304 C44.0072236,62.1622751 43.607662,61.1041907 44.2378573,60.4739954 L44.2378573,60.4739954 L53.1117774,51.6000753 Z M41.6581376,63.2263451 C41.9727056,63.6568064 41.9101798,64.2474255 41.5319155,64.6037771 L41.430807,64.6877562 L41.0024939,65.0007542 C40.5361607,65.3415361 39.8818647,65.2397567 39.5410828,64.7734236 C39.2265149,64.3429622 39.2890406,63.7523431 39.6673049,63.3959916 L39.7684134,63.3120125 L40.1967265,62.9990144 C40.6630597,62.6582325 41.3173557,62.7600119 41.6581376,63.2263451 Z M44.5095584,23.2327682 L60.1965811,33.6907834 L60.2071193,33.6976817 C60.2363651,33.7175723 60.2646427,33.7389297 60.2918156,33.761683 L60.276,33.75 L60.3067981,33.7749509 L60.3067981,33.7749509 C60.3329872,33.7972441 60.3580287,33.8212764 60.3818667,33.8465603 L60.3919214,33.8581807 L60.3919214,33.8581807 C60.5410484,34.0202319 60.6408118,34.2326827 60.6592037,34.4782733 L60.6610883,34.5109072 L60.6610883,34.5109072 C60.6618901,34.5270038 60.6622763,34.5439022 60.6622763,34.5609429 L60.6622763,43.9731565 C60.6622763,44.3134993 60.4966612,44.6325547 60.2183267,44.8284197 L31.9816858,64.6986485 C31.9310096,64.7337489 31.8852224,64.7604562 31.8377009,64.7836488 C31.701555,64.8516811 31.5590459,64.8856221 31.4182996,64.8904184 L31.3973318,64.8907409 L31.3973318,64.8907409 L31.3810188,64.8910101 C31.3727162,64.8909909 31.3644223,64.8908711 31.3561388,64.8906516 C31.3315026,64.8902459 31.3064718,64.8888348 31.2814166,64.886485 L31.2718342,64.8849599 L31.2718342,64.8849599 C31.1313935,64.8709678 30.9908199,64.8270497 30.8574951,64.7495541 C30.8378715,64.7381215 30.8193682,64.7266962 30.801224,64.7147126 C30.8010441,64.7144214 30.8003857,64.7139835 30.7997276,64.7135448 L15.1127048,54.2555296 C14.8217642,54.0615692 14.6470096,53.7350372 14.6470096,53.3853701 L14.6479806,43.9275381 L14.6479806,43.9275381 L14.649,43.897 L14.6571932,43.8237956 L14.6571932,43.8237956 C14.6586962,43.8156989 14.6600345,43.8070267 14.6614812,43.7983695 C14.6656875,43.7699226 14.6713044,43.7426251 14.6779339,43.7158361 C14.680824,43.7073214 14.6832943,43.6979868 14.6858953,43.688682 C14.7495505,43.4560514 14.890468,43.2639911 15.0728118,43.1306604 C15.0788786,43.1264866 15.0848877,43.1221659 15.0909593,43.1178933 L43.3276002,23.2476645 C43.6807301,22.9991657 44.150278,22.993248 44.5095584,23.2327682 Z M16.7380096,51.156126 L16.7386127,52.8256742 L30.3340324,61.8892873 L30.3340096,60.220126 L16.7380096,51.156126 Z M40.7920096,54.315126 L32.4250096,60.203126 L32.4256354,61.8286623 L40.7920096,55.940126 L40.7920096,54.315126 Z M16.7386127,45.9272545 L16.7380096,48.642126 L30.3340096,57.706126 L30.3340096,54.991126 L16.7386127,45.9272545 Z M40.7920096,49.086126 L32.4250096,54.974126 L32.4250096,57.645126 L40.7920096,51.757126 L40.7920096,49.086126 Z M47.0660096,49.900126 L42.8830096,52.843126 L42.8830096,54.469126 L47.0660096,51.525126 L47.0660096,49.900126 Z M26.1380096,37.901126 L17.5431763,43.9498363 L31.3638589,53.1636247 L39.9590096,47.114126 L37.1656854,45.2521972 C36.2978479,47.2163859 34.3695478,48.5838294 32.1389881,48.6744676 L31.902588,48.6792633 C30.840924,48.6792633 29.8464402,48.3916308 28.9928127,47.8900419 L28.968857,47.9158262 L27.8697557,48.9054614 C27.44053,49.291938 26.7792725,49.257283 26.3927959,48.8280572 C26.0360483,48.4318488 26.0381347,47.837933 26.3781643,47.4449314 L26.4702001,47.3510975 L27.4034124,46.5112607 C26.6193346,45.5282404 26.1506796,44.2825278 26.1506796,42.927355 C26.1506796,42.3497748 26.6189009,41.8815535 27.1964812,41.8815535 C27.7740614,41.8815535 28.2422827,42.3497748 28.2422827,42.927355 C28.2422827,44.9488858 29.8810572,46.5876603 31.902588,46.5876603 C33.5132047,46.5876603 34.9027953,45.5402618 35.3835452,44.0637877 L26.1380096,37.901126 Z M47.0660096,44.671126 L42.8830096,47.615126 L42.8830096,50.285126 L47.0660096,47.342126 L47.0660096,44.671126 Z M58.5700096,41.805126 L49.1580096,48.428126 L49.1580096,50.053126 L58.5706733,43.4303023 L58.5700096,41.805126 Z M58.5700096,36.576126 L49.1580096,43.199126 L49.1580096,45.870126 L58.5700096,39.246126 L58.5700096,36.576126 Z M32.2430096,33.604126 L27.9720096,36.610126 L41.7930096,45.824126 L46.0640096,42.818126 L32.2430096,33.604126 Z M43.945427,25.3704747 L34.0770096,32.314126 L36.8894734,34.1894599 C37.6650207,32.0210561 39.6962476,30.4789772 42.0697011,30.3825325 L42.3061012,30.3777368 C43.516977,30.3777368 44.640462,30.7519017 45.5672449,31.3909204 L46.4605059,30.6683204 C46.90937,30.3048374 47.5679075,30.3740525 47.9313905,30.8229166 C48.2689105,31.239719 48.2333387,31.8373112 47.8671492,32.2115798 L47.7767943,32.2938013 L47.0531159,32.8805573 C47.6870794,33.8050201 48.0580095,34.924015 48.0580095,36.1296451 C48.0580095,36.7072254 47.5897882,37.1754466 47.012208,37.1754466 C46.4346278,37.1754466 45.9664065,36.7072254 45.9664065,36.1296451 C45.9664065,34.1081143 44.327632,32.4693398 42.3061012,32.4693398 C40.5578941,32.4693398 39.0700894,33.7033346 38.7222632,35.3806137 L38.7170096,35.407126 L47.8980096,41.528126 L57.7650096,34.584126 L43.945427,25.3704747 Z M16.738495,31.9077051 C17.2748195,31.9076659 17.7168793,32.3113549 17.7773283,32.831468 L17.7843731,32.9534301 L17.7844142,33.5150648 C17.7844565,34.092645 17.3162694,34.5609006 16.7386892,34.5609429 C16.2023647,34.5609821 15.7603049,34.1572931 15.6998559,33.6371799 L15.6928111,33.5152179 L15.69277,32.9535832 C15.6927277,32.376003 16.1609148,31.9077474 16.738495,31.9077051 Z M60.1965811,33.6907834 L60.276,33.75 L60.2535413,33.7314605 L60.2535413,33.7314605 L60.1965811,33.6907834 Z M21.5627899,12.3109124 L21.6613121,12.3979112 L30.5352322,21.2718313 C31.1654275,21.9020267 30.7658659,22.9601111 29.9145129,23.050876 L29.7956732,23.0571262 L26.1505741,23.0568975 L26.1508263,29.3318932 C26.1508495,29.9094735 25.682647,30.3777136 25.1050668,30.3777368 C24.5687423,30.3777584 24.1266958,29.9740547 24.066264,29.4539396 L24.0592233,29.3319773 L24.058929,22.0110724 C24.0589074,21.4747089 24.4626677,21.0326446 24.9828245,20.9722581 L25.1047961,20.9652289 L27.2707922,20.9653648 L20.9218187,14.6163912 L14.5728452,20.9653647 L16.7382528,20.9652289 C17.2745914,20.9651952 17.7166534,21.3689094 17.7770806,21.8890382 L17.7841199,22.0110037 L17.7843256,30.0533082 C17.7843404,30.6308885 17.3161311,31.0991365 16.7385509,31.0991365 C16.2022264,31.0991365 15.7601857,30.6954401 15.6997616,30.1753241 L15.6927226,30.0533617 L15.6925436,23.0568975 L12.0479642,23.0571262 C11.1567334,23.0571821 10.6910228,22.0264999 11.228798,21.3602882 L11.3084053,21.2718313 L20.1823254,12.3979112 C20.55932,12.0209165 21.1525311,11.9919169 21.5627899,12.3109124 Z M58.3386879,10.3063082 C58.7470988,9.89789728 59.4092637,9.89789728 59.8176746,10.3063082 L59.8176746,10.3063082 L68.6915947,19.1802283 C69.3504353,19.8390689 68.8837771,20.9655816 67.9520358,20.9655232 L67.9520358,20.9655232 L64.3069273,20.9652945 L64.3071889,29.3319026 C64.3072069,29.9094828 63.8390003,30.3777368 63.26142,30.3777368 C62.6838398,30.3777368 62.2156039,29.9095482 62.2155858,29.331968 L62.2155858,29.331968 L62.2152916,19.9194601 C62.2152735,19.3418415 62.6835401,18.8735896 63.2611587,18.8736259 L63.2611587,18.8736259 L65.4271548,18.8737617 L59.0781813,12.5247882 L52.7292078,18.8737617 L54.8946153,18.8736259 C55.4722071,18.8735896 55.9404625,19.3417995 55.9404825,19.9193912 L55.9404825,19.9193912 L55.9406882,25.8700928 C55.9407082,26.447673 55.4725031,26.9159105 54.8949228,26.9159304 C54.3173426,26.9159504 53.8491051,26.4477453 53.8490852,25.8701651 L53.8490852,25.8701651 L53.8489156,20.9652945 L50.2043268,20.9655232 C49.2725855,20.9655816 48.8059272,19.8390689 49.4647678,19.1802283 L49.4647678,19.1802283 Z M32.0028834,28.2654152 C32.3174513,28.6958765 32.2549256,29.2864956 31.8766612,29.6428472 L31.7755528,29.7268263 L31.172394,30.1675962 C30.7060608,30.5083781 30.0517648,30.4065987 29.7109829,29.9402655 C29.3964149,29.5098042 29.4589407,28.9191851 29.837205,28.5628335 L29.9383135,28.4788544 L30.5414723,28.0380846 C31.0078054,27.6973026 31.6621015,27.799082 32.0028834,28.2654152 Z M47.6802019,20.8885609 L47.9364091,21.0424435 L50.7825262,22.8314314 C51.2715268,23.1388032 51.418766,23.7843905 51.1113942,24.273391 C50.8259776,24.7274629 50.2489363,24.8868529 49.7764368,24.6612071 L49.6694346,24.602259 L46.8233175,22.8132711 C45.0824515,21.7190124 42.8699259,21.7501838 41.1656975,22.8725138 L40.9553872,23.0184857 L34.6175705,27.6499672 C34.1512373,27.9907491 33.4969413,27.8889697 33.1561594,27.4226365 C32.8415915,26.9921752 32.9041172,26.4015561 33.2823815,26.0452045 L33.38349,25.9612254 L39.7213067,21.329744 C42.0616839,19.6194684 45.1815557,19.4560786 47.6802019,20.8885609 Z" id="形状结合" fill="#737EB1" fill-rule="nonzero"></path>
            </g>
        </g>
    </g>
</svg>