<?xml version="1.0" encoding="UTF-8"?>
<svg width="80px" height="80px" viewBox="0 0 80 80" version="1.1" xmlns="http://www.w3.org/2000/svg" xmlns:xlink="http://www.w3.org/1999/xlink">
    <!-- Generator: Sketch 59.1 (86144) - https://sketch.com -->
    <title>编组 5</title>
    <desc>Created with Sketch.</desc>
    <g id="页面-1" stroke="none" stroke-width="1" fill="none" fill-rule="evenodd">
        <g id="画板" transform="translate(-1022.000000, -341.000000)">
            <g id="编组-9" transform="translate(1022.000000, 341.000000)">
                <rect id="矩形备份-48" fill="#D8D8D8" opacity="0.01" x="0" y="0" width="80" height="80"></rect>
                <path d="M56.9992476,63.9994932 C57.0101162,65.3836311 57.0248763,67.0269836 57,69 C56.8461143,81.2051583 41.9529283,72.0383311 33.4250354,64.0002027 Z M13.1705337,39.0428808 L16.4821142,56.1586161 C14.2844093,56.2814641 11.8047159,56.1949786 8.82074354,55.2173934 C-1,52 5.73318776,42.1088326 11,40 C11.7671568,39.6928303 12.4883776,39.3713109 13.1705337,39.0428808 Z M68.5781893,35.183335 C70.033946,35.4526282 71.1745495,35.7248498 72,36 C75,37 80,45 67.6501916,51.3415459 C66.7665208,51.7953051 65.9556993,52.2017461 65.2117605,52.5705257 Z M41,11 C47.2156446,3.78103813 53,13 53,20 C53,23.3462121 54.2767552,26.7012635 56.8302657,30.0651541 C53.5876922,31.264432 51.3106868,29.2427471 50,24 L50,24 L45,23 C44.3333333,22.3333333 44,21.3333333 44,20 C44,18.6666667 43.3333333,18 42,18 L42,18 L34.7571222,19.1137624 C36.9392585,16.1084882 39.103666,13.2024365 41,11 Z" id="形状结合" fill="#F3F6FC"></path>
                <path d="M50.6729784,23.1974776 C51.1574006,23.2828943 51.4808585,23.7448401 51.3954418,24.2292623 C50.9683583,26.6513735 52.5856477,28.9611023 55.007759,29.3881858 C57.4298702,29.8152694 59.739599,28.1979799 60.1666825,25.7758687 C60.2520992,25.2914464 60.714045,24.9679885 61.1984672,25.0534053 L69.0925839,26.445351 C70.0614284,26.6161844 70.7083878,27.5400836 70.5375545,28.5089273 L64.184,64.54 L62.375,64.54 L68.7833056,28.1996067 L61.7040917,26.9513503 C60.7538307,29.8517672 57.7915911,31.6878404 54.6984377,31.142434 C51.6052843,30.5970276 49.4496636,27.8585376 49.5487114,24.8080288 L44.109,23.848 L43.765,21.98 L50.6729784,23.1974776 Z M60.0163046,57.403175 L58.758,64.54 L56.949,64.54 L57.9527352,58.8481019 L51.8128667,57.7654774 L50.618,64.54 L48.809,64.54 L49.2370439,62.1220764 C50.2254991,61.5494994 50.7515365,60.9769225 50.8151562,60.4043456 L50.8217208,60.2861824 L50.176,56.784 L50.3679398,55.701908 L60.0163046,57.403175 Z M46.095,64.54 L44.286,64.54 L44.4674151,63.519555 C45.1685068,63.3952791 45.7933541,63.2710032 46.3419568,63.1467273 L46.095,64.54 Z M42.478,64.54 L40.67,64.54 L40.7517571,64.0849489 C41.4078456,63.9974961 42.0261782,63.9100432 42.6067552,63.8225903 L42.478,64.54 Z M38.86,64.54 L37.052,64.54 C37.6945894,64.4623297 38.3098314,64.3910125 38.8999648,64.3196953 L38.86,64.54 Z M49.3200949,31.0835903 L49.3849534,31.165491 L51.7555956,34.5475416 L62.5066602,35.5651835 C62.9077842,35.6013821 63.2730647,35.8110479 63.5045484,36.1362348 L64.8087501,37.9527537 C65.0263032,38.2550156 65.112846,38.6324382 65.0479587,39.0004326 C64.941904,39.5979181 64.4589888,40.0566234 63.8568429,40.1318344 L63.754229,40.1386679 L54.9177404,40.2158156 L57.0572014,43.3507852 L61.5206122,44.0997654 C61.8789678,44.1612218 62.1989924,44.3606075 62.4147555,44.6588808 L63.0964902,45.6114558 C63.3716472,45.9941609 63.4327457,46.4907256 63.2585692,46.9287177 C63.0843927,47.3667099 62.6989698,47.6857062 62.2388257,47.774413 L57.7604614,48.65208 L55.111054,52.6848328 C54.8602015,53.0629006 54.4400812,53.2941297 53.9864637,53.3037939 C53.5328463,53.313458 53.1032591,53.1003314 52.8347619,52.7308454 L52.1485048,51.7797291 C51.9156838,51.457476 51.8329389,51.0505581 51.9212474,50.6637151 L52.94261,46.1717814 L50.6767675,43.0382316 L48.53,47.848 L47.96,44.755 L49.6797282,40.9014088 C49.959294,40.2746962 50.8127568,40.1862771 51.2148615,40.7423684 L54.6221649,45.4545031 C54.7722311,45.6620374 54.8256979,45.9241276 54.7689146,46.1738595 L53.6981415,50.8830983 L53.941672,51.2206218 L56.4773064,47.3610316 C56.6088067,47.1608698 56.8153768,47.0221009 57.0503994,46.9760413 L61.2882173,46.1455202 L61.0616686,45.8289625 L56.388092,45.0447212 C56.1489495,45.0045923 55.9365067,44.8686927 55.799819,44.668403 L52.5059137,39.8418166 C52.104442,39.2535369 52.5216157,38.455357 53.2338051,38.4491392 L62.9116021,38.3646464 L62.162959,37.3219144 L51.1783626,36.282176 C50.9186196,36.2575902 50.6827182,36.120351 50.5329637,35.9067053 L47.9342676,32.1993041 L47.8029939,32.0233683 C46.9255379,30.8839652 45.8885134,30.3737285 45.3188555,30.4175914 L44.9982855,28.6725292 C46.3686282,28.4862357 48.1159165,29.3995104 49.3200949,31.0835903 Z M46.097,34.64 L48.1166276,37.5087248 C48.2710113,37.7280317 48.3183511,38.0052313 48.2455007,38.263345 L47.349,41.438 L46.097,34.64 Z" id="形状结合" fill="#737EB1" fill-rule="nonzero"></path>
                <rect id="矩形备份-37" fill="#737EB1" x="15" y="63" width="54" height="2" rx="1"></rect>
                <rect id="矩形备份-50" fill="#737EB1" x="9" y="63" width="4" height="2" rx="1"></rect>
                <path d="M45.2065242,19.0182913 L52.3352595,59.4473582 C52.6233394,61.0811405 51.5324321,62.6391176 49.8986499,62.9271974 L43.8126936,63.999544 L32.2806936,63.999544 L49.5509067,60.9550478 C50.0955007,60.8590212 50.4591365,60.3396955 50.3631099,59.7951014 L43.2343746,19.3660344 C43.1383479,18.8214404 42.6190222,18.4578046 42.0744282,18.5538312 L12.492184,23.769979 C11.94759,23.8660057 11.5839542,24.3853313 11.6799808,24.9299254 L18.5686936,63.999544 L16.5346936,63.999544 L9.70783121,25.2776686 C9.41975133,23.6438864 10.5106586,22.0859093 12.1444408,21.7978294 L41.726685,16.5816816 C43.3604672,16.2936017 44.9184443,17.384509 45.2065242,19.0182913 Z M43.1128431,59.040053 C43.2088697,59.5846471 42.8452339,60.1039727 42.3006399,60.1999994 L26.523443,62.9819449 C25.9788489,63.0779715 25.4595232,62.7143357 25.3634966,62.1697416 C25.26747,61.6251476 25.6311057,61.1058219 26.1756998,61.0097953 L41.9528967,58.2278498 C42.4974907,58.1318231 43.0168164,58.4954589 43.1128431,59.040053 Z M45.5494527,55.5602138 C45.6454793,56.1048079 45.2818436,56.6241336 44.7372495,56.7201602 L23.0436038,60.5453352 C22.4990097,60.6413619 21.979684,60.2777261 21.8836574,59.733132 C21.7876308,59.1885379 22.1512665,58.6692122 22.6958606,58.5731856 L44.3895063,54.7480106 C44.9341004,54.6519839 45.4534261,55.0156197 45.5494527,55.5602138 Z M40.2451654,34.1273755 C40.8833711,37.7468194 39.5878836,41.259965 37.1008186,43.6069616 L37.0599235,43.5367128 C37.8748068,45.0177137 40.0543894,46.7263237 43.5900514,48.6144874 L44.8688345,49.2974009 L43.4411495,49.5491403 C40.9414578,49.9899034 38.7543909,49.9498372 36.8829576,49.4217829 C37.2386043,50.2633091 37.9022256,51.2639867 38.8776204,52.413009 L39.6257408,53.2943002 L38.4711505,53.2370327 C36.298789,53.1292837 34.2780432,52.1721944 32.4196242,50.3854267 C31.3420857,52.5854275 29.872736,54.1285637 28.0075954,55.0021746 L27.7098099,55.1345474 L26.6444365,55.5832544 L27.0460204,54.4992393 C27.569603,53.0859069 27.850951,51.9186057 27.8973308,51.0061913 C26.4179868,52.0714507 24.5312695,52.8285604 22.2415261,53.2822156 L21.778205,53.3689019 L20.3576481,53.6193844 L21.31758,52.5426978 C23.9232879,49.6200622 25.3830192,47.2904975 25.7055896,45.5969508 C22.5791616,44.2378955 20.1737444,41.3864639 19.5375946,37.7786789 C19.2021043,35.8760193 19.3944791,33.9578494 20.0704037,32.1961011 L20.2120228,31.845888 L21.1334145,32.2378219 C20.4191755,33.9169165 20.1997286,35.7676481 20.5236694,37.6048073 C21.4359223,42.7784511 26.3695164,46.2329908 31.5431601,45.3207378 C36.7168039,44.4084849 40.1713436,39.4748908 39.2590906,34.3012471 C38.3468377,29.1276033 33.4132436,25.6730636 28.2395999,26.5853166 C26.5833122,26.8773648 25.0673437,27.5881801 23.8067301,28.6391911 L23.5405491,28.8695862 L22.8713909,28.1247357 C24.3206357,26.8227644 26.1053825,25.9449036 28.0657283,25.5992418 C33.7839661,24.5909621 39.2368858,28.4091377 40.2451654,34.1273755 Z M26.6535487,45.9577435 C26.2805178,47.6111884 25.0763265,49.6391649 23.0438228,52.0756117 C24.9817039,51.5837769 26.5523372,50.8404671 27.7595311,49.8497956 L28.012654,49.6337241 L28.6825535,49.0388027 L28.8381307,49.9211249 C28.9956027,50.8141931 28.8753807,51.9465928 28.4851687,53.3277134 L28.3903306,53.650853 L28.6183441,53.499158 C30.6183652,52.1129649 32.0314279,49.6375644 32.8465144,46.0435742 C32.478723,46.1508216 32.1021874,46.2388993 31.7170317,46.3068126 C29.9641432,46.6158942 28.2361863,46.471439 26.6535487,45.9577435 Z M36.3279712,44.2666878 L36.2075537,44.3605905 C35.5218642,44.8765757 34.7672565,45.3124754 33.9552553,45.651831 C33.6727775,47.0444502 33.3071677,48.2966509 32.8570618,49.4070607 L32.7476936,49.296544 L32.9552142,49.5088124 C34.2456501,50.791905 35.5986717,51.6197136 37.0190655,52.0010243 L37.3244685,52.0759028 C36.3646205,50.7983303 35.7973803,49.6857763 35.6277803,48.7239265 L35.4722031,47.8416043 L36.3051777,48.1715285 C37.8423991,48.7803903 39.6736406,48.9811625 41.8015638,48.7675131 C39.0326448,47.1693077 37.2097384,45.6780891 36.3279712,44.2666878 Z M22.0875707,44.3648967 L22.1593414,44.4197825 L22.8972332,45.0966064 C23.1009964,45.2835062 23.1146669,45.600201 22.9277671,45.8039642 C22.761634,45.9850871 22.4929467,46.0160132 22.2921801,45.8893839 L22.2204093,45.8344982 L21.4825175,45.1576742 C21.2787543,44.9707745 21.2650838,44.6540796 21.4519836,44.4503164 C21.6181167,44.2691936 21.886804,44.2382674 22.0875707,44.3648967 Z M38.2730158,34.4751187 C38.5196875,35.8740633 38.4140848,37.2843478 37.9810874,38.6024875 L37.8660318,38.9300428 L36.9282889,38.5790255 C37.3940151,37.3348376 37.5228965,35.98716 37.286941,34.6489903 C36.5667413,30.5645347 32.6717986,27.8372664 28.5873431,28.5574662 C24.5028875,29.2776659 21.7756192,33.1726086 22.495819,37.2570641 C23.2160187,41.3415197 27.1109614,44.068788 31.1954169,43.3485882 C32.5925527,43.1022355 33.8623169,42.4785208 34.893657,41.5556068 L35.1273756,41.337351 L35.826126,42.0545139 C34.6127817,43.2367067 33.0734641,44.0341709 31.3692885,44.334663 C26.7402389,45.1508894 22.3259705,42.0599854 21.5097442,37.4309357 C20.6935178,32.8018861 23.7844218,28.3876177 28.4134715,27.5713914 C33.0425211,26.755165 37.4567895,29.846069 38.2730158,34.4751187 Z M40.942027,41.0223557 C41.1505776,41.1524032 41.2303182,41.4108422 41.1427101,41.6314483 L41.1019373,41.7120775 L40.5721259,42.5617096 C40.4258225,42.796329 40.1170236,42.8679233 39.8824041,42.7216199 C39.6738535,42.5915725 39.5941129,42.3331334 39.681721,42.1125274 L39.7224938,42.0318981 L40.2523053,41.1822661 C40.3986086,40.9476466 40.7074076,40.8760523 40.942027,41.0223557 Z M19.0031963,39.539371 L19.0395036,39.6221071 L19.3584034,40.5712529 C19.4464651,40.8333523 19.3053797,41.117214 19.0432803,41.2052757 C18.8103031,41.2835528 18.560131,41.1807754 18.4455649,40.9728888 L18.4092575,40.8901527 L18.0903578,39.9410069 C18.002296,39.6789075 18.1433814,39.3950458 18.4054808,39.3069841 C18.638458,39.228707 18.8886302,39.3314844 19.0031963,39.539371 Z M29.4256717,30.7264933 L31.236667,33.19478 L34.2966636,33.1022348 C34.7114244,33.0896909 34.960528,33.5581866 34.7181974,33.8950244 L32.9303455,36.3801259 L33.9639522,39.2617576 C34.1040502,39.6523423 33.7354616,40.034027 33.3402255,39.9076455 L30.4242769,38.9752359 L28.0030844,40.8487275 C27.674909,41.1026659 27.1980051,40.8700643 27.1960664,40.4551185 L27.1817629,37.3937562 L24.6517769,35.670006 C24.3088554,35.4363639 24.3827012,34.9109235 24.776739,34.7808543 L27.6838476,33.821238 L28.5414228,30.8824102 C28.657661,30.484073 29.1802041,30.3919346 29.4256717,30.7264933 Z M29.2184579,32.1366966 L28.571316,34.3543899 C28.5251577,34.5125699 28.4041197,34.6379084 28.247647,34.689559 L26.0538895,35.4137031 L27.9630634,36.7144766 C28.0992378,36.807256 28.181039,36.9611017 28.1818089,37.1258771 L28.1926025,39.4360372 L30.0196788,38.0222661 C30.1499975,37.921427 30.3215914,37.8911703 30.47854,37.9413565 L32.6789682,38.6449699 L31.8989897,36.4704378 C31.8433566,36.3153363 31.8676063,36.142791 31.963836,36.0090324 L33.3129818,34.1337293 L31.0038522,34.2035656 C30.8391504,34.2085468 30.6825436,34.1321646 30.5850683,33.999311 L29.2184579,32.1366966 Z M42.030394,35.066698 C42.2758437,35.0793523 42.4708652,35.2667447 42.5011746,35.5021668 L42.5045965,35.592454 L42.453043,36.5924126 C42.4388069,36.8685435 42.2034179,37.0808512 41.9272869,37.0666151 C41.6818372,37.0539607 41.4868158,36.8665683 41.4565064,36.6311462 L41.4530844,36.540859 L41.5046379,35.5409005 C41.5157105,35.326132 41.6605668,35.1499726 41.8543224,35.0889836 L41.9401068,35.0701199 L42.030394,35.066698 Z M18.2174742,33.2911665 C18.4592442,33.335359 18.6284792,33.5463301 18.6281846,33.7836951 L18.619938,33.87367 L18.4398984,34.8586373 C18.3901818,35.1306285 18.1293861,35.3108177 17.8573949,35.2611011 C17.615625,35.2169086 17.4463899,35.0059375 17.4466845,34.7685725 L17.4549311,34.6785976 L17.6349707,33.6936303 C17.6846873,33.4216391 17.945483,33.2414499 18.2174742,33.2911665 Z M40.7573179,29.5406134 L40.8034829,29.6182811 L41.2362043,30.5212357 C41.355697,30.7705798 41.2504318,31.069581 41.0010877,31.1890737 C40.7794486,31.2952895 40.5185741,31.2239187 40.3794147,31.0316249 L40.3332497,30.9539571 L39.9005283,30.0510025 C39.7810356,29.8016585 39.8863009,29.5026572 40.1356449,29.3831645 C40.3572841,29.2769488 40.6181585,29.3483196 40.7573179,29.5406134 Z M20.9333552,27.9827981 C21.1243438,28.1374882 21.171721,28.4037675 21.0576672,28.6119356 L21.0072951,28.6869432 L20.3770899,29.4650282 C20.2030635,29.6798904 19.887807,29.7129944 19.6729448,29.5389681 C19.4819561,29.384278 19.4345789,29.1179986 19.5486328,28.9098306 L19.5990049,28.834823 L20.2292101,28.056738 C20.4032364,27.8418758 20.7184929,27.8087717 20.9333552,27.9827981 Z M36.3247103,25.1230408 L36.4026742,25.1687038 L37.2180495,25.749856 C37.4432092,25.9103368 37.4956418,26.2229601 37.3351611,26.4481198 C37.1925115,26.6482617 36.9296505,26.711928 36.7148613,26.6108944 L36.6368973,26.5652314 L35.821522,25.9840791 C35.5963623,25.8235984 35.5439297,25.510975 35.7044104,25.2858153 C35.84706,25.0856734 36.109921,25.0220072 36.3247103,25.1230408 Z M25.8856755,24.6208003 C25.97804,24.84856 25.8907387,25.1045439 25.6902398,25.2315967 L25.6098764,25.2728909 L24.6819865,25.6491824 C24.4257568,25.7530925 24.1338059,25.629613 24.0298959,25.3733833 C23.9375314,25.1456235 24.0248327,24.8896396 24.2253316,24.7625868 L24.305695,24.7212926 L25.2335849,24.3450011 C25.4898146,24.2410911 25.7817655,24.3645706 25.8856755,24.6208003 Z M30.35063,23.3878999 L30.4409431,23.3905517 L31.4351785,23.5091719 C31.7097291,23.541928 31.9057422,23.7910492 31.8729862,24.0655997 C31.8438697,24.3096446 31.643798,24.4916353 31.4068715,24.5060592 L31.3165584,24.5034073 L30.3223229,24.3847872 C30.0477724,24.3520311 29.8517592,24.1029099 29.8845153,23.8283593 C29.9136318,23.5843144 30.1137035,23.4023237 30.35063,23.3878999 Z" id="形状结合" fill="#737EB1" fill-rule="nonzero"></path>
                <path d="M12,57 C12.2761424,57 12.5,57.2238576 12.5,57.5 L12.5,58.499 L13.5,58.5 C13.7761424,58.5 14,58.7238576 14,59 C14,59.2761424 13.7761424,59.5 13.5,59.5 L12.5,59.5 L12.5,60.5 C12.5,60.7761424 12.2761424,61 12,61 C11.7238576,61 11.5,60.7761424 11.5,60.5 L11.5,59.5 L10.5,59.5 C10.2238576,59.5 10,59.2761424 10,59 C10,58.7238576 10.2238576,58.5 10.5,58.5 L11.5,58.5 L11.5,57.5 C11.5,57.2238576 11.7238576,57 12,57 Z" id="形状结合备份-6" fill="#737EB1" transform="translate(12.000000, 59.000000) rotate(-15.000000) translate(-12.000000, -59.000000) "></path>
                <path d="M69,54 C69.2761424,54 69.5,54.2238576 69.5,54.5 L69.5,55.499 L70.5,55.5 C70.7761424,55.5 71,55.7238576 71,56 C71,56.2761424 70.7761424,56.5 70.5,56.5 L69.5,56.5 L69.5,57.5 C69.5,57.7761424 69.2761424,58 69,58 C68.7238576,58 68.5,57.7761424 68.5,57.5 L68.5,56.5 L67.5,56.5 C67.2238576,56.5 67,56.2761424 67,56 C67,55.7238576 67.2238576,55.5 67.5,55.5 L68.5,55.5 L68.5,54.5 C68.5,54.2238576 68.7238576,54 69,54 Z" id="形状结合备份-12" fill="#F3F6FC" transform="translate(69.000000, 56.000000) rotate(-15.000000) translate(-69.000000, -56.000000) "></path>
                <path d="M57,17 C57.2761424,17 57.5,17.2238576 57.5,17.5 L57.5,18.499 L58.5,18.5 C58.7761424,18.5 59,18.7238576 59,19 C59,19.2761424 58.7761424,19.5 58.5,19.5 L57.5,19.5 L57.5,20.5 C57.5,20.7761424 57.2761424,21 57,21 C56.7238576,21 56.5,20.7761424 56.5,20.5 L56.5,19.5 L55.5,19.5 C55.2238576,19.5 55,19.2761424 55,19 C55,18.7238576 55.2238576,18.5 55.5,18.5 L56.5,18.5 L56.5,17.5 C56.5,17.2238576 56.7238576,17 57,17 Z" id="形状结合备份-13" fill="#737EB1" transform="translate(57.000000, 19.000000) rotate(-15.000000) translate(-57.000000, -19.000000) "></path>
                <path d="M21,14 C21.2761424,14 21.5,14.2238576 21.5,14.5 L21.5,15.499 L22.5,15.5 C22.7761424,15.5 23,15.7238576 23,16 C23,16.2761424 22.7761424,16.5 22.5,16.5 L21.5,16.5 L21.5,17.5 C21.5,17.7761424 21.2761424,18 21,18 C20.7238576,18 20.5,17.7761424 20.5,17.5 L20.5,16.5 L19.5,16.5 C19.2238576,16.5 19,16.2761424 19,16 C19,15.7238576 19.2238576,15.5 19.5,15.5 L20.5,15.5 L20.5,14.5 C20.5,14.2238576 20.7238576,14 21,14 Z" id="形状结合备份-14" fill="#F3F6FC" transform="translate(21.000000, 16.000000) rotate(-15.000000) translate(-21.000000, -16.000000) "></path>
            </g>
        </g>
    </g>
</svg>