<?xml version="1.0" encoding="UTF-8"?>
<svg width="80px" height="80px" viewBox="0 0 80 80" version="1.1" xmlns="http://www.w3.org/2000/svg" xmlns:xlink="http://www.w3.org/1999/xlink">
    <!-- Generator: Sketch 59.1 (86144) - https://sketch.com -->
    <title>编组 5</title>
    <desc>Created with Sketch.</desc>
    <g id="页面-1" stroke="none" stroke-width="1" fill="none" fill-rule="evenodd">
        <g id="画板" transform="translate(-928.000000, -341.000000)">
            <g id="编组-8" transform="translate(928.000000, 341.000000)">
                <rect id="矩形备份-36" fill="#D8D8D8" opacity="0.01" x="0" y="0" width="80" height="80"></rect>
                <path d="M14,25 C14.2761424,25 14.5,25.2238576 14.5,25.5 L14.5,26.499 L15.5,26.5 C15.7761424,26.5 16,26.7238576 16,27 C16,27.2761424 15.7761424,27.5 15.5,27.5 L14.5,27.5 L14.5,28.5 C14.5,28.7761424 14.2761424,29 14,29 C13.7238576,29 13.5,28.7761424 13.5,28.5 L13.5,27.5 L12.5,27.5 C12.2238576,27.5 12,27.2761424 12,27 C12,26.7238576 12.2238576,26.5 12.5,26.5 L13.5,26.5 L13.5,25.5 C13.5,25.2238576 13.7238576,25 14,25 Z" id="形状结合备份-6" fill="#737EB1" transform="translate(14.000000, 27.000000) rotate(-15.000000) translate(-14.000000, -27.000000) "></path>
                <path d="M62,16 C62.2761424,16 62.5,16.2238576 62.5,16.5 L62.5,17.499 L63.5,17.5 C63.7761424,17.5 64,17.7238576 64,18 C64,18.2761424 63.7761424,18.5 63.5,18.5 L62.5,18.5 L62.5,19.5 C62.5,19.7761424 62.2761424,20 62,20 C61.7238576,20 61.5,19.7761424 61.5,19.5 L61.5,18.5 L60.5,18.5 C60.2238576,18.5 60,18.2761424 60,18 C60,17.7238576 60.2238576,17.5 60.5,17.5 L61.5,17.5 L61.5,16.5 C61.5,16.2238576 61.7238576,16 62,16 Z" id="形状结合备份-10" fill="#F3F6FC" transform="translate(62.000000, 18.000000) rotate(-15.000000) translate(-62.000000, -18.000000) "></path>
                <path d="M67,55 C67.2761424,55 67.5,55.2238576 67.5,55.5 L67.5,56.499 L68.5,56.5 C68.7761424,56.5 69,56.7238576 69,57 C69,57.2761424 68.7761424,57.5 68.5,57.5 L67.5,57.5 L67.5,58.5 C67.5,58.7761424 67.2761424,59 67,59 C66.7238576,59 66.5,58.7761424 66.5,58.5 L66.5,57.5 L65.5,57.5 C65.2238576,57.5 65,57.2761424 65,57 C65,56.7238576 65.2238576,56.5 65.5,56.5 L66.5,56.5 L66.5,55.5 C66.5,55.2238576 66.7238576,55 67,55 Z" id="形状结合备份-11" fill="#F3F6FC" transform="translate(67.000000, 57.000000) rotate(-15.000000) translate(-67.000000, -57.000000) "></path>
                <path d="M50,36 L51,36 C51.6666667,42.6666667 54.6666667,46 60,46 C60.3520282,46 60.6938908,45.9869299 61.0255878,45.9607897 L61,46 C56,54 69,65 64,70 C59,75 51,70 40,65 C29,60 23,71 12,69 C1,67 6,58 10,53 C11.2750346,51.4062068 12.6516762,49.8124136 14.0003723,48.121456 L14,58 C14,60.5747126 15.2429647,62.5279429 17.7288942,63.8596908 L18,64 L27,64 C28.9354839,64 30.5587929,62.4391259 31.8699272,59.3173777 L32,59 L32,40 L39,47 L50,36 L51,36 Z M53,55 C51.8047879,55 50.7320117,55.5242106 50.0009561,56.3552593 C49.2679883,55.5242106 48.1952121,55 47,55 C44.790861,55 43,56.790861 43,59 C43,61.209139 44.790861,63 47,63 C48.1952121,63 49.2679883,62.4757894 49.9990439,61.6447407 C50.7320117,62.4757894 51.8047879,63 53,63 C55.209139,63 57,61.209139 57,59 C57,56.790861 55.209139,55 53,55 Z M72,22 C74.9445023,24.9445023 72.3401446,29.9698271 68.6800503,35.2378785 L67,26 L59,26 C59.6666667,25.3333333 60,24.3333333 60,23 C60,22.4545215 59.8326299,22.020623 59.4978897,21.6983046 L59.6352,21.616 C64.6784,18.672 68.8,18.8 72,22 Z M41,18 C43.1134318,19.2680591 46.298846,20.2681225 50.5562428,21.0001903 L27,21 C21.8692506,21 19.2064315,21.6169826 19.0115426,22.8509477 L18.7988006,22.2330673 C16.9921941,16.9961124 15.28543,12.171656 18,10 C23,6 36,15 41,18 Z" id="形状结合" fill="#F3F6FC"></path>
                <path d="M32,34 C32.5128358,34 32.9355072,34.3860402 32.9932723,34.8833789 L33,35 L33,49 C33,49.5522847 32.5522847,50 32,50 C31.4871642,50 31.0644928,49.6139598 31.0067277,49.1166211 L31,49 L31,44 L18,44 C17.4477153,44 17,43.5522847 17,43 C17,42.4477153 17.4477153,42 18,42 L31,42 L31,36 L15,36 L15,58 C15,60.6887547 17.1223067,62.8818181 19.7831104,62.9953805 L20,63 L26,63 C28.6887547,63 30.8818181,60.8776933 30.9953805,58.2168896 L31,58 L31,56 C31,55.4477153 31.4477153,55 32,55 C32.5128358,55 32.9355072,55.3860402 32.9932723,55.8833789 L33,56 L33,58 C33,61.7854517 29.9952166,64.8690987 26.2406498,64.995941 L26,65 L20,65 C16.2145483,65 13.1309013,61.9952166 13.004059,58.2406498 L13,58 L13,35 C13,34.4871642 13.3860402,34.0644928 13.8833789,34.0067277 L14,34 L32,34 Z M22,57 C22.5522847,57 23,57.4477153 23,58 C23,58.5522847 22.5522847,59 22,59 C21.4477153,59 21,58.5522847 21,58 C21,57.4477153 21.4477153,57 22,57 Z M32,51 C32.5128358,51 32.9355072,51.3860402 32.9932723,51.8833789 L33,52 L33,53 C33,53.5522847 32.5522847,54 32,54 C31.4871642,54 31.0644928,53.6139598 31.0067277,53.1166211 L31,53 L31,52 C31,51.4477153 31.4477153,51 32,51 Z M26,50 C26.5522847,50 27,50.4477153 27,51 C27,51.5522847 26.5522847,52 26,52 C25.4477153,52 25,51.5522847 25,51 C25,50.4477153 25.4477153,50 26,50 Z M19,47 C19.5522847,47 20,47.4477153 20,48 C20,48.5522847 19.5522847,49 19,49 C18.4477153,49 18,48.5522847 18,48 C18,47.4477153 18.4477153,47 19,47 Z" id="形状结合" fill="#737EB1" fill-rule="nonzero"></path>
                <path d="M42.1052015,47.1895944 C42.37171,47.1868342 42.7607722,47.249051 43.2592182,47.3634706 C44.3339369,47.6101751 45.7114168,48.0536397 47.0290016,48.6040333 C50.5130686,50.0594298 53.0158613,51.9305542 53.7946119,54.2524825 C56.1780162,54.6325239 58,56.6982386 58,59.1895004 C58,61.9509241 55.7614237,64.1895004 53,64.1895004 C51.89942,64.1895004 50.8538423,63.8313652 49.9998797,63.1898557 C49.16575,63.8170503 48.1263702,64.1895004 47,64.1895004 C44.2385763,64.1895004 42,61.9509241 42,59.1895004 C42,57.1413099 43.2315342,55.3807596 44.994502,54.6079502 C43.6069996,51.4465937 42.4493068,49.6221281 41.7065664,49.2413491 L41.7065664,49.2413491 L41.6131227,49.1909348 C41.553312,49.1568122 41.4981187,49.1212531 41.4454247,49.081796 C41.2410938,48.9287937 41.0926662,48.7594688 41.0237694,48.4452323 C40.8927247,47.8475408 41.2501136,47.4151762 41.6901505,47.2584736 C41.8357927,47.2066086 41.9634385,47.1910626 42.1052015,47.1895944 Z M53,56.1895004 C52.3937212,56.1895004 51.8176742,56.3697043 51.3324143,56.6949058 C51.7575515,57.4285753 52,58.2807244 52,59.1895004 C52,60.0982764 51.7575515,60.9504254 51.3338079,61.6847944 C51.8188577,62.0100596 52.3945139,62.1895004 53,62.1895004 C54.6568542,62.1895004 56,60.8463546 56,59.1895004 C56,57.5326461 54.6568542,56.1895004 53,56.1895004 Z M47,56.1895004 C45.3431458,56.1895004 44,57.5326461 44,59.1895004 C44,60.8463546 45.3431458,62.1895004 47,62.1895004 C48.6568542,62.1895004 50,60.8463546 50,59.1895004 C50,57.5326461 48.6568542,56.1895004 47,56.1895004 Z M44.8618712,49.9161195 L45.0221234,50.1814112 C45.6428197,51.2291837 46.2943112,52.5615336 46.9926223,54.1877276 L47,54.1895004 C48.1254731,54.1895004 49.1640943,54.5613574 49.9997041,55.188912 C50.4966694,54.8156829 51.0607055,54.5372802 51.6635689,54.3704541 C50.8800546,52.9379663 48.9292279,51.5652982 46.2581003,50.4494902 C45.7941278,50.2556754 45.3219795,50.0762227 44.8618712,49.9161195 L44.8618712,49.9161195 Z" id="形状结合" fill="#737EB1" fill-rule="nonzero"></path>
                <path d="M67.8198039,25 L69.8275716,35.0388386 C70.9106911,40.4544362 67.3985238,45.7226873 61.9829262,46.8058068 C61.6575957,46.8708729 61.3294279,46.9196685 60.9996463,46.9520725 L61,63.5 C61,63.7761424 60.7761424,64 60.5,64 L59.5,64 C59.2238576,64 59,63.7761424 59,63.5 L58.9991154,46.9526758 C53.9357884,46.4606397 49.9782351,42.1924879 49.9782351,37 C49.9782351,36.3414801 50.043282,35.6845705 50.1724284,35.0388386 L50.5042351,33.38 L50.375305,33.2191312 C50.4391165,33.1680819 50.502877,33.1178041 50.566585,33.0682984 L52.1801961,25 L67.8198039,25 Z M59.2051074,33.6591214 C57.1826928,32.251864 54.967117,32.4036383 52.3770579,34.2161357 L52.1335897,35.4310709 C52.0302726,35.9476564 51.9782351,36.4731841 51.9782351,37 C51.9782351,41.418278 55.5599571,45 59.9782351,45 L60.4165157,44.9902548 C60.8107857,44.9707763 61.2032549,44.9221332 61.590694,44.8446454 C65.923172,43.9781498 68.7329059,39.7635489 67.8664103,35.4310709 L67.6654987,34.4262983 C64.9314285,36.0427888 62.1120302,35.8340227 59.4,33.8 L59.4,33.8 Z M66.1801961,27 L53.8198039,27 L52.9025155,31.5878402 C55.6422613,30.2533338 58.2472401,30.4354301 60.6,32.2 L60.6,32.2 L60.8232486,32.3623309 C63.0517516,33.9315297 65.1634409,33.8774194 67.4,32.2 L67.2422351,32.314 L66.1801961,27 Z" id="形状结合" fill="#737EB1" fill-rule="nonzero"></path>
                <rect id="矩形备份-37" fill="#737EB1" x="8" y="63" width="64" height="2" rx="1"></rect>
                <path d="M51.8799353,32.1616806 L51.2329353,35.7176806 L39.9999353,47.4016806 L40,63.5 C40,63.7761424 39.7761424,64 39.5,64 L38.5,64 C38.2238576,64 38,63.7761424 38,63.5 L37.9999353,47.3906806 L31.9999353,40.8906806 L31.9999353,37.9426806 L39.014855,45.5417757 L51.8799353,32.1616806 Z M53.5,14.9378222 C53.9782926,15.2139645 54.1421678,15.825555 53.8660254,16.3038476 L51.7309353,19.9996806 L56.9535334,20 C59.1626724,20 60.9535334,21.790861 60.9535334,24 C60.9535334,24.7079305 60.7658426,25.3970361 60.4174092,26.0004111 L57.8049353,25.9996806 L58.3951995,25.3862174 C58.7534388,25.0136486 58.9535334,24.5168587 58.9535334,24 C58.9535334,22.8954305 58.0581029,22 56.9535334,22 L21.8519453,22 C21.3491752,22 20.8648395,22.1893674 20.495395,22.5303931 C19.6837536,23.2796006 19.6331408,24.5449187 20.3823483,25.3565602 L29.2839353,34.9996806 L26.5619353,34.9996806 L18.9127415,26.7131204 C17.4143264,25.0898375 17.5155519,22.5592012 19.1388348,21.0607862 C19.8777238,20.3787348 20.8463951,20 21.8519552,20 L49.4219353,19.9996806 L52.1339746,15.3038476 C52.410117,14.825555 53.0217074,14.6616798 53.5,14.9378222 Z M49.422833,23.9996806 L47.1129353,27.9996806 L52,28 C52.2256123,28 52.4337743,28.0747139 52.6010933,28.2007491 L52.2809075,29.9600061 C52.1917921,29.9860389 52.0975265,30 52,30 L29,30 C28.4477153,30 28,29.5522847 28,29 C28,28.4477153 28.4477153,28 29,28 L44.8039353,27.9996806 L47.112833,23.9996806 L49.422833,23.9996806 Z" id="形状结合" fill="#737EB1"></path>
                <rect id="矩形备份-47" fill="#737EB1" transform="translate(54.000000, 14.000000) rotate(-60.000000) translate(-54.000000, -14.000000) " x="52" y="12" width="4" height="4" rx="2"></rect>
            </g>
        </g>
    </g>
</svg>