<?xml version="1.0" encoding="UTF-8"?>
<svg width="80px" height="80px" viewBox="0 0 80 80" version="1.1" xmlns="http://www.w3.org/2000/svg" xmlns:xlink="http://www.w3.org/1999/xlink">
    <!-- Generator: Sketch 59.1 (86144) - https://sketch.com -->
    <title>云解决</title>
    <desc>Created with Sketch.</desc>
    <g id="页面-1" stroke="none" stroke-width="1" fill="none" fill-rule="evenodd">
        <g id="傲创首页备份-2" transform="translate(-700.000000, -1155.000000)">
            <g id="编组-3备份-8" transform="translate(587.000000, 1155.000000)">
                <g id="编组-10备份-2">
                    <g id="云解决">
                        <path d="M155.756757,6 C164.994423,6 172.582392,13.1555835 173.24974,22.2635983 L173.270623,22.5897058 L173.594168,22.6128447 C181.660057,23.2729557 188,30.0354852 188,38.28 C188,46.7264691 180.399097,53.6174595 172.000555,53.9846118 L172,54.5 C172,58.0118106 169.215004,60.8731506 165.733134,60.995897 L165.5,61 L162,61 L162,64 C162,66.1360181 163.339417,67.9591988 165.22417,68.6754619 C165.771658,67.1168854 167.255398,66 169,66 C171.209139,66 173,67.790861 173,70 C173,72.209139 171.209139,74 169,74 C167.039709,74 165.40877,72.5898773 165.06621,70.7286596 C162.222339,69.9140401 160.119554,67.3437294 160.004927,64.2650984 L160,64 L160,48 L158.5,48 C154.988189,48 152.126849,45.2150038 152.004103,41.7331341 L152,41.5 L152.000243,27.8740452 C150.274893,27.4300871 149,25.8639271 149,24 C149,21.790861 150.790861,20 153,20 C155.209139,20 157,21.790861 157,24 C157,25.8635652 155.725602,27.429479 154.000761,27.8737865 L154,41.5 C154,43.9142733 155.901237,45.8844891 158.288164,45.995102 L158.5,46 L160,46 L160.000243,37.8740452 C158.274893,37.4300871 157,35.8639271 157,34 C157,31.790861 158.790861,30 161,30 C163.209139,30 165,31.790861 165,34 C165,35.8635652 163.725602,37.429479 162.000761,37.8737865 L162,59 L165.5,59 C167.914273,59 169.884489,57.0987635 169.995102,54.7118357 L170,54.5 L170.000243,46.8740452 C168.274893,46.4300871 167,44.8639271 167,43 C167,40.790861 168.790861,39 171,39 C173.209139,39 175,40.790861 175,43 C175,44.8635652 173.725602,46.429479 172.000761,46.8737865 L172.000808,51.9823729 C179.301071,51.6171485 186,45.6223095 186,38.28 C186,30.7023902 179.864828,24.56 172.297297,24.56 C171.787719,24.56 171.366544,24.1786679 171.305026,23.6848279 L171.297338,23.56899 L171.294724,23.273779 C171.14227,14.8012465 164.232847,8 155.756757,8 C148.139024,8 141.677757,13.5256141 140.431136,20.965416 C140.35713,21.4070862 140.000522,21.7404751 139.565301,21.7929439 L139.444809,21.8001588 L137.378378,21.8 C133.363382,21.8 130.108108,25.059104 130.108108,29.08 C130.108108,29.6382975 130.170688,30.1867193 130.29336,30.7170054 C130.432525,31.3185858 129.998626,31.9012886 129.382397,31.9403794 C124.122479,32.2740452 120,36.654957 120,41.96 C120,47.4112155 124.338619,51.8473322 129.746379,51.9961431 L130.027027,52 L138,52 L138.000243,51.8740452 C136.274893,51.4300871 135,49.8639271 135,48 C135,45.790861 136.790861,44 139,44 C141.209139,44 143,45.790861 143,48 C143,49.8635652 141.725602,51.429479 140.000761,51.8737865 L140,57.5 C140,59.9142733 141.901237,61.8844891 144.288164,61.995102 L144.5,62 L145,62 L145.000243,40.8740452 C143.274893,40.4300871 142,38.8639271 142,37 C142,34.790861 143.790861,33 146,33 C148.209139,33 150,34.790861 150,37 C150,38.8635652 148.725602,40.429479 147.000761,40.8737865 L147,52 L147.5,52 C151.011811,52 153.873151,54.7849962 153.995897,58.2668659 L154,58.5 L154.000761,66.1262135 C155.725602,66.570521 157,68.1364348 157,70 C157,72.209139 155.209139,74 153,74 C150.790861,74 149,72.209139 149,70 C149,68.1360729 150.274893,66.5699129 152.000243,66.1259548 L152,58.5 C152,56.0857267 150.098763,54.1155109 147.711836,54.004898 L147.5,54 L147,54 L147,64 C147,67.5651672 144.334752,70.5078325 140.88805,70.9442032 C140.463844,72.6974517 138.884035,74 137,74 C134.790861,74 133,72.209139 133,70 C133,67.790861 134.790861,66 137,66 C138.837512,66 140.385636,67.2390132 140.854496,68.9271622 C143.20841,68.5223415 145,66.4703948 145,64 L144.5,64 C140.988189,64 138.126849,61.2150038 138.004103,57.7331341 L138,57.5 L138,54 L130.027027,54 C123.485066,54 118.163453,48.771364 118.003694,42.2613573 L118,41.96 C118,35.9716011 122.380694,30.9649936 128.159784,30.064206 C128.125428,29.7391325 128.108108,29.4106873 128.108108,29.08 C128.108108,24.0449718 132.113943,19.9460901 137.109885,19.8038194 L137.378455,19.8 L138.619307,19.8000954 C140.354904,11.8258627 147.445073,6 155.756757,6 Z M137,68 C135.895431,68 135,68.8954305 135,70 C135,71.1045695 135.895431,72 137,72 C138.104569,72 139,71.1045695 139,70 C139,68.8954305 138.104569,68 137,68 Z M153,68 C151.895431,68 151,68.8954305 151,70 C151,71.1045695 151.895431,72 153,72 C154.104569,72 155,71.1045695 155,70 C155,68.8954305 154.104569,68 153,68 Z M169,68 C167.895431,68 167,68.8954305 167,70 C167,71.1045695 167.895431,72 169,72 C170.104569,72 171,71.1045695 171,70 C171,68.8954305 170.104569,68 169,68 Z M139,46 C137.895431,46 137,46.8954305 137,48 C137,49.1045695 137.895431,50 139,50 C140.104569,50 141,49.1045695 141,48 C141,46.8954305 140.104569,46 139,46 Z M171,41 C169.895431,41 169,41.8954305 169,43 C169,44.1045695 169.895431,45 171,45 C172.104569,45 173,44.1045695 173,43 C173,41.8954305 172.104569,41 171,41 Z M146,35 C144.895431,35 144,35.8954305 144,37 C144,38.1045695 144.895431,39 146,39 C147.104569,39 148,38.1045695 148,37 C148,35.8954305 147.104569,35 146,35 Z M161,32 C159.895431,32 159,32.8954305 159,34 C159,35.1045695 159.895431,36 161,36 C162.104569,36 163,35.1045695 163,34 C163,32.8954305 162.104569,32 161,32 Z M153,22 C151.895431,22 151,22.8954305 151,24 C151,25.1045695 151.895431,26 153,26 C154.104569,26 155,25.1045695 155,24 C155,22.8954305 154.104569,22 153,22 Z" id="形状" fill="#5C5E6B" fill-rule="nonzero"></path>
                        <rect fill="#6A4E63" opacity="0" x="113" y="0" width="80" height="80" rx="1"></rect>
                    </g>
                </g>
            </g>
        </g>
    </g>
</svg>