<?xml version="1.0" encoding="UTF-8"?>
<svg width="80px" height="80px" viewBox="0 0 80 80" version="1.1" xmlns="http://www.w3.org/2000/svg" xmlns:xlink="http://www.w3.org/1999/xlink">
    <!-- Generator: Sketch 59.1 (86144) - https://sketch.com -->
    <title>编组 5</title>
    <desc>Created with Sketch.</desc>
    <g id="页面-1" stroke="none" stroke-width="1" fill="none" fill-rule="evenodd">
        <g id="画板" transform="translate(-644.000000, -341.000000)">
            <g id="编组-5" transform="translate(644.000000, 341.000000)">
                <rect id="矩形" fill="#D8D8D8" opacity="0.01" x="0" y="0" width="80" height="80"></rect>
                <path d="M47,65 C47.2761424,65 47.5,65.2238576 47.5,65.5 L47.5,66.499 L48.5,66.5 C48.7761424,66.5 49,66.7238576 49,67 C49,67.2761424 48.7761424,67.5 48.5,67.5 L47.5,67.5 L47.5,68.5 C47.5,68.7761424 47.2761424,69 47,69 C46.7238576,69 46.5,68.7761424 46.5,68.5 L46.5,67.5 L45.5,67.5 C45.2238576,67.5 45,67.2761424 45,67 C45,66.7238576 45.2238576,66.5 45.5,66.5 L46.5,66.5 L46.5,65.5 C46.5,65.2238576 46.7238576,65 47,65 Z" id="形状结合" fill="#737EB1" transform="translate(47.000000, 67.000000) rotate(-15.000000) translate(-47.000000, -67.000000) "></path>
                <path d="M48,10 C48.2761424,10 48.5,10.2238576 48.5,10.5 L48.5,11.499 L49.5,11.5 C49.7761424,11.5 50,11.7238576 50,12 C50,12.2761424 49.7761424,12.5 49.5,12.5 L48.5,12.5 L48.5,13.5 C48.5,13.7761424 48.2761424,14 48,14 C47.7238576,14 47.5,13.7761424 47.5,13.5 L47.5,12.5 L46.5,12.5 C46.2238576,12.5 46,12.2761424 46,12 C46,11.7238576 46.2238576,11.5 46.5,11.5 L47.5,11.5 L47.5,10.5 C47.5,10.2238576 47.7238576,10 48,10 Z" id="形状结合备份" fill="#737EB1" transform="translate(48.000000, 12.000000) rotate(-15.000000) translate(-48.000000, -12.000000) "></path>
                <path d="M11,31 C11.2761424,31 11.5,31.2238576 11.5,31.5 L11.5,32.499 L12.5,32.5 C12.7761424,32.5 13,32.7238576 13,33 C13,33.2761424 12.7761424,33.5 12.5,33.5 L11.5,33.5 L11.5,34.5 C11.5,34.7761424 11.2761424,35 11,35 C10.7238576,35 10.5,34.7761424 10.5,34.5 L10.5,33.5 L9.5,33.5 C9.22385763,33.5 9,33.2761424 9,33 C9,32.7238576 9.22385763,32.5 9.5,32.5 L10.5,32.5 L10.5,31.5 C10.5,31.2238576 10.7238576,31 11,31 Z" id="形状结合备份-2" fill="#F3F6FC" transform="translate(11.000000, 33.000000) rotate(-15.000000) translate(-11.000000, -33.000000) "></path>
                <path d="M71,43 C71.2761424,43 71.5,43.2238576 71.5,43.5 L71.5,44.499 L72.5,44.5 C72.7761424,44.5 73,44.7238576 73,45 C73,45.2761424 72.7761424,45.5 72.5,45.5 L71.5,45.5 L71.5,46.5 C71.5,46.7761424 71.2761424,47 71,47 C70.7238576,47 70.5,46.7761424 70.5,46.5 L70.5,45.5 L69.5,45.5 C69.2238576,45.5 69,45.2761424 69,45 C69,44.7238576 69.2238576,44.5 69.5,44.5 L70.5,44.5 L70.5,43.5 C70.5,43.2238576 70.7238576,43 71,43 Z" id="形状结合备份-3" fill="#F3F6FC" transform="translate(71.000000, 45.000000) rotate(-15.000000) translate(-71.000000, -45.000000) "></path>
                <path d="M13.6895993,45.2128904 C13.4578315,45.4522691 13.2279651,45.714639 13,46 C9.09706283,53.0874785 11.4303962,58.4208118 20,62 L20,62 L34.9415105,62.0922282 C30.4383864,66.1556684 25.7912163,68.7915923 21,70 C11.6329508,72.3624928 2.48735655,61.2687249 6,53 C7.59166656,49.253234 10.615397,47.0540743 13.5396155,45.3041139 Z M64,44 C69.8544057,49.9062321 75.9902596,56.3373349 74.8193785,62.243567 C73.6484973,68.149799 67.7940916,74.0560311 54.9143989,63.4248134 C54.3985103,62.9989861 53.8944678,62.5922157 53.4022715,62.2045022 L59.6155707,62.243567 L63.628914,43.6130819 C63.7499146,43.7435184 63.87361,43.8724911 64,44 Z M18.5157555,42.2923 C17.6877664,43.2811695 19.4796128,43.3399142 17.8209442,43.343404 L17.4638493,43.3436244 C17.2505796,43.3436244 17.0386764,43.3601487 16.8281397,43.3931974 C17.4303274,43.0333475 17.9947053,42.6738733 18.5034626,42.302081 Z M59.7048577,35.074902 L59.6155707,35.0748995 L59.6147317,34.195085 C59.6380619,34.4920033 59.6681039,34.7852756 59.7048577,35.074902 Z M23.3006079,12.6312177 C28.8513942,15.8311747 31.1799888,17.9475597 33.5596953,18.9803726 C32.596226,18.9906799 31.8631905,18.9969125 31.3595683,18.9991063 L31,19 C28.6582377,19 26.991571,20.062512 26,22.1875359 L26,22.1875359 L26,34 L20.2684956,33.9996861 C18.8338796,30.7805862 15.8260275,27.0808794 12.7626775,20.8999426 C8.07915294,11.4499713 15.1044398,7.90623206 23.3006079,12.6312177 Z M60,28 C59.8127159,29.0194111 59.6844032,30.0067881 59.6150618,30.962131 L59.6155707,27.987421 L60.0384302,27.9871762 C60.0256338,27.9914508 60.0128238,27.9957254 60,28 Z M67,9 C77.5379303,9 70,22 68,24 C67.9401422,24.0598578 67.8775971,24.1197157 67.8123648,24.1795735 L67.8117388,23.2624354 C67.8117388,20.8999426 66.6408576,19.3249474 64.2990953,18.5374498 C55.7622137,18.670018 48.8439535,18.7740904 43.5443146,18.8496669 C52.5337682,12.2829529 60.3524643,9 67,9 Z" id="形状结合" fill="#F3F6FC"></path>
                <rect id="矩形" fill="#F3F6FC" x="31" y="23" width="24" height="2" rx="1"></rect>
                <rect id="矩形备份-9" fill="#F3F6FC" x="35" y="28" width="20" height="2" rx="1"></rect>
                <rect id="矩形备份-10" fill="#F3F6FC" x="41" y="33" width="14" height="2" rx="1"></rect>
                <path d="M10.6448458,63 C10.0925611,63 9.64484585,62.5522847 9.64484585,62 C9.64484585,61.4477153 10.0925611,61 10.6448458,61 L14.6757831,61.0013668 C11.8477425,59.0107708 10,55.7211671 10,52 C10,48.9538059 11.2382213,46.1968138 13.2388064,44.2048812 L12.239,43.176 L11.5764288,43.8574887 C11.2255652,44.2181186 10.6487858,44.2260358 10.288156,43.8751723 L10.2704724,43.8574887 C9.90697911,43.4838775 9.90697911,42.8887921 10.2704724,42.5151809 L12.4470663,40.2780011 C12.7979299,39.9173712 13.3747093,39.909454 13.7353392,40.2603175 L13.7530227,40.2780011 C14.116516,40.6516123 14.116516,41.2466977 13.7530227,41.6203089 L13.098,42.293 L14.1588235,43.3856096 C15.8030866,42.0780633 17.8302347,41.2313679 20.0449022,41.0408889 L20.044846,41 C20.044846,40.8955334 20.0608648,40.7948083 20.0905801,40.7001468 L19.544846,40.7 C18.3298196,40.7 17.344846,39.7150264 17.344846,38.5 C17.344846,37.2849736 18.3298196,36.3 19.544846,36.3 L20.0908926,36.3008459 C20.0722346,36.2416263 20.0589386,36.1800283 20.051574,36.1166211 L20.044846,36 L20.044846,34 C20.044846,33.4871642 20.4308863,33.0644928 20.928225,33.0067277 L21.044846,33 L25.643846,33 L25.6448458,23 C25.6448458,20.3112453 27.7671526,18.1181819 30.4279562,18.0046195 L30.6448458,18 L64.6448458,18 L64.6445488,18.0274316 C66.8243509,18.2682503 68.5349714,20.0660162 68.6397565,22.2840752 L68.6448458,22.5 L68.6448458,28 L61.6448458,28 L61.6448458,34 L65.6448458,34 C66.2428389,34 66.6975334,34.5177889 66.6403855,35.0960967 L66.6220222,35.2124296 L61.8458458,61 L66.6448458,61 C67.1971306,61 67.6448458,61.4477153 67.6448458,62 C67.6448458,62.5522847 67.1971306,63 66.6448458,63 L42.6448458,63 C42.0925611,63 41.6448458,62.5522847 41.6448458,62 C41.6448458,61.4477153 42.0925611,61 42.6448458,61 L59.6278458,61 L55.7977188,40 L36.6448458,40 C36.4238321,40 36.2103618,39.9268355 36.0368163,39.7939194 L35.9377391,39.7071068 L31.2306323,35 L22.044846,35 L22.044846,36 C22.044846,36.1048318 22.028715,36.2058961 21.9987997,36.3008459 L22.544846,36.3 C23.7598724,36.3 24.744846,37.2849736 24.744846,38.5 C24.744846,39.7150264 23.7598724,40.7 22.544846,40.7 L21.9991116,40.7001468 C22.0176058,40.759062 22.0307945,40.820326 22.038118,40.8833789 L22.044846,41 L22.04568,41.049055 C24.2246714,41.2545337 26.2186945,42.0956313 27.8403686,43.3849672 L28.901,42.293 L28.2469773,41.6203089 C27.883484,41.2466977 27.883484,40.6516123 28.2469773,40.2780011 C28.5978408,39.9173712 29.1746202,39.909454 29.5352501,40.2603175 L29.5529337,40.2780011 L29.5529337,40.2780011 L31.7295276,42.5151809 C32.0930209,42.8887921 32.0930209,43.4838775 31.7295276,43.8574887 C31.378664,44.2181186 30.8018847,44.2260358 30.4412548,43.8751723 L30.4235712,43.8574887 L29.76,43.176 L28.7611936,44.2048812 C30.7617787,46.1968138 32,48.9538059 32,52 C32,55.7209089 30.1525139,59.0103143 27.3248055,61.0009525 L38.6448458,61 C39.1971306,61 39.6448458,61.4477153 39.6448458,62 C39.6448458,62.5522847 39.1971306,63 38.6448458,63 L10.6448458,63 Z M21.6158622,43.0207407 L21.6156342,44.9152099 C21.6156342,45.2646791 21.3400056,45.5479799 21.0000004,45.5479799 C20.6909049,45.5479799 20.435013,45.313847 20.3910418,45.008716 L20.3843667,44.9152099 L20.3841378,43.0207407 C18.5783075,43.1427773 16.9185525,43.797483 15.5607104,44.8290202 L16.9640618,46.2753866 C17.2074689,46.5261296 17.2074172,46.9218072 16.9639463,47.1591574 C16.7448225,47.3727726 16.4032092,47.38534 16.159634,47.2029257 L16.0823758,47.1349077 L14.6311114,45.6409703 C13.1685602,47.1057748 12.2081291,49.0720704 12.0300135,51.2596616 L14.0395304,51.2600462 C14.3889996,51.2600462 14.6723004,51.5356748 14.6723004,51.87568 C14.6723004,52.1847755 14.4381675,52.4406674 14.1330365,52.4846386 L14.0395304,52.4913137 L12.0132128,52.4918734 C12.1342866,54.7397953 13.080246,56.7684849 14.5537621,58.2806132 L16.0340951,56.6363779 C16.2679357,56.3766716 16.6623329,56.3505697 16.9150059,56.5780775 C17.1424117,56.7828345 17.1775183,57.1232319 17.0117958,57.3785897 L16.9491052,57.4602566 L15.4708505,59.1018208 C16.8450334,60.1732266 18.5382737,60.8545172 20.3841378,60.9792593 L20.3843667,58.83615 C20.3843667,58.4866808 20.6599953,58.20338 21.0000004,58.20338 C21.309096,58.20338 21.5649878,58.4375129 21.6089591,58.7426439 L21.6156342,58.83615 L21.6158622,60.9792593 C23.4615095,60.8545319 25.1545688,60.1733867 26.5286652,59.1021984 L25.0508957,57.4602566 C24.8170551,57.2005504 24.8323219,56.8055853 25.0849949,56.5780775 C25.3124007,56.3733204 25.654603,56.3739873 25.8912391,56.5654941 L25.9659057,56.6363779 L27.4462379,58.2806132 C28.919754,56.7684849 29.8657134,54.7397953 29.9867872,52.4918734 L27.9604705,52.4913137 C27.6110012,52.4913137 27.3277005,52.2156851 27.3277005,51.87568 C27.3277005,51.5665844 27.5618333,51.3106926 27.8669644,51.2667213 L27.9604705,51.2600462 L29.9699865,51.2596616 C29.7918309,49.0715793 28.8310085,47.1048919 27.3679034,45.6399837 L25.9176251,47.1349077 C25.674218,47.3856506 25.2795254,47.3965076 25.0360546,47.1591574 C24.819636,46.9481795 24.7955487,46.6121033 24.9638203,46.3639195 L25.0359391,46.2753866 L26.440273,44.8297674 C25.0822489,43.7977991 23.4221285,43.1428068 21.6158622,43.0207407 Z M48.6448458,56 C49.1971306,56 49.6448458,56.4477153 49.6448458,57 C49.6448458,57.5522847 49.1971306,58 48.6448458,58 L35.6448458,58 C35.0925611,58 34.6448458,57.5522847 34.6448458,57 C34.6448458,56.4477153 35.0925611,56 35.6448458,56 L48.6448458,56 Z M53.6448458,51 C54.1971306,51 54.6448458,51.4477153 54.6448458,52 C54.6448458,52.5522847 54.1971306,53 53.6448458,53 L35.6448458,53 C35.0925611,53 34.6448458,52.5522847 34.6448458,52 C34.6448458,51.4477153 35.0925611,51 35.6448458,51 L53.6448458,51 Z M21.0000004,48.0790599 C21.309096,48.0790599 21.5649878,48.3131928 21.6089591,48.6183238 L21.6156342,48.7118299 L21.615678,50.1467027 C21.9836805,50.365527 22.2312679,50.7745001 22.2312679,51.2429099 C22.2312679,51.9418484 21.6800107,52.50845 21.0000004,52.50845 C20.3199902,52.50845 19.768733,51.9418484 19.768733,51.2429099 C19.768733,50.7748096 20.0159932,50.3660675 20.3835934,50.1471368 L20.3843667,48.7118299 C20.3843667,48.3623607 20.6599953,48.0790599 21.0000004,48.0790599 Z M64.4040978,36 L61.6448458,36 L61.6448458,51.019 L64.4040978,36 Z M60.4022859,20.0004998 L30.6448458,20 C29.047165,20 27.741185,21.24892 27.6499385,22.8237272 L27.6448458,23 L27.643846,33 L31.6448458,33 C31.8658596,33 32.0793299,33.0731645 32.2528754,33.2060806 L32.3519526,33.2928932 L37.0590594,38 L56.6448458,38 C57.0929484,38 57.4808459,38.2969651 57.6042849,38.7178668 L57.6312398,38.835601 L59.643846,49.907 L59.6448458,22.5 C59.6448458,21.5751422 59.9238516,20.7154497 60.4022859,20.0004998 Z M53.6448458,46 C54.1971306,46 54.6448458,46.4477153 54.6448458,47 C54.6448458,47.5522847 54.1971306,48 53.6448458,48 L35.6448458,48 C35.0925611,48 34.6448458,47.5522847 34.6448458,47 C34.6448458,46.4477153 35.0925611,46 35.6448458,46 L53.6448458,46 Z M22.544846,37.7 L19.544846,37.7 C19.1030182,37.7 18.744846,38.0581722 18.744846,38.5 C18.744846,38.9418278 19.1030182,39.3 19.544846,39.3 L22.544846,39.3 C22.9866738,39.3 23.344846,38.9418278 23.344846,38.5 C23.344846,38.0581722 22.9866738,37.7 22.544846,37.7 Z M64.1448458,20 C62.8193624,20 61.7348072,21.0315359 61.6501635,22.3356243 L61.6448458,22.5 L61.6448458,26 L66.6448458,26 L66.6448458,22.5 C66.6448458,21.1192881 65.5255577,20 64.1448458,20 Z" id="形状结合" fill="#737EB1" fill-rule="nonzero"></path>
            </g>
        </g>
    </g>
</svg>