<?xml version="1.0" encoding="UTF-8"?>
<svg width="180px" height="180px" viewBox="0 0 180 180" version="1.1" xmlns="http://www.w3.org/2000/svg" xmlns:xlink="http://www.w3.org/1999/xlink">
    <!-- Generator: Sketch 59.1 (86144) - https://sketch.com -->
    <title>位图</title>
    <desc>Created with Sketch.</desc>
    <defs>
        <polygon id="path-1" points="0.338248695 0.0387849692 10.632788 0.0387849692 10.632788 10.2786479 0.338248695 10.2786479"></polygon>
        <polygon id="path-3" points="0 0.0387849692 10.2489963 0.0387849692 10.2489963 10.2786479 0 10.2786479"></polygon>
    </defs>
    <g id="页面-1" stroke="none" stroke-width="1" fill="none" fill-rule="evenodd">
        <g id="傲创首页备份-2" transform="translate(-1160.000000, -1386.000000)">
            <g id="编组-6" transform="translate(100.000000, 1355.000000)">
                <g id="编组-5">
                    <g id="编组-4">
                        <g id="编组-3备份-2" transform="translate(1060.000000, 27.000000)">
                            <g id="Group" transform="translate(0.000000, 4.000000)">
                                <rect id="Rectangle-Copy-87" fill="#416BA9" x="9" y="9" width="162" height="162" rx="81"></rect>
                                <g id="分组" transform="translate(60.300000, 36.900000)">
                                    <path d="M37.0245638,82.7573859 C37.0245638,83.7242504 36.2281231,84.5112676 35.2496818,84.5112676 L24.9019694,84.5112676 C23.9235281,84.5112676 23.1270874,83.7242504 23.1270874,82.7573859 L23.1270874,79.3142784 C23.1270874,72.0312105 20.0308208,64.8863722 14.630968,59.7101918 C10.0147707,55.2853565 7.57205172,49.0954919 7.92928433,42.7302392 C8.52191441,32.1831678 16.9518518,23.3580217 27.538722,22.2016489 C28.3825431,22.1094958 29.236141,22.0626761 30.0762016,22.0626761 C42.3063419,22.0626761 52.256962,31.8955609 52.256962,43.9817378 C52.256962,50.0348591 49.813491,55.6703186 45.3770381,59.8476783 C40.0689376,64.8440115 37.0245638,71.9405437 37.0245638,79.3172511 L37.0245638,82.7573859 Z" id="Fill-1" fill="#FEC309"></path>
                                    <path d="M36.3911072,80.9125944 C36.3911072,81.8189464 35.6457692,82.5567071 34.7301084,82.5567071 L25.0463452,82.5567071 C24.1306844,82.5567071 23.3853465,81.8189464 23.3853465,80.9125944 L23.3853465,77.6849781 C23.3853465,70.8577302 20.4870445,64.1600607 15.433667,59.3078381 C11.1136627,55.1599367 8.82838188,49.3574727 9.16269306,43.3905974 C9.71729771,33.5036278 17.605634,25.2308147 27.5132098,24.1468149 C28.3035918,24.0604293 29.1024196,24.0165399 29.8878749,24.0165399 C41.333986,24.0165399 50.646136,33.2340212 50.646136,44.5637694 C50.646136,50.2380483 48.3594475,55.5208055 44.2076545,59.4367199 C39.2401422,64.1203512 36.3911072,70.772738 36.3911072,77.6877647 L36.3911072,80.9125944 Z M41.0095282,80.9125944 L41.0095282,77.6877647 C41.0095282,72.0176657 43.3370378,66.5725872 47.393816,62.7465418 C52.4697155,57.9584117 55.264557,51.5010892 55.264557,44.5637694 C55.264557,30.7128161 43.8810853,19.4450704 29.8878749,19.4450704 C28.9335045,19.4450704 27.9636501,19.4980164 27.0064644,19.6025151 C14.8818776,20.9289518 5.22837831,31.0465152 4.55060637,43.1363172 C4.14239482,50.4282359 6.93653249,57.5181239 12.2179454,62.5890971 C16.3802955,66.5858237 18.7662216,72.0873315 18.7662216,77.6849781 L18.7662216,80.9125944 C18.7662216,84.3401515 21.5828813,87.1288732 25.0463452,87.1288732 L34.7301084,87.1288732 C38.1928685,87.1288732 41.0095282,84.3401515 41.0095282,80.9125944 L41.0095282,80.9125944 Z" id="Fill-3" fill="#FEFEFE"></path>
                                    <path d="M37.3736444,90.1204225 L22.4023049,90.1204225 C21.4496853,90.1204225 20.6772152,90.8739319 20.6772152,91.803169 C20.6772152,92.7324061 21.4496853,93.4859155 22.4023049,93.4859155 L37.3736444,93.4859155 C38.3262641,93.4859155 39.0987342,92.7324061 39.0987342,91.803169 C39.0987342,90.8739319 38.3262641,90.1204225 37.3736444,90.1204225" id="Fill-5" fill="#FEFEFE"></path>
                                    <path d="M39.0987342,98.1602113 C39.0987342,97.2309742 38.3262641,96.4774648 37.3736444,96.4774648 L22.4023049,96.4774648 C21.4496853,96.4774648 20.6772152,97.2309742 20.6772152,98.1602113 C20.6772152,99.0894484 21.4496853,99.8429577 22.4023049,99.8429577 L37.3736444,99.8429577 C38.3262641,99.8429577 39.0987342,99.0894484 39.0987342,98.1602113" id="Fill-7" fill="#FEFEFE"></path>
                                    <path d="M35.3392405,104.517254 C35.3392405,103.588016 34.5690745,102.834507 33.6192963,102.834507 L26.1566531,102.834507 C25.206176,102.834507 24.4367089,103.588016 24.4367089,104.517254 C24.4367089,105.446491 25.206176,106.2 26.1566531,106.2 L33.6192963,106.2 C34.5690745,106.2 35.3392405,105.446491 35.3392405,104.517254" id="Fill-9" fill="#FEFEFE"></path>
                                    <path d="M28.856626,34.4566072 L27.1226732,43.1519173 C27.1002906,43.2397205 27.0897987,43.3588821 27.0897987,43.5121894 C27.0897987,43.8404063 27.1933183,44.1031192 27.4003575,44.2996313 C27.6073966,44.4968402 27.9081629,44.5950962 28.300558,44.5950962 L31.4418174,44.5950962 C32.2489903,44.5950962 32.6532762,44.2459737 32.6532762,43.5449414 C32.6532762,43.3700317 32.6420849,43.2397205 32.6204017,43.1519173 L30.8207,34.4566072 C30.6458359,33.6691653 30.3177907,33.2754443 29.838663,33.2754443 C29.3581363,33.2754443 29.0314901,33.6691653 28.856626,34.4566072 M34.5837762,52.6667244 L33.7661115,48.7288179 C33.5905479,47.9420729 33.1219121,47.547655 32.358805,47.547655 L27.416445,47.547655 C26.6533379,47.547655 26.1840025,47.9420729 26.0098378,48.7288179 L25.1914737,52.6667244 C25.0166095,53.4541664 24.5479736,53.8478873 23.7848665,53.8478873 L23.391772,53.8478873 C22.9986774,53.8478873 22.6986105,53.7496313 22.4915714,53.5524224 C22.2845322,53.3559103 22.1810127,53.0938943 22.1810127,52.7656773 C22.1810127,52.61237 22.1915045,52.4925116 22.2131877,52.4040115 L26.3693585,31.4705995 C26.5442226,30.6831576 27.0128585,30.2894366 27.7773645,30.2894366 L31.9006609,30.2894366 C32.663768,30.2894366 33.1324039,30.6831576 33.307268,31.4705995 L37.5620623,52.4040115 C37.5830459,52.4925116 37.5949367,52.6228228 37.5949367,52.7984293 C37.5949367,53.498068 37.1906508,53.8478873 36.3841774,53.8478873 L35.9910828,53.8478873 C35.2272763,53.8478873 34.7586404,53.4541664 34.5837762,52.6667244" id="Fill-11" fill="#FEFEFE"></path>
                                    <g transform="translate(48.497468, 5.609155)">
                                        <mask id="mask-2" fill="white">
                                            <use xlink:href="#path-1"></use>
                                        </mask>
                                        <g id="Clip-14"></g>
                                        <path d="M3.29937864,9.77329806 L10.1249744,2.98411717 C10.8023881,2.31031743 10.8023881,1.21863565 10.1249744,0.544134771 C9.4468557,-0.129664965 8.34931851,-0.129664965 7.67190475,0.544134771 L0.846309019,7.33331567 C0.168895253,8.0071154 0.168895253,9.09949833 0.846309019,9.77329806 C1.52372278,10.4470978 2.62196487,10.4470978 3.29937864,9.77329806" id="Fill-13" fill="#FEC309" mask="url(#mask-2)"></path>
                                    </g>
                                    <g transform="translate(0.000000, 5.609155)">
                                        <mask id="mask-4" fill="white">
                                            <use xlink:href="#path-3"></use>
                                        </mask>
                                        <g id="Clip-16"></g>
                                        <path d="M7.30102694,9.77329806 L0.505767192,2.98411717 C-0.168635846,2.31031743 -0.168635846,1.21863565 0.505767192,0.544134771 C1.18017023,-0.129664965 2.27353124,-0.129664965 2.94793428,0.544134771 L9.74319403,7.33331567 C10.4175971,8.0071154 10.4175971,9.09949833 9.74319403,9.77329806 C9.06879099,10.4470978 7.97542998,10.4470978 7.30102694,9.77329806" id="Fill-15" fill="#FEC309" mask="url(#mask-4)"></path>
                                    </g>
                                    <path d="M31.5797468,11.3583328 L31.5797468,1.73039848 C31.5797468,0.77414414 30.8221959,0 29.8879747,0 C28.9537535,0 28.1962025,0.77414414 28.1962025,1.73039848 L28.1962025,11.3583328 C28.1962025,12.313884 28.9537535,13.0880282 29.8879747,13.0880282 C30.8221959,13.0880282 31.5797468,12.313884 31.5797468,11.3583328" id="Fill-17" fill="#FEC309"></path>
                                </g>
                            </g>
                        </g>
                    </g>
                </g>
            </g>
        </g>
    </g>
</svg>