<?xml version="1.0" encoding="UTF-8"?>
<svg width="80px" height="80px" viewBox="0 0 80 80" version="1.1" xmlns="http://www.w3.org/2000/svg" xmlns:xlink="http://www.w3.org/1999/xlink">
    <!-- Generator: Sketch 59.1 (86144) - https://sketch.com -->
    <title>编组 5</title>
    <desc>Created with Sketch.</desc>
    <g id="页面-1" stroke="none" stroke-width="1" fill="none" fill-rule="evenodd">
        <g id="画板" transform="translate(-834.000000, -341.000000)">
            <g id="编组-7" transform="translate(741.000000, 341.000000)">
                <rect id="矩形备份-35" fill="#D8D8D8" opacity="0.00913783482" x="93" y="0" width="80" height="80"></rect>
                <path d="M143.881771,63.9997644 C143.299956,65.4291958 142.685828,67.0796815 142,69 C137.466133,81.6948276 125.532124,76.3004192 123.346395,64.0005281 Z M146,42 L152.105634,54.2114932 C148.841574,55.6708762 147.015488,57.3684077 145.16046,61.1207806 L145,61 L146,59 L146,42 Z M103.999364,37.2579687 L103.999769,55.5585033 C103.341496,55.4285283 102.674431,55.2454929 102,55 C90.4130131,50.7823348 93.7331878,41.1088326 99,39 C100.487181,38.4045323 102.214686,37.8175371 103.999364,37.2579687 Z M158.251741,33.6004784 C163.84706,33.5208408 167.763146,34.3206814 170,36 C174.035748,39.0298391 173.523707,46.2614925 162.365804,50.5723081 L159,43 L160,42 L166,46 L168,40 L167,39 L164,40 L161,39 L160,35 Z M127,9 C133.215645,1.78103813 139,8 141,15 C141.272155,15.9525428 141.664147,16.9722219 142.175975,18.0590372 L137,20 L136,19 L136,16 L127,12 L124.541971,12.6694635 C125.281622,11.2994705 126.095267,10.0507728 127,9 Z" id="形状结合" fill="#F3F6FC"></path>
                <g id="编组-4" transform="translate(108.000000, 6.000000)" fill="#737EB1" fill-rule="nonzero">
                    <path d="M1.50100778,8.18816582 C1.20639032,7.69558574 1.58026876,7.07355988 2.15349694,7.1026121 L21.392941,8.07770101 C21.8417922,8.10044959 22.2541013,8.33204281 22.5070782,8.70350972 L28.4762522,17.4685431 C28.8044359,17.9504424 28.4517248,18.601883 27.8688,18.5904785 L8.27991136,18.2072392 C7.78491863,18.1975551 7.32983019,17.9335548 7.07570026,17.5086671 L1.50100778,8.18816582 Z M8.30799805,16.7716165 L26.5068523,17.127661 L21.3202604,9.51175784 L3.42328154,8.60470742 L8.30799805,16.7716165 Z" id="矩形" transform="translate(15.000006, 12.846129) rotate(-33.000000) translate(-15.000006, -12.846129) "></path>
                    <path d="M27.4976787,20.3864974 L7.90879009,20.003258 L2.33409761,10.6827567 C2.1305667,10.3424671 1.68971305,10.2316023 1.34942341,10.4351332 C1.00913377,10.6386641 0.898268917,11.0795177 1.10179982,11.4198074 L6.6764923,20.7403087 C6.93062223,21.1651964 7.38571067,21.4291967 7.8807034,21.4388808 L27.469592,21.8221201 C27.8660283,21.829876 28.1936908,21.5147883 28.2015869,21.1183521 C28.2092026,20.7219158 27.894115,20.3942533 27.4976787,20.3864974 Z" id="路径" transform="translate(14.600739, 16.077742) rotate(-33.000000) translate(-14.600739, -16.077742) "></path>
                    <path d="M0.414065512,21.4344305 C0.588605539,21.0784001 1.01871785,20.9312731 1.37474825,21.1058131 L1.37474825,21.1058131 L7.27860531,23.9995924 L4.01560531,23.9995924 L0.742682905,22.3951132 C0.419018904,22.2364405 0.268002326,21.866551 0.374354181,21.5331188 Z M27.763739,15.5389862 C28.1004426,15.3295762 28.5431552,15.4327681 28.7526827,15.7693954 C28.9619752,16.1061753 28.8587833,16.5488879 28.5220797,16.7582979 L28.5220797,16.7582979 L16.8786053,23.9995924 L14.1586053,23.9995924 Z" id="形状结合"></path>
                    <path d="M3.87179487,17.1538462 C5.23616404,17.1538462 6.38461538,16.3882119 6.38461538,15.3589744 C6.38461538,14.3297368 5.23616404,13.5641026 3.87179487,13.5641026 L3.87179487,14.2820513 C4.88649847,14.2820513 5.66666667,14.8021634 5.66666667,15.3589744 C5.66666667,15.9157853 4.88649847,16.4358974 3.87179487,16.4358974 L3.87179487,17.1538462 Z" id="路径"></path>
                    <path d="M14.2820513,19.6666667 C14.2820513,18.6374291 13.1335999,17.8717949 11.7692308,17.8717949 C10.4048616,17.8717949 9.25641026,18.6374291 9.25641026,19.6666667 L9.97435897,19.6666667 C9.97435897,19.1098557 10.7545272,18.5897436 11.7692308,18.5897436 C12.7839344,18.5897436 13.5641026,19.1098557 13.5641026,19.6666667 L14.2820513,19.6666667 Z" id="路径"></path>
                    <path d="M26.1282051,8.53846154 C24.763836,8.53846154 23.6153846,9.30409577 23.6153846,10.3333333 C23.6153846,11.3625709 24.763836,12.1282051 26.1282051,12.1282051 L26.1282051,11.4102564 C25.1135015,11.4102564 24.3333333,10.8901443 24.3333333,10.3333333 C24.3333333,9.77652239 25.1135015,9.25641026 26.1282051,9.25641026 L26.1282051,8.53846154 Z" id="路径"></path>
                    <path d="M15.7179487,6.74358974 C15.7179487,7.77282731 16.8664001,8.53846154 18.2307692,8.53846154 C19.5951384,8.53846154 20.7435897,7.77282731 20.7435897,6.74358974 L20.025641,6.74358974 C20.025641,7.30040069 19.2454728,7.82051282 18.2307692,7.82051282 C17.2160656,7.82051282 16.4358974,7.30040069 16.4358974,6.74358974 L15.7179487,6.74358974 Z" id="路径"></path>
                    <path d="M14.5194682,15.5048224 C13.9471323,15.444601 13.5090234,15.1460075 13.2051282,14.6090332 L13.6989554,14.1423195 C13.9471364,14.6190724 14.251027,14.8574453 14.6106363,14.8574453 C15.0867387,14.8574453 15.3247863,14.6115448 15.3247863,14.1197365 C15.3247863,14.0093306 15.3019945,13.9114722 15.2564103,13.8261586 C15.210826,13.7408449 15.1221912,13.6668238 14.9905033,13.6040932 L14.337132,13.2992237 L14.337132,13.2992237 C13.7546663,13.0282273 13.4634378,12.6593766 13.4634378,12.1926606 C13.4634378,11.8514058 13.5571374,11.5653583 13.7445394,11.3345095 C13.9319414,11.1036607 14.1902484,10.9581278 14.5194682,10.8979064 L14.5194682,10.3333333 L14.9677113,10.3333333 L14.9677113,10.905434 C15.362775,10.9455816 15.6843926,11.1187156 15.9325736,11.4248412 L15.5982906,11.9066102 C15.385564,11.6456507 15.1348542,11.5151729 14.8461538,11.5151729 C14.6638168,11.5151729 14.5118715,11.570375 14.3903134,11.680781 C14.2687553,11.7911869 14.2079772,11.9342107 14.2079772,12.1098565 C14.2079772,12.3306684 14.3700522,12.5138392 14.694207,12.6593743 C15.3273219,12.945426 15.7160487,13.1837989 15.8603989,13.3745001 C16.0047491,13.5652013 16.0769231,13.7910283 16.0769231,14.0519878 C16.0769231,14.4133163 15.9806911,14.7232011 15.7882241,14.9816514 C15.5957572,15.2401017 15.3222557,15.4044535 14.9677113,15.4747118 L14.9677113,16.0769231 L14.5194682,16.0769231 L14.5194682,15.5048224 Z" id="$" transform="translate(14.641026, 13.205128) rotate(-55.000000) translate(-14.641026, -13.205128) "></path>
                </g>
                <path d="M140.5,29 L141.5,31 L105,31 L105,58 C105,60.7614237 107.238576,63 110,63 L140,63 C142.761424,63 145,60.7614237 145,58 L145,38 L147,42 L147,58 C147,61.8659932 143.865993,65 140,65 L110,65 C106.134007,65 103,61.8659932 103,58 L103,31 C103,29.8954305 103.895431,29 105,29 L140.5,29 Z" id="形状结合" fill="#737EB1" fill-rule="nonzero"></path>
                <path d="M104,21 C104.276142,21 104.5,21.2238576 104.5,21.5 L104.5,22.499 L105.5,22.5 C105.776142,22.5 106,22.7238576 106,23 C106,23.2761424 105.776142,23.5 105.5,23.5 L104.5,23.5 L104.5,24.5 C104.5,24.7761424 104.276142,25 104,25 C103.723858,25 103.5,24.7761424 103.5,24.5 L103.5,23.5 L102.5,23.5 C102.223858,23.5 102,23.2761424 102,23 C102,22.7238576 102.223858,22.5 102.5,22.5 L103.5,22.5 L103.5,21.5 C103.5,21.2238576 103.723858,21 104,21 Z" id="形状结合备份-6" fill="#737EB1" transform="translate(104.000000, 23.000000) rotate(-15.000000) translate(-104.000000, -23.000000) "></path>
                <path d="M97,56 C97.2761424,56 97.5,56.2238576 97.5,56.5 L97.5,57.499 L98.5,57.5 C98.7761424,57.5 99,57.7238576 99,58 C99,58.2761424 98.7761424,58.5 98.5,58.5 L97.5,58.5 L97.5,59.5 C97.5,59.7761424 97.2761424,60 97,60 C96.7238576,60 96.5,59.7761424 96.5,59.5 L96.5,58.5 L95.5,58.5 C95.2238576,58.5 95,58.2761424 95,58 C95,57.7238576 95.2238576,57.5 95.5,57.5 L96.5,57.5 L96.5,56.5 C96.5,56.2238576 96.7238576,56 97,56 Z" id="形状结合备份-7" fill="#E9EFFD" transform="translate(97.000000, 58.000000) rotate(-15.000000) translate(-97.000000, -58.000000) "></path>
                <path d="M150,68 C150.276142,68 150.5,68.2238576 150.5,68.5 L150.5,69.499 L151.5,69.5 C151.776142,69.5 152,69.7238576 152,70 C152,70.2761424 151.776142,70.5 151.5,70.5 L150.5,70.5 L150.5,71.5 C150.5,71.7761424 150.276142,72 150,72 C149.723858,72 149.5,71.7761424 149.5,71.5 L149.5,70.5 L148.5,70.5 C148.223858,70.5 148,70.2761424 148,70 C148,69.7238576 148.223858,69.5 148.5,69.5 L149.5,69.5 L149.5,68.5 C149.5,68.2238576 149.723858,68 150,68 Z" id="形状结合备份-8" fill="#737EB1" transform="translate(150.000000, 70.000000) rotate(-15.000000) translate(-150.000000, -70.000000) "></path>
                <path d="M154,15 C154.276142,15 154.5,15.2238576 154.5,15.5 L154.5,16.499 L155.5,16.5 C155.776142,16.5 156,16.7238576 156,17 C156,17.2761424 155.776142,17.5 155.5,17.5 L154.5,17.5 L154.5,18.5 C154.5,18.7761424 154.276142,19 154,19 C153.723858,19 153.5,18.7761424 153.5,18.5 L153.5,17.5 L152.5,17.5 C152.223858,17.5 152,17.2761424 152,17 C152,16.7238576 152.223858,16.5 152.5,16.5 L153.5,16.5 L153.5,15.5 C153.5,15.2238576 153.723858,15 154,15 Z" id="形状结合备份-9" fill="#E9EFFD" transform="translate(154.000000, 17.000000) rotate(-15.000000) translate(-154.000000, -17.000000) "></path>
                <path d="M134,65 L116,65 L116,29 L134,29 L134,65 Z M132,31 L118,31 L118,63 L132,63 L132,31 Z" id="矩形" fill="#737EB1" fill-rule="nonzero"></path>
                <rect id="矩形" fill="#737EB1" x="121" y="50" width="8" height="2" rx="1"></rect>
                <rect id="矩形备份-33" fill="#737EB1" x="121" y="43" width="8" height="2" rx="1"></rect>
                <path d="M146.748599,17.5963041 L154.83364,34.172719 C154.174526,34.373327 153.587554,34.7395309 153.12118,35.2228744 L144.951011,18.4730464 C144.708905,17.9766561 144.110236,17.7705178 143.613846,18.0126235 L138.221081,20.6428504 C137.724691,20.8849561 137.518553,21.4836253 137.760659,21.9800156 L157.048989,61.5269536 C157.291095,62.0233439 157.889764,62.2294822 158.386154,61.9873765 L163.778919,59.3571496 C164.275309,59.1150439 164.481447,58.5163747 164.239341,58.0199844 L156.415808,41.9786488 C157.111457,41.9067993 157.754204,41.656669 158.297583,41.274724 L166.03693,57.1432421 C166.763247,58.6324129 166.144832,60.4284206 164.655661,61.1547377 L159.262897,63.7849646 C157.773726,64.5112817 155.977718,63.8928666 155.251401,62.4036959 L135.96307,22.8567579 C135.236753,21.3675871 135.855168,19.5715794 137.344339,18.8452623 L142.737103,16.2150354 C144.226274,15.4887183 146.022282,16.1071334 146.748599,17.5963041 Z" id="形状结合" fill="#737EB1" fill-rule="nonzero"></path>
                <path d="M151.570682,27.4830386 L154.83364,34.172719 C154.174065,34.3734674 153.586732,34.7400436 153.120201,35.2238893 L150.649836,30.157369 L143.459483,33.6643382 L151.350164,49.842631 L158.540517,46.3356618 L156.415906,41.9786386 C157.111517,41.9067758 157.754229,41.6566511 158.297583,41.274724 L161.214847,47.2565076 L150.429318,52.5169614 L140.785153,32.7434924 L151.570682,27.4830386 Z" id="形状结合" fill="#737EB1" fill-rule="nonzero"></path>
                <path d="M168.903039,36.3283098 L168.989026,38.4405992 C168.996408,38.6219415 169,38.8084816 169,39 C169,41.7695757 168.247324,44.4311115 166.844682,46.7509001 L166.380344,47.5188538 L165.566806,47.1400169 C162.749331,45.8280154 160.325356,43.9048962 158.434834,41.5626784 C159.047764,41.2713633 159.583013,40.8454924 160.004064,40.3236375 C161.515144,42.1901945 163.403016,43.7606043 165.58036,44.9138811 C166.304607,43.4990656 166.763623,41.9603224 166.929844,40.3591238 C166.024851,40.7765364 165.029334,41 164,41 C162.635046,41 161.361339,40.6093268 160.284596,39.9336979 C160.65631,39.3582191 160.899074,38.6938426 160.974744,37.9795994 C161.813017,38.6198993 162.86212,39 164,39 C165.244089,39 166.41483,38.5452366 167.324621,37.7346374 L168.903039,36.3283098 Z M154.604982,23.984836 L155.506046,24.0747393 C158.436036,24.3670775 161.180023,25.5103888 163.439402,27.3418888 L165.090273,28.6801205 L163.006837,29.0990902 C160.769747,29.548959 159.114117,31.4732364 159.005661,33.7607782 C158.437955,33.3803302 157.77872,33.1249951 157.067855,33.0354863 C157.374858,30.8044202 158.739637,28.8846868 160.671708,27.8399285 C159.43246,27.0972894 158.07493,26.5649892 156.648202,26.2697851 L156.218156,26.1883635 L156.139846,26.7444538 C156.046917,27.4882243 156,28.241024 156,29 C156,30.3683692 156.154067,31.7087925 156.448224,33.0020925 L156.5,33 C155.782698,33 155.104595,33.1678289 154.502816,33.4663615 C154.172787,32.0233949 154,30.5273508 154,29 C154,27.8909001 154.090374,26.7928093 154.271217,25.6999628 L154.365873,25.1734997 L154.604982,23.984836 Z" id="形状结合" fill="#737EB1" fill-rule="nonzero"></path>
                <path d="M156,32 C159.313708,32 162,34.6862915 162,38 C162,41.3137085 159.313708,44 156,44 C152.686292,44 150,41.3137085 150,38 C150,34.6862915 152.686292,32 156,32 Z M156,34 C153.790861,34 152,35.790861 152,38 C152,40.209139 153.790861,42 156,42 C158.209139,42 160,40.209139 160,38 C160,35.790861 158.209139,34 156,34 Z" id="椭圆形" fill="#737EB1" fill-rule="nonzero"></path>
                <rect id="矩形" fill="#737EB1" x="99" y="63" width="64" height="2" rx="1"></rect>
                <rect id="矩形备份-32" fill="#737EB1" x="165" y="63" width="3" height="2" rx="1"></rect>
            </g>
        </g>
    </g>
</svg>