<?xml version="1.0" encoding="UTF-8"?>
<svg width="16px" height="14px" viewBox="0 0 16 14" version="1.1" xmlns="http://www.w3.org/2000/svg" xmlns:xlink="http://www.w3.org/1999/xlink">
    <!-- Generator: Sketch 61.2 (89653) - https://sketch.com -->
    <title>形状结合</title>
    <desc>Created with Sketch.</desc>
    <g id="页面-1" stroke="none" stroke-width="1" fill="none" fill-rule="evenodd">
        <g id="傲创官网-英文" transform="translate(-247.000000, -3081.000000)" fill="#FFFFFF" fill-rule="nonzero">
            <g id="编组-8" transform="translate(0.000000, 2070.000000)">
                <g id="v2-1备份" transform="translate(240.000000, 307.000000)">
                    <g id="上一页1" transform="translate(7.000000, 704.000000)">
                        <path d="M6.64644661,0.98959236 C6.84170876,0.794330214 7.15829124,0.794330214 7.35355339,0.98959236 C7.54881554,1.18485451 7.54881554,1.501437 7.35355339,1.69669914 L7.35355339,1.69669914 L2.55014575,6.49914575 L15,6.5 C15.2454599,6.5 15.4496084,6.67687516 15.4919443,6.91012437 L15.5,7 C15.5,7.27614237 15.2761424,7.5 15,7.5 L15,7.5 L2.55014575,7.49914575 L7.35355339,12.3033009 C7.52711974,12.4768672 7.54640489,12.7462916 7.41140884,12.9411598 L7.35355339,13.0104076 C7.15829124,13.2056698 6.84170876,13.2056698 6.64644661,13.0104076 L6.64644661,13.0104076 L0.98959236,7.35355339 C0.794330214,7.15829124 0.794330214,6.84170876 0.98959236,6.64644661 L0.98959236,6.64644661 Z" id="形状结合"></path>
                    </g>
                </g>
            </g>
        </g>
    </g>
</svg>