<?xml version="1.0" encoding="UTF-8"?>
<svg width="167px" height="32px" viewBox="0 0 167 32" version="1.1" xmlns="http://www.w3.org/2000/svg" xmlns:xlink="http://www.w3.org/1999/xlink">
    <!-- Generator: Sketch 61.2 (89653) - https://sketch.com -->
    <title>编组 4备份</title>
    <desc>Created with Sketch.</desc>
    <g id="页面-1" stroke="none" stroke-width="1" fill="none" fill-rule="evenodd">
        <g id="傲创官网-移动端" transform="translate(-55.000000, -138.000000)">
            <g id="编组-4备份" transform="translate(55.000000, 138.000000)">
                <g id="编组">
                    <g id="傲创科技logo" fill="#FFFFFF" fill-rule="nonzero">
                        <path d="M37.8666667,0 L37.8666667,21.3333333 C35.5119314,21.888624 33.1285181,22.2848873 30.6666667,22.6666667 L30.6666667,22.6666667 L30.6666667,11.2 L13.3333333,32 L4,32 L30.6666667,0 L37.8666667,0 Z M37.8666667,29.3333333 L37.8666667,32 L30.6666667,32 L30.6666667,30.4 C33.0821561,30.0844606 35.4853923,29.7683035 37.8666667,29.3333333 L37.8666667,29.3333333 Z M39.2,9.6 C47.1315995,11.5123813 52.2673203,15.4409366 52.2666667,18.9333333 C52.2666667,22.7057798 46.9485778,25.7877756 38.9333333,27.4666667 C36.1084614,28.1360863 33.0036283,28.5752594 29.6,28.8 C27.4168896,29.0001609 25.0447971,29.0793029 22.6666667,29.0666667 C21.8647943,29.0650314 21.5294724,29.0507599 20.8,29.0666667 L20.8,29.0666667 L25.0666667,24 C26.6606176,23.8903145 28.1999612,23.7806834 29.6,23.7333333 C33.1127877,23.3038855 36.2398449,22.7855705 38.9333333,22.1333333 C44.2209002,20.8128597 47.6166071,18.9264266 47.7333333,16.8 C47.6166071,14.7708247 44.4215704,12.8798507 39.2,11.4666667 L39.2,11.4666667 Z M22.1333333,7.73333333 L20.5333333,9.6 C12.2797198,9.59117125 4.87175683,10.635267 0,12.2666667 C4.86133318,9.61662108 12.9331528,7.85144667 22.1333333,7.73333333 L22.1333333,7.73333333 Z" id="形状结合"></path>
                    </g>
                    <g id="技" transform="translate(139.200000, 6.400000)" fill="#FFFFFF">
                        <path d="M24,0 L23.543,3.2 L27.7803333,3.2 L27.4563333,5.333 L23.238,5.333 L22.857,8 L27.2,8 L26.6666667,11.0666667 L21.442,14.564 L25.6,20.1333333 L24.8,24.6666667 L18.522,16.52 L11.7333333,21.0666667 L12.2666667,16.4 L16.372,13.731 L13.6,10.1333333 L18.1333333,10.1333333 L19.366,11.785 L22.727,9.6 L13.6,9.6 L13.8419753,8 L18.056,8 L18.437,5.333 L14.1333333,5.33333333 L14.4,3.2 L18.742,3.2 L19.2,0 L24,0 Z M0,21.0666667 L0.16,18.9333333 L2.99,18.933 L3.641,14.645 L3.24634461,14.7196832 C2.77691426,14.798525 2.30306938,14.8493889 1.827318,14.8719554 L0.533333333,14.9333333 L1.06666667,12.4444444 L1.91086927,12.3900548 C2.50506284,12.3517725 3.09558312,12.2693187 3.67753682,12.1433766 L4.033,12.066 L4.732,7.466 L2.13333333,7.46666667 L2.4,5.33333333 L5.056,5.333 L5.86666667,0 L10.6666667,0 L9.856,5.333 L12.5333333,5.33333333 L12.2666667,7.46666667 L9.532,7.466 L8.996,10.992 L11.7333333,10.4 L11.2,13.0666667 L8.599,13.61 L7.46666667,21.0666667 L0,21.0666667 Z" id="形状结合"></path>
                    </g>
                    <g id="傲" transform="translate(54.400000, 6.400000)">
                        <path d="M24.5333333,-2.99020068e-14 L22.1436667,2.133 L26.9333333,2.13333333 L23.0316667,12.659 L26.1333333,21.0666667 L21.9666667,21.0666667 L20.9546667,18.261 L19.9156667,21.0663333 L16.2666667,21.0666667 L19.1396667,13.221 L17.0666667,7.46666667 L20.1333333,4.8 L21.1816667,7.644 L22.8086667,3.2 L20.9486667,3.2 L17.1076667,6.629 L17.6656667,2.537 L20.5333333,-2.99020068e-14 L24.5333333,-2.99020068e-14 Z M-2.88835622e-13,21.0666667 L2.26666667,6.13333333 L7.2,2.13333333 L4.416,20.097 L8.465,10.666 L7.2,10.6666667 L7.46666667,8.53333333 L8.786,8.533 L8.921,7.466 L7.73333333,7.46666667 L8,5.33333333 L9.191,5.333 L9.326,4.266 L8.26666667,4.26666667 L8.53333333,2.13333333 L9.596,2.133 L9.86666667,-2.99020068e-14 L14.4,-2.99020068e-14 L14.076,2.133 L16.8,2.13333333 L16.5333333,4.26666667 L13.752,4.266 L13.59,5.333 L16.5333333,5.33333333 L16.2666667,7.46666667 L13.266,7.466 L13.103,8.533 L16.8,8.53333333 L16.5333333,10.6666667 L12.771,10.666 L12.337,11.733 L16.5333333,11.7333333 L15.0666667,21.0666667 L12.535,21.049 L12.5333333,21.0666667 L9.86666667,21.0666667 L10.1333333,18.9333333 L11.216,18.933 L11.955,13.866 L11.467,13.866 L8.53333333,21.0666667 L-2.88835622e-13,21.0666667 Z M9.15146667,-4.32246831e-14 L1.54053333,6.036 L2.03253333,2.426 L5.15146667,-4.32246831e-14 L9.15146667,-4.32246831e-14 Z" id="形状结合" fill="#FFFFFF"></path>
                        <g id="编组-2" transform="translate(4.000000, 0.000000)"></g>
                    </g>
                    <g id="创" transform="translate(82.133333, 6.400000)" fill="#FFFFFF">
                        <path d="M16.8,5.33333333 L15.2,16 L8,16 L8.26666667,13.8666667 L10.6666667,13.8666667 L11.667,7.466 L6.875,7.466 L5.125,18.933 L14.9333333,18.9333333 L14.6666667,21.0666667 L0,21.0666667 L2.4,5.33333333 L16.8,5.33333333 Z M17.6,0 L17.3333333,2.13333333 L7.623,2.133 L7.2,4.53333333 L2.4,4.53333333 L3.2,0 L17.6,0 Z" id="形状结合"></path>
                        <polygon id="矩形备份-28" points="23.7333333 0 28.5333333 0 24.6666667 24.8 20.5333333 21.3333333"></polygon>
                        <polygon id="矩形备份-16" points="18.9333333 0 22.6666667 0 19.4666667 21.0666667 15.7333333 21.0666667"></polygon>
                    </g>
                    <g id="科" transform="translate(110.666667, 6.400000)" fill="#FFFFFF">
                        <path d="M26.4,0 L24.7656667,11.733 L26.4,11.7333333 L26.1333333,13.8666667 L24.4686667,13.866 L23.4666667,21.0666667 L18.1333333,21.0666667 L19.3176667,13.866 L12.2666667,13.8666667 L12.5333333,11.7333333 L19.6686667,11.733 L21.6,0 L26.4,0 Z M12.8,0.266666667 L12.5333333,2.4 L10.4454246,2.61977986 C10.3149761,2.63351129 10.1842504,2.6442308 10.053352,2.65193291 L9.266,7.73266667 L12.2666667,7.73333333 L12,9.86666667 L8.935,9.86666667 L7.2,21.0666667 L2.4,21.0666667 L4.135,9.86666667 L1.6,9.86666667 L1.86666667,7.73333333 L4.465,7.73266667 L5.25,2.66666667 L2.93333333,2.66666667 L3.2,0.533333333 L9.92738015,0.533333333 C10.2422188,0.533333333 10.5568162,0.515909314 10.8697292,0.481141203 L12.8,0.266666667 Z M3.46666667,11.2 L1.86666667,21.0666667 L0,19.2 L1.33333333,11.2 L3.46666667,11.2 Z M11.4666667,11.2 L9.86666667,21.0666667 L7.73333333,21.0666667 L9.33333333,11.2 L11.4666667,11.2 Z M13.4884562,4.83668905 L14.6235325,5.6170948 C14.9243829,5.82399317 15.2386104,6.01073205 15.5641506,6.17608462 L19.1534104,7.99918774 L18.782961,10.100111 L15.0207794,8.18917517 C14.6376704,7.99458151 14.2703168,7.77041343 13.9220583,7.51870888 L13.1745896,6.97802238 L13.4884562,4.83668905 Z M14.0703229,0.870022382 L15.1568659,1.6170948 C15.4577163,1.82399317 15.7719437,2.01073205 16.0974839,2.17608462 L19.6867438,3.99918774 L19.3162943,6.10011095 L15.5541127,4.18917517 C15.1710037,3.99458151 14.8036501,3.77041343 14.4553916,3.51870888 L13.7559229,3.01322238 L14.0703229,0.870022382 Z" id="形状结合"></path>
                    </g>
                </g>
            </g>
        </g>
    </g>
</svg>