<?xml version="1.0" encoding="UTF-8"?>
<svg width="80px" height="80px" viewBox="0 0 80 80" version="1.1" xmlns="http://www.w3.org/2000/svg" xmlns:xlink="http://www.w3.org/1999/xlink">
    <!-- Generator: Sketch 59.1 (86144) - https://sketch.com -->
    <title>产品设计</title>
    <desc>Created with Sketch.</desc>
    <g id="页面-1" stroke="none" stroke-width="1" fill="none" fill-rule="evenodd">
        <g id="傲创首页备份-2" transform="translate(-910.000000, -1155.000000)">
            <g id="编组-3备份-8" transform="translate(587.000000, 1155.000000)">
                <g id="编组-10备份-2">
                    <path d="M393,6 C395.209139,6 397,7.790861 397,10 C397,11.8639271 395.725107,13.4300871 393.999757,13.8740452 L393.999757,50.1259548 C395.725107,50.5699129 397,52.1360729 397,54 C397,56.209139 395.209139,58 393,58 C392.301174,58 391.644204,57.8207935 391.072539,57.5058291 L380.71464,68.5134071 C380.898727,68.9729793 381,69.4746629 381,70 C381,72.209139 379.209139,74 377,74 C375.136073,74 373.569913,72.7251073 373.125955,70.9997565 L335.874045,70.9997565 C335.430087,72.7251073 333.863927,74 332,74 C329.790861,74 328,72.209139 328,70 C328,68.1367966 329.273903,66.5711292 330.998234,66.1264725 L330.998234,29.8735275 C329.273903,29.4288708 328,27.8632034 328,26 C328,23.790861 329.790861,22 332,22 C332.947438,22 333.817942,22.3293953 334.503237,22.8799124 L344.616047,12.1337776 C344.225838,11.5162435 344,10.7844954 344,10 C344,7.790861 345.790861,6 348,6 C349.863203,6 351.428871,7.2739029 351.873528,8.99823395 L389.126472,8.99823395 C389.571129,7.2739029 391.136797,6 393,6 Z M332,68 C330.895431,68 330,68.8954305 330,70 C330,71.1045695 330.895431,72 332,72 C333.104569,72 334,71.1045695 334,70 C334,68.8954305 333.104569,68 332,68 Z M377,68 C375.895431,68 375,68.8954305 375,70 C375,71.1045695 375.895431,72 377,72 C378.104569,72 379,71.1045695 379,70 C379,68.8954305 378.104569,68 377,68 Z M376,54.9994228 L351.874045,54.9997565 C351.430087,56.7251073 349.863927,58 348,58 C347.301174,58 346.644204,57.8207935 346.072539,57.5058291 L335.714242,68.5124145 C335.777408,68.6699841 335.830837,68.8325069 335.873786,68.9992387 L373.126214,68.9992387 C373.48813,67.5942469 374.594247,66.48813 375.999239,66.1262135 L376,54.9994228 Z M389.125955,54.9997565 L378,54.9994228 L377.999757,66.1259548 C378.556779,66.2692849 379.06685,66.5295814 379.502228,66.8791022 L389.615422,56.1327895 C389.397228,55.7872583 389.230486,55.4059936 389.125955,54.9997565 Z M346.999,26.9994228 L335.874045,26.9997565 C335.512311,28.4055607 334.405561,29.5123111 332.999757,29.8740452 L332.999757,66.1259548 C333.556779,66.2692849 334.06685,66.5295814 334.502228,66.8791022 L344.616047,56.1337776 C344.225838,55.5162435 344,54.7844954 344,54 C344,52.1364348 345.274398,50.570521 346.999239,50.1262135 L346.999,26.9994228 Z M348,52 C346.895431,52 346,52.8954305 346,54 C346,55.1045695 346.895431,56 348,56 C349.104569,56 350,55.1045695 350,54 C350,52.8954305 349.104569,52 348,52 Z M393,52 C391.895431,52 391,52.8954305 391,54 C391,55.1045695 391.895431,56 393,56 C394.104569,56 395,55.1045695 395,54 C395,52.8954305 394.104569,52 393,52 Z M391.072539,13.5058291 L380.714242,24.5124145 C380.898582,24.9722569 381,25.4742847 381,26 C381,27.8639271 379.725107,29.4300871 377.999757,29.8740452 L378,52.9994228 L389.126214,52.9992387 C389.488044,51.5945818 390.59372,50.4886574 391.998234,50.1264725 L391.999239,13.8737865 C391.672283,13.7895648 391.361512,13.6650416 391.072539,13.5058291 Z M373.125955,26.9997565 L349,26.9994228 L348.999757,50.1259548 C350.405226,50.4876027 351.511784,51.593912 351.873786,52.9992387 L376,52.9994228 L375.999239,29.8737865 C374.593912,29.5117837 373.487603,28.4052257 373.125955,26.9997565 Z M361.5,36 C363.985281,36 366,38.0147186 366,40.5 C366,42.9852814 363.985281,45 361.5,45 C359.014719,45 357,42.9852814 357,40.5 C357,38.0147186 359.014719,36 361.5,36 Z M361.5,38 C360.119288,38 359,39.1192881 359,40.5 C359,41.8807119 360.119288,43 361.5,43 C362.880712,43 364,41.8807119 364,40.5 C364,39.1192881 362.880712,38 361.5,38 Z M332,24 C330.895431,24 330,24.8954305 330,26 C330,27.1045695 330.895431,28 332,28 C333.104569,28 334,27.1045695 334,26 C334,24.8954305 333.104569,24 332,24 Z M377,24 C375.895431,24 375,24.8954305 375,26 C375,27.1045695 375.895431,28 377,28 C378.104569,28 379,27.1045695 379,26 C379,24.8954305 378.104569,24 377,24 Z M389.125955,10.9997565 L351.874045,10.9997565 C351.512311,12.4055607 350.405561,13.5123111 348.999757,13.8740452 L349,24.9994228 L373.126214,24.9992387 C373.570521,23.2743978 375.136435,22 377,22 C377.947438,22 378.817942,22.3293953 379.503237,22.8799124 L389.616047,12.1337776 C389.397546,11.7879852 389.230585,11.4063809 389.125955,10.9997565 Z M346.072539,13.5058291 L335.714242,24.5124145 C335.777408,24.6699841 335.830837,24.8325069 335.873786,24.9992387 L346.999,24.9994228 L346.999239,13.8737865 C346.672283,13.7895648 346.361512,13.6650416 346.072539,13.5058291 Z M348,8 C346.895431,8 346,8.8954305 346,10 C346,11.1045695 346.895431,12 348,12 C349.104569,12 350,11.1045695 350,10 C350,8.8954305 349.104569,8 348,8 Z M393,8 C391.895431,8 391,8.8954305 391,10 C391,11.1045695 391.895431,12 393,12 C394.104569,12 395,11.1045695 395,10 C395,8.8954305 394.104569,8 393,8 Z" id="形状结合" fill="#5C5E6B" fill-rule="nonzero"></path>
                    <rect id="产品设计" fill="#6A4E63" opacity="0" x="323" y="0" width="80" height="80" rx="1"></rect>
                </g>
            </g>
        </g>
    </g>
</svg>