<?xml version="1.0" encoding="UTF-8"?>
<svg width="80px" height="80px" viewBox="0 0 80 80" version="1.1" xmlns="http://www.w3.org/2000/svg" xmlns:xlink="http://www.w3.org/1999/xlink">
    <!-- Generator: Sketch 59.1 (86144) - https://sketch.com -->
    <title>编组 5</title>
    <desc>Created with Sketch.</desc>
    <g id="页面-1" stroke="none" stroke-width="1" fill="none" fill-rule="evenodd">
        <g id="画板" transform="translate(-1210.000000, -341.000000)">
            <g id="编组-10备份" transform="translate(1210.000000, 341.000000)">
                <rect id="矩形备份-51" fill="#D8D8D8" opacity="0.01" x="0" y="0" width="80" height="80"></rect>
                <path d="M52,72 C47.6530556,73.4489815 43.8309979,69.6490946 38.6324489,64.7833716 L56.9327312,64.2595476 C56.5967187,67.6854353 55.4669359,70.8443547 52,72 Z M17.0007399,32.0534804 L17.0005193,51.0084116 C15.5344717,50.4742228 13.9164765,49.8544405 12,49 C3.70240847,45.300608 6,35 14,33 C15.0495477,32.7376131 16.0501468,32.418417 17.0007399,32.0534804 Z M39,8 C42.3333333,8 46.3333333,12.3333333 51,21 C56.2715284,26.6075162 61.3658382,30.3361223 66.2829295,32.1858183 C73.6585664,34.9603623 75,37 75,41 C75,44.8148457 68.3490921,47.7884816 64.5343239,48.8578699 L63,33 L42,31 L17.1523203,31.9947362 C23.3617555,29.5656322 27.4108939,25.1881864 29,22 C30.8439092,18.300608 34,8 39,8 Z" id="形状结合" fill="#F3F6FC"></path>
                <g id="编组-11" transform="translate(11.000000, 14.000000)">
                    <rect id="形状结合备份-20" stroke="#737EB1" stroke-width="2" x="5" y="18" width="49" height="32" rx="2.5"></rect>
                    <g id="jianshenfang" transform="translate(28.500000, 33.000000) scale(1, -1) translate(-28.500000, -33.000000) translate(14.000000, 20.000000)" fill="#737EB1" fill-rule="nonzero">
                        <path d="M28.3958333,11.6666667 L26.5833333,11.6666667 L26.5833333,8.61111112 C26.5833333,8.27360378 26.3128387,8 25.9791667,8 L23.5625,8 C23.228828,8 22.9583333,8.27360377 22.9583333,8.61111112 L22.9583333,9.83333333 L21.1458333,9.83333333 C20.8121613,9.83333335 20.5416667,10.1069371 20.5416667,10.4444445 L20.5416667,11.6666667 L8.45833332,11.6666667 L8.45833332,10.4444445 C8.45833332,10.1069371 8.18783871,9.83333335 7.85416668,9.83333333 L6.04166668,9.83333333 L6.04166668,8.61111112 C6.04166668,8.27360377 5.77117204,8 5.4375,8 L3.02083332,8 C2.68716129,8 2.41666668,8.27360378 2.41666668,8.61111112 L2.41666668,11.6666667 L0.604166678,11.6666667 C0.270494636,11.6666667 0,11.9402704 0,12.2777778 L0,14.7222222 C0,15.0597296 0.270494636,15.3333333 0.604166678,15.3333333 L2.41666668,15.3333333 L2.41666668,18.3888889 C2.41666668,18.7263962 2.68716129,19 3.02083332,19 L5.4375,19 C5.77117204,19 6.04166668,18.7263962 6.04166668,18.3888889 L6.04166668,17.1666667 L7.85416668,17.1666667 C8.18783871,17.1666666 8.45833332,16.8930629 8.45833332,16.5555555 L8.45833332,15.3333333 L20.5416667,15.3333333 L20.5416667,16.5555555 C20.5416667,16.8930629 20.8121613,17.1666666 21.1458333,17.1666667 L22.9583333,17.1666667 L22.9583333,18.3888889 C22.9583333,18.7263962 23.228828,19 23.5625,19 L25.9791667,19 C26.3128387,19 26.5833333,18.7263962 26.5833333,18.3888889 L26.5833333,15.3333333 L28.3958333,15.3333333 C28.5560683,15.3333333 28.7097404,15.2689486 28.8230437,15.154343 C28.9363469,15.0397375 29,14.884299 29,14.7222222 L29,12.2777778 C29,11.9402704 28.7295054,11.6666667 28.3958333,11.6666667 L28.3958333,11.6666667 Z M1,14 L1,13 L2,13 L2,14 L1,14 Z M5,18 L4,18 L4,9 L5,9 L5,18 Z M7,16 L6,16 L6,11 L7,11 L7,16 Z M9,14 L9,13 L21,13 L21,14 L9,14 Z M22,16 L22,11 L23,11 L23,16 L22,16 Z M25,18 L24,18 L24,9 L25,9 L25,18 Z M28,14 L27,14 L27,13 L28,13 L28,14 Z M14.4994048,24.6204145 C12.0309524,24.6204145 9.68392857,23.714754 7.71488093,22.0006898 L7,23.1043126 C9.16020273,24.991857 11.7939205,26.0087741 14.4994048,25.999943 C17.2291666,25.999943 19.8220238,24.9984053 22,23.1036228 L21.285119,22 C19.3307964,23.7086198 16.9475427,24.6289521 14.4994048,24.6204145 L14.4994048,24.6204145 Z M14.5,1.37935392 C16.9698461,1.37935392 19.3164974,2.28554574 21.2852325,4 L22,2.89657007 C19.8400712,1.00784375 17.2058937,-0.00947686532 14.5,6.65359841e-05 C11.7943013,-0.00876307953 9.16037499,1.00821831 7,2.89588041 L7.71476748,3.99931034 C9.66923088,2.29148246 12.0521455,1.37137658 14.5,1.37935392 Z M14,4 L15,4 L15,8 L14,8 L14,4 Z M16,6 L17,6 L17,7 L16,7 L16,6 Z M12,6 L13,6 L13,7 L12,7 L12,6 Z M12,19 L18,19 L18,20 L12,20 L12,19 Z M12,21 L13,21 L13,22 L12,22 L12,21 Z M14,21 L15,21 L15,22 L14,22 L14,21 Z M16,21 L17,21 L17,22 L16,22 L16,21 Z" id="形状"></path>
                    </g>
                    <path d="M50,5 C50.5522847,5 51,5.44771525 51,6 L51,12 C51,12.5522847 50.5522847,13 50,13 C49.4477153,13 49,12.5522847 49,12 L49,10 L49,10 L42,10 L42,12 C42,12.5522847 41.5522847,13 41,13 C40.4477153,13 40,12.5522847 40,12 L40,6 C40,5.44771525 40.4477153,5 41,5 C41.5522847,5 42,5.44771525 42,6 L42,8 L49,8 L49,6 C49,5.44771525 49.4477153,5 50,5 Z M38,7 C38.5522847,7 39,7.44771525 39,8 L39,10 C39,10.5522847 38.5522847,11 38,11 C37.4477153,11 37,10.5522847 37,10 L37,8 C37,7.44771525 37.4477153,7 38,7 Z M53,7 C53.5522847,7 54,7.44771525 54,8 L54,10 C54,10.5522847 53.5522847,11 53,11 C52.4477153,11 52,10.5522847 52,10 L52,8 C52,7.44771525 52.4477153,7 53,7 Z" id="形状结合" fill="#737EB1"></path>
                    <path d="M52.536,22.717 L45.6826178,25.3528545 C44.699006,25.7311578 43.5845723,25.3768585 43,24.5 C42.5452996,23.8179493 42.7296033,22.8964305 43.411654,22.4417301 C43.4912522,22.3886646 43.5757943,22.343419 43.6641006,22.3066248 L52.1538462,18.7692308 C53.3725479,18.2614384 54.6797398,18 56,18 C56.8137422,18 57.4734105,18.6596684 57.4734105,19.4734105 C57.4734105,19.621483 57.4510901,19.7687096 57.4072016,19.9101283 L49,47 L49,47 L57.5,47 C58.8807119,47 60,48.1192881 60,49.5 C60,50.8807119 58.8807119,52 57.5,52 L2.5,52 C1.11928813,52 0,50.8807119 0,49.5 C0,48.1192881 1.11928813,47 2.5,47 L45,47 L52.536,22.717 Z" id="路径" stroke="#737EB1" stroke-width="2" fill="#FFFFFF"></path>
                    <path d="M26.2387324,8.5187038 C27.4127975,8.92165741 28.2493033,9.34319243 28.7482497,9.78330887 C29.9266794,10.8227917 31.6062377,12.6206556 33.7869248,15.1769006 L37.9889049,15.3267961 C39.1390514,15.3675535 40.0388701,16.3467491 39.9987061,17.5138906 C39.9585421,18.6810321 38.9936047,19.5941467 37.8434582,19.5533892 L33.4716921,19.3993574 C33.0561615,19.4862787 32.6177816,19.4442727 32.2197279,19.2688567 L32.0724715,19.1968133 C31.7599481,19.0553334 31.4886758,18.8388937 31.2803749,18.5704908 L27.7597591,15.4636382 L24.055607,24.767811 L31.4910843,31.0994901 C31.5568602,31.1554981 31.6190799,31.2142111 31.677718,31.2753341 C32.4181411,31.7158191 32.9158377,32.532258 32.9158377,33.4666578 L32.9158377,44.4624983 C32.9158377,45.8639218 31.7963021,47 30.4152849,47 C29.0342678,47 27.9147322,45.8639218 27.9147322,44.4624983 L27.9139599,34.6784467 L21.211645,28.9716055 L14.8196873,45.0270898 C14.3023491,46.326467 12.8449484,46.954238 11.5644916,46.4292555 C10.2840348,45.9042731 9.66540485,44.4253373 10.182743,43.1259601 L22.2035309,12.9329032 L15.8221203,14.4274917 L14.1544486,20.7450113 C13.8565874,21.8730706 12.7139661,22.5425111 11.6023327,22.2402485 C10.4906992,21.9379859 9.83100655,20.778481 10.1288678,19.6504217 L12.0704399,12.2973065 C12.260255,11.5784391 12.7931278,11.0458172 13.4424217,10.8322226 C13.6684262,10.6587262 13.9333119,10.5299313 14.2271957,10.4610803 L23.1608961,8.36809686 C23.3664299,8.31994449 23.5718814,8.30445409 23.7719699,8.31827715 C24.5275037,7.8408797 25.5315056,7.89483668 26.2387324,8.5187038 Z" id="路径" stroke="#737EB1" stroke-width="2" fill="#FFFFFF"></path>
                    <ellipse id="椭圆形" stroke="#737EB1" stroke-width="2" cx="28" cy="4.5" rx="4" ry="4.5"></ellipse>
                </g>
                <path d="M9,53 C9.27614237,53 9.5,53.2238576 9.5,53.5 L9.5,54.499 L10.5,54.5 C10.7761424,54.5 11,54.7238576 11,55 C11,55.2761424 10.7761424,55.5 10.5,55.5 L9.5,55.5 L9.5,56.5 C9.5,56.7761424 9.27614237,57 9,57 C8.72385763,57 8.5,56.7761424 8.5,56.5 L8.5,55.5 L7.5,55.5 C7.22385763,55.5 7,55.2761424 7,55 C7,54.7238576 7.22385763,54.5 7.5,54.5 L8.5,54.5 L8.5,53.5 C8.5,53.2238576 8.72385763,53 9,53 Z" id="形状结合备份-15" fill="#E9EFFD" transform="translate(9.000000, 55.000000) rotate(-15.000000) translate(-9.000000, -55.000000) "></path>
                <path d="M21,16 C21.2761424,16 21.5,16.2238576 21.5,16.5 L21.5,17.499 L22.5,17.5 C22.7761424,17.5 23,17.7238576 23,18 C23,18.2761424 22.7761424,18.5 22.5,18.5 L21.5,18.5 L21.5,19.5 C21.5,19.7761424 21.2761424,20 21,20 C20.7238576,20 20.5,19.7761424 20.5,19.5 L20.5,18.5 L19.5,18.5 C19.2238576,18.5 19,18.2761424 19,18 C19,17.7238576 19.2238576,17.5 19.5,17.5 L20.5,17.5 L20.5,16.5 C20.5,16.2238576 20.7238576,16 21,16 Z" id="形状结合备份-16" fill="#737EB1" transform="translate(21.000000, 18.000000) rotate(-15.000000) translate(-21.000000, -18.000000) "></path>
                <path d="M70,53 C70.2761424,53 70.5,53.2238576 70.5,53.5 L70.5,54.499 L71.5,54.5 C71.7761424,54.5 72,54.7238576 72,55 C72,55.2761424 71.7761424,55.5 71.5,55.5 L70.5,55.5 L70.5,56.5 C70.5,56.7761424 70.2761424,57 70,57 C69.7238576,57 69.5,56.7761424 69.5,56.5 L69.5,55.5 L68.5,55.5 C68.2238576,55.5 68,55.2761424 68,55 C68,54.7238576 68.2238576,54.5 68.5,54.5 L69.5,54.5 L69.5,53.5 C69.5,53.2238576 69.7238576,53 70,53 Z" id="形状结合备份-18" fill="#737EB1" transform="translate(70.000000, 55.000000) rotate(-15.000000) translate(-70.000000, -55.000000) "></path>
                <path d="M21,40 C21.2761424,40 21.5,40.2238576 21.5,40.5 L21.5,41.499 L22.5,41.5 C22.7761424,41.5 23,41.7238576 23,42 C23,42.2761424 22.7761424,42.5 22.5,42.5 L21.5,42.5 L21.5,43.5 C21.5,43.7761424 21.2761424,44 21,44 C20.7238576,44 20.5,43.7761424 20.5,43.5 L20.5,42.5 L19.5,42.5 C19.2238576,42.5 19,42.2761424 19,42 C19,41.7238576 19.2238576,41.5 19.5,41.5 L20.5,41.5 L20.5,40.5 C20.5,40.2238576 20.7238576,40 21,40 Z" id="形状结合备份-25" fill="#737EB1" transform="translate(21.000000, 42.000000) rotate(-15.000000) translate(-21.000000, -42.000000) "></path>
                <path d="M57,13 C57.2761424,13 57.5,13.2238576 57.5,13.5 L57.5,14.499 L58.5,14.5 C58.7761424,14.5 59,14.7238576 59,15 C59,15.2761424 58.7761424,15.5 58.5,15.5 L57.5,15.5 L57.5,16.5 C57.5,16.7761424 57.2761424,17 57,17 C56.7238576,17 56.5,16.7761424 56.5,16.5 L56.5,15.5 L55.5,15.5 C55.2238576,15.5 55,15.2761424 55,15 C55,14.7238576 55.2238576,14.5 55.5,14.5 L56.5,14.5 L56.5,13.5 C56.5,13.2238576 56.7238576,13 57,13 Z" id="形状结合备份-19" fill="#F3F6FC" transform="translate(57.000000, 15.000000) rotate(-15.000000) translate(-57.000000, -15.000000) "></path>
            </g>
        </g>
    </g>
</svg>