<?xml version="1.0" encoding="UTF-8"?>
<svg width="182px" height="182px" viewBox="0 0 182 182" version="1.1" xmlns="http://www.w3.org/2000/svg" xmlns:xlink="http://www.w3.org/1999/xlink">
    <!-- Generator: Sketch 60.1 (88133) - https://sketch.com -->
    <title>矩形</title>
    <desc>Created with Sketch.</desc>
    <defs>
        <polygon id="path-1" points="0 0.499901991 175.449177 0.499901991 175.449177 175.949997 0 175.949997"></polygon>
        <polygon id="path-3" points="0.426053992 0.499799991 42.3391792 0.499799991 42.3391792 42.4136392 0.426053992 42.4136392"></polygon>
    </defs>
    <g id="页面-1" stroke="none" stroke-width="1" fill="none" fill-rule="evenodd">
        <g id="iPhone-8" transform="translate(-116.000000, -1225.000000)">
            <g id="编组" transform="translate(116.000000, 1225.000000)">
                <g transform="translate(3.000000, 3.010200)">
                    <mask id="mask-2" fill="white">
                        <use xlink:href="#path-1"></use>
                    </mask>
                    <g id="Clip-2"></g>
                    <path d="M175.449432,88.2244904 C175.449432,99.5301701 164.837352,108.64336 160.760922,118.47412 C156.534552,128.66647 157.435722,142.576209 149.755632,150.256299 C142.076052,157.935879 128.165293,157.034199 117.975493,161.260569 C108.143713,165.336999 99.0300131,175.950099 87.7248434,175.950099 C76.4201836,175.950099 67.3054637,165.336999 57.4752139,161.260569 C47.2843941,157.034199 33.3741444,157.935879 25.6940545,150.256299 C18.0144747,142.576209 18.9146246,128.66647 14.6887647,118.47412 C10.6128448,108.64336 -0.000254999995,99.5301701 -0.000254999995,88.2244904 C-0.000254999995,76.9203406 10.6128448,67.8056207 14.6887647,57.9748609 C18.9146246,47.7835311 18.0144747,33.8732814 25.6940545,26.1931915 C33.3741444,18.5136117 47.2843941,19.4142716 57.4752139,15.1889217 C67.3054637,11.1124918 76.4201836,0.499901991 87.7248434,0.499901991 C99.0300131,0.499901991 108.143713,11.1124918 117.975493,15.1889217 C128.165293,19.4142716 142.076052,18.5141217 149.755632,26.1942115 C157.435722,33.8743014 156.534552,47.7840411 160.760922,57.9748609 C164.837352,67.8056207 175.449432,76.9203406 175.449432,88.2244904" id="Fill-1" fill="#22AB39" mask="url(#mask-2)"></path>
                </g>
                <path d="M51.2933781,52.0523601 L57.490388,44.4650902 L57.503138,44.4758002 C57.503138,44.4758002 57.764258,44.1555202 57.947348,43.9311202 C60.6156679,40.6635503 60.4988779,38.1359903 60.3978979,35.8817904 C60.3157879,34.0733304 60.1173979,32.5973904 60.1173979,32.5973904 L53.920388,40.1846603 L53.907638,40.1734403 C53.907638,40.1734403 53.6465181,40.4932103 53.4634281,40.7171003 C50.7951081,43.9846702 50.9113881,46.5137602 51.0133881,48.7669401 C51.0949881,50.5754001 51.2933781,52.0523601 51.2933781,52.0523601" id="Fill-3" fill="#FEFEFE"></path>
                <path d="M56.46233,86.3005424 L56.46233,75.2422126 L56.46233,75.1264427 L56.46233,73.4368127 L56.46233,72.4137527 C56.46233,68.9926728 54.63653,66.9613428 53.4732201,65.4262428 C52.5526701,64.2114229 53.4762801,63.4505029 54.06431,62.7303829 C54.65132,62.0112829 57.49049,58.536143 57.49049,58.536143 L57.50324,58.546343 C57.50324,58.546343 57.76436,58.225553 57.94745,58.002683 C60.6157699,54.734603 60.4989799,52.2065331 60.3974899,49.9523331 C60.3158899,48.1448932 60.1174999,46.6674232 60.1174999,46.6674232 L53.92049,54.254693 L53.90774,54.244493 C53.90774,54.244493 53.6466201,54.564263 53.4635301,54.788663 C51.3184701,57.414143 50.9742201,59.5622629 50.9737101,61.4757829 L50.9726901,61.4747629 L50.9726901,72.6493727 L50.9726901,75.1264427 L50.9726901,76.1489926 C50.9726901,80.3666926 52.6628301,82.2516525 54.16733,83.9336325 C55.3745,85.2810525 56.46233,86.3005424 56.46233,86.3005424" id="Fill-5" fill="#FEFEFE"></path>
                <path d="M87.6161384,83.0244045 C88.0037384,84.7925745 88.4510084,86.2134344 88.4510084,86.2134344 L94.6357783,75.1081847 L99.6159282,86.6454044 C99.6159282,86.6454044 100.211608,85.2796245 100.786378,83.5629645 C101.502928,81.4230045 102.308218,79.0239646 100.638478,75.1505147 C100.579318,75.0112847 99.2114982,71.8487747 97.9237482,68.8698648 C98.2343382,68.4353448 98.7494382,67.7065548 98.8468482,67.5331548 C99.7714782,65.8975848 100.174888,64.4996748 100.296268,63.2573149 C100.364608,62.5545349 100.339108,41.1732953 100.339108,41.1732953 C100.339108,41.1732953 99.3242082,42.1917653 98.1981282,43.5412252 C96.7951182,45.2221852 95.8562083,46.6756852 95.8562083,50.8938951 L95.8562083,55.945445 L95.8562083,61.9863949 C95.8562083,64.0886149 95.1967783,62.5912549 95.1967783,62.5912549 L91.9807183,55.224305 C91.9807183,55.224305 91.3850383,56.591105 90.8097584,58.307255 C90.1921484,60.1534549 89.5107884,62.1960049 90.4083884,65.2106148 L91.5089683,67.9029048 L91.5227383,67.8972948 L91.8980983,68.7683748 C90.7001084,70.9598447 88.7605784,74.5012847 88.6626584,74.6746847 C86.5879784,78.3482146 87.1331684,80.8196745 87.6161384,83.0244045" id="Fill-7" fill="#FEFEFE"></path>
                <path d="M80.7403695,83.7774705 C81.9480495,85.1254005 83.0353695,86.1448904 83.0353695,86.1448904 L83.0353695,76.2029506 L83.0353695,74.6092007 L83.0353695,67.9027008 L78.4219096,67.9027008 L78.0649096,67.9027008 L63.5074699,67.9027008 L63.5074699,68.7105408 L63.5074699,72.0000407 L63.5074699,86.1448904 C63.5074699,86.1448904 64.5952998,85.1254005 65.8024698,83.7774705 C67.3069698,82.0954905 68.9971098,80.2110406 68.9971098,75.9928306 L68.9971098,72.0000407 L77.5462396,72.0000407 L77.5462396,75.9928306 C77.5462396,80.2110406 79.2353596,82.0954905 80.7403695,83.7774705" id="Fill-9" fill="#FEFEFE"></path>
                <path d="M68.1547428,53.7138381 L83.7785925,53.7138381 L83.7785925,50.4054681 L83.7785925,49.6170081 L83.7785925,43.4995582 C83.7785925,39.2813483 82.2506325,37.3968984 80.8899525,35.7149184 C79.7980426,34.3664784 78.8142526,33.3480084 78.8142526,33.3480084 L78.8142526,49.6170081 L76.1255326,49.6170081 L76.1255326,43.4995582 C76.1255326,39.2813483 74.5970627,37.3968984 73.2368927,35.7149184 C72.1449827,34.3664784 71.1606827,33.3480084 71.1606827,33.3480084 L71.1606827,49.6170081 L68.4719628,49.6170081 L68.4719628,43.4995582 C68.4719628,39.2813483 66.9440028,37.3968984 65.5833228,35.7149184 C64.4914129,34.3664784 63.5076229,33.3480084 63.5076229,33.3480084 L63.5076229,46.3728982 L63.5076229,47.1195382 L63.5076229,53.7138381 L67.8569028,53.7138381 L68.1547428,53.7138381 Z" id="Fill-11" fill="#FEFEFE"></path>
                <path d="M83.4014475,58.332755 L71.2053077,58.332755 L70.2128477,58.332755 L67.7051778,58.332755 C63.4874779,58.332755 61.6025179,60.0223849 59.9210479,61.5268849 C58.572098,62.7335449 57.554138,63.8218849 57.554138,63.8218849 L70.2128477,63.8218849 L71.2053077,63.8218849 L76.8907876,63.8218849 C81.1089975,63.8218849 82.9929375,62.1317449 84.6749175,60.6272449 C84.8926875,60.4319149 85.1007675,60.2411749 85.2986475,60.0565549 L85.3027275,60.0596149 L85.3894275,59.9724049 C86.1702374,59.2374949 86.7557174,58.633145 86.9602274,58.418945 C86.9602274,58.418945 88.0485674,57.399965 89.2557374,56.050505 C90.7602374,54.370055 92.4498673,52.6115751 92.4498673,48.3938752 L92.4498673,48.1832452 L92.4498673,44.4755452 L92.4498673,42.7226753 C96.6308472,42.7078853 98.5081572,41.0269253 100.182487,39.5290553 C101.530417,38.3223953 102.549397,37.2340554 102.549397,37.2340554 L92.4498673,37.2340554 L92.4498673,32.1758755 C92.4498673,32.1758755 91.3615273,33.1938354 90.1543574,34.5432954 C88.6503674,36.2247654 86.9602274,38.1097253 86.9602274,42.3269153 L86.9602274,44.4755452 L86.9602274,47.7645352 L86.9602274,54.993785 C86.9403374,55.724615 86.6440274,58.332755 83.4014475,58.332755" id="Fill-13" fill="#FEFEFE"></path>
                <path d="M49.2249711,115.730143 C49.4146911,115.335403 49.8145311,114.527563 50.3199411,113.640163 C50.9446911,112.544173 51.5898411,111.412993 52.9597011,110.452663 L53.0117211,110.415943 L53.0117211,106.407853 C53.3830011,106.551163 54.336701,106.927033 55.359761,107.386033 C55.904951,107.631343 56.466461,108.115843 56.862731,108.682963 L56.914751,108.755893 L57.000431,108.727333 C59.142941,108.010273 66.4135008,105.815233 66.4135008,105.815233 L59.3428609,105.815233 C56.029391,105.815233 53.0117211,103.838983 53.0117211,101.667403 L53.0117211,91.2088334 C53.3891211,91.3919233 54.335681,91.8601033 55.350071,92.4307933 C56.523071,93.0917533 57.852641,93.8389033 58.453421,95.0848333 L58.486061,95.1531733 L77.3071006,95.1531733 C77.0092606,95.4591733 76.3993006,96.0727033 75.6689806,96.7270332 C74.3822507,97.8786132 72.9277307,99.1801332 69.6968808,99.1801332 L58.793591,99.1801332 L58.793591,101.788273 L76.9919206,101.788273 C76.7858806,102.248293 76.1896906,103.549813 75.6118606,104.563183 C74.8453307,105.907543 73.5315707,107.596153 70.1502707,108.727333 C68.4147408,109.308733 67.5941508,109.582603 67.5941508,109.582603 L67.4788908,109.618303 L49.2249711,115.730143 Z" id="Fill-15" fill="#FEFEFE"></path>
                <path d="M90.7762514,109.109629 L90.7731914,109.118299 C90.5702114,109.003039 90.0046214,108.687349 88.4231114,107.803519 C88.1834114,107.669389 87.9656414,107.534239 87.7560314,107.396029 L87.4255514,107.209369 L80.1351016,109.602289 C80.3243116,109.206529 80.7251715,108.397669 81.2310915,107.508739 C81.6946815,106.694779 82.2199815,105.773719 83.0936115,104.955169 L83.2134615,104.842459 L78.7264816,102.318979 C80.2988116,101.847229 81.8165715,101.606509 83.2415115,101.606509 C86.1434114,101.606509 87.6963614,102.612229 87.7116614,102.622939 L87.7596014,102.655069 L87.8162114,102.637729 C89.7368714,102.012979 91.7197513,101.393329 92.4822013,101.155669 L95.6544013,100.094869 C96.3117913,99.8638392 96.6269712,99.6450492 96.5922912,99.4466592 C96.5601613,99.2538792 96.2852713,99.1799292 95.6110513,99.1799292 L78.1292716,99.1799292 C78.4271116,98.8734192 79.0375816,98.2598892 79.7679016,97.6045392 C81.0536115,96.4549993 82.5081315,95.1534793 85.7400015,95.1534793 L100.355071,95.1534793 C100.401481,95.7221293 100.547341,98.4317592 99.4227912,100.563049 C98.5211112,102.274099 97.4547012,103.895899 94.3666513,104.928139 L92.7927913,105.455479 C92.7927913,105.455479 95.8410613,107.161429 97.0074312,107.812699 C99.9287112,109.445719 100.585081,111.357199 101.164951,113.042749 C101.497981,114.011239 101.740741,114.879259 101.854471,115.304599 L90.7762514,109.109629 Z" id="Fill-17" fill="#FEFEFE"></path>
                <path d="M74.8556837,116.104687 C75.2335936,116.287267 76.1801536,116.755957 77.1940336,117.326647 C78.3313336,117.966697 79.5084136,118.629697 80.1550936,119.712427 L80.1897736,119.771587 L93.3161533,119.771587 L80.0806336,115.341217 C77.4118036,114.447697 76.2229936,113.044177 76.2112636,113.031937 L76.1220136,112.923817 L76.0286836,113.028877 C76.0154236,113.042647 74.6929937,114.490537 72.4158437,115.254007 L58.902374,119.771587 L74.8556837,119.771587 L74.8556837,116.104687 Z M58.559654,131.798407 L93.5232133,131.798407 L93.5232133,123.522127 L58.559654,123.522127 L58.559654,125.774287 L90.8676434,125.774287 C90.5851034,126.065497 90.0205334,126.631597 89.3483534,127.233397 C88.1473034,128.308987 86.7876434,129.525847 83.7689535,129.525847 L58.559654,129.525847 L58.559654,131.798407 Z M48.0847642,147.289146 C48.2729542,146.894406 48.6717741,146.085036 49.1817741,145.197636 C50.3343741,143.195376 51.4630041,142.380906 53.1429441,141.578166 L53.2123041,141.545016 L53.2123041,121.686637 L48.0873142,123.403807 C48.2765242,123.008557 48.6763641,122.199187 49.1822841,121.312297 C50.0671341,119.760877 51.0677541,118.003927 54.240464,116.943127 C56.788424,116.091937 76.1199736,109.609837 76.1199736,109.609837 C76.1199736,109.609837 95.4484633,116.091937 97.9964232,116.943127 C101.169133,118.003927 102.169243,119.760877 103.052053,121.308727 C103.559503,122.199187 103.959853,123.008557 104.150083,123.403807 L98.8710732,121.635637 L98.8710732,128.966887 C98.8710732,131.555137 94.5529033,135.548947 88.8148934,135.548947 L58.559654,135.548947 L58.559654,139.725336 L67.2418938,136.473067 C68.1083838,136.630657 86.3286434,139.953816 86.3286434,139.953816 L86.3740334,139.899246 C86.3816834,139.891596 87.1380134,139.027656 90.1153934,138.121386 C91.7968633,137.608836 97.1987832,135.869227 98.4651132,135.461227 C98.3381232,135.716227 98.0968932,136.179817 97.6735932,136.921866 C96.8637132,138.341706 95.9472433,139.950246 93.3299233,141.023796 L92.9474233,141.180366 L95.2016233,141.592956 C98.4926532,142.194756 99.7304232,143.791056 100.823353,145.199166 C101.452693,146.010576 101.962183,146.755686 102.206983,147.120336 C99.2178732,146.579226 73.2976337,141.878046 71.8354637,141.557766 C69.2767938,140.997276 67.4311038,139.606506 67.4127438,139.592226 L67.3061538,139.510626 L67.2362838,139.623846 C67.2271038,139.638126 66.3080838,141.078366 63.0874339,142.272786 C62.0699839,142.650696 50.0401041,146.640936 48.0847642,147.289146 L48.0847642,147.289146 Z" id="Fill-19" fill="#FEFEFE"></path>
                <path d="M114.121246,97.7611092 L115.159606,97.7611092 L115.428376,97.7611092 C117.272026,97.7611092 118.095676,97.0221192 118.830586,96.3637093 C119.420656,95.8368793 119.865886,95.3620693 119.865886,95.3620693 L117.508156,95.3620693 L116.158186,95.3620693 C115.280476,95.3620693 114.636346,95.5288393 114.121246,95.7761893 C114.121246,95.7761893 113.601046,95.9980393 112.997716,96.6013692 C112.393876,97.2067392 112.135816,97.7611092 112.135816,97.7611092 C111.889996,98.2762092 111.721696,98.9203392 111.721696,99.7985592 L111.721696,100.931269 L111.721696,101.327539 L111.721696,117.413959 L114.121246,117.413959 L114.121246,117.410899 L115.083616,117.410899 C116.168386,117.410899 116.898196,117.154369 117.466336,116.810629 C117.466336,116.810629 118.171156,116.392939 118.617916,115.894159 C119.064676,115.395379 119.283976,115.011859 119.283976,115.011859 C119.618536,114.447799 119.865886,113.724619 119.865886,112.659229 L119.865886,111.437269 L119.865886,111.129739 L119.865886,96.2713993 C119.865886,96.2713993 119.390056,96.7156092 118.862206,97.3051692 C118.205326,98.0400792 117.466336,98.8632192 117.466336,100.707889 L117.466336,111.129739 L117.466336,111.437269 L117.466336,115.011859 L114.121246,115.011859 L114.121246,108.028429 C115.176946,107.816269 115.757326,107.240989 116.284666,106.715689 C116.814046,106.188349 117.214906,105.713539 117.214906,105.713539 L114.121246,105.713539 L114.121246,101.327539 L114.121246,97.7611092 Z" id="Fill-21" fill="#FEFEFE"></path>
                <path d="M131.993125,96.9044622 L131.993125,94.4222923 C131.993125,94.4222923 131.478535,94.8670123 130.906315,95.4570823 C130.515145,95.8604923 130.097965,96.2924623 129.801655,96.9044622 L129.593575,96.9044622 L129.393145,96.9044622 L125.493175,96.9044622 C123.649015,96.9044622 122.824855,97.6414122 122.089945,98.2993122 C121.500385,98.8266522 121.055665,99.3029922 121.055665,99.3029922 L129.393145,99.3029922 L129.393145,112.028002 L129.393145,112.502812 L129.393145,115.591882 L128.694445,115.591882 C126.851815,115.591882 126.027655,116.330872 125.292235,116.987242 C124.703695,117.516112 124.258465,117.990922 124.258465,117.990922 L127.623445,117.990922 C128.291545,117.990922 129.423235,117.764482 130.480975,116.960212 C131.295445,116.340052 131.993125,115.401142 131.993125,113.556982 L131.993125,112.502812 L131.993125,112.028002 L131.993125,99.2045622 C133.120225,98.9832222 133.751095,98.4206922 134.325355,97.9061022 C134.915425,97.3787622 135.360145,96.9044622 135.360145,96.9044622 L131.993125,96.9044622 Z" id="Fill-23" fill="#FEFEFE"></path>
                <path d="M127.096819,111.801562 C127.096819,111.801562 127.184029,111.156922 127.219729,110.366932 C127.264099,109.380592 127.315609,108.276442 126.149239,106.847422 C126.119659,106.812742 126.086509,106.771432 126.055399,106.733182 L126.056419,106.733182 L122.329849,102.176842 C122.329849,102.176842 122.242639,102.822502 122.207449,103.612492 C122.162569,104.596792 122.112079,105.701962 123.278449,107.129452 C123.341689,107.207482 123.872089,107.854162 124.096489,108.128542 L127.096819,111.801562 Z" id="Fill-25" fill="#FEFEFE"></path>
                <path d="M115.034656,131.031163 C114.322186,131.767093 113.521996,132.590743 113.521996,134.433883 L113.521996,139.529802 L113.521996,140.589582 L113.521996,146.430612 C113.521996,146.430612 114.037606,145.986402 114.608296,145.396842 C115.321276,144.660912 116.121976,143.837262 116.121976,141.994122 L116.121976,140.589582 L116.121976,139.529802 L116.121976,129.997393 C116.121976,129.997393 115.606366,130.442113 115.034656,131.031163" id="Fill-27" fill="#FEFEFE"></path>
                <path d="M127.458919,133.064176 L128.258089,132.982576 L128.259619,132.982576 L128.274919,132.981046 C128.278489,132.981046 128.283589,132.979516 128.290729,132.979516 L128.376409,132.969826 C128.429959,132.965236 128.506969,132.957076 128.619169,132.945856 L128.645179,132.942796 C128.748709,132.933616 128.881309,132.919336 129.048589,132.903016 L129.109279,132.896896 C129.292879,132.879556 129.511159,132.856606 129.779929,132.829576 C131.155399,132.690856 131.918869,132.195646 132.495169,131.650966 C132.686929,131.469406 133.088809,130.969606 133.343809,130.260196 C133.626859,129.473266 133.547809,128.197246 133.474879,127.830556 C133.334119,127.124716 133.005169,126.356146 132.138679,125.506996 C132.047389,125.417236 131.918359,125.291776 131.918359,125.291776 L130.184359,123.595516 C130.184359,123.595516 130.168549,124.246786 130.221589,125.036266 C130.286869,126.019546 130.359289,127.123696 131.677639,128.412466 C131.767399,128.501206 131.896429,128.627176 131.896429,128.627176 C131.896429,128.627176 132.455389,129.180016 132.802189,129.519166 C133.147969,129.858826 133.066879,130.083226 132.467119,130.143406 C131.866849,130.204606 128.761969,130.519786 128.761969,130.519786 C128.716069,130.524886 128.656399,130.531006 128.582959,130.538656 L128.095399,130.588636 C127.754719,130.621786 127.327339,130.664626 126.852019,130.713076 L126.852019,127.464886 C126.852019,125.619706 126.052339,124.796056 125.339359,124.062166 C124.767649,123.472096 124.252039,123.027886 124.252039,123.027886 L124.252039,130.975216 C123.370759,131.062936 122.580769,131.142496 122.124319,131.188396 C120.289849,131.373526 119.544739,132.191056 118.880719,132.919336 C118.345729,133.503286 117.950479,134.020936 117.950479,134.020936 L124.717159,133.339066 C125.946769,135.966076 129.230149,142.978575 129.755959,144.098535 C130.537789,145.767765 131.612359,146.174235 132.569629,146.535825 C133.337179,146.827035 133.993039,147.012165 133.993039,147.012165 L127.458919,133.064176 Z" id="Fill-29" fill="#FEFEFE"></path>
                <path d="M117.247444,123.105712 L113.521894,127.663582 L113.523424,127.664602 C113.230684,128.025172 112.858384,128.482132 112.810444,128.539252 C111.644074,129.968782 111.694564,131.072422 111.739444,132.058762 C111.775654,132.848752 111.860824,133.493902 111.860824,133.493902 L115.744474,128.738662 L115.743964,128.738662 C115.981114,128.449492 116.254984,128.114422 116.299864,128.060362 C117.465724,126.632872 117.414724,125.527192 117.370354,124.542892 C117.334654,123.752902 117.247444,123.105712 117.247444,123.105712" id="Fill-31" fill="#FEFEFE"></path>
                <polygon id="Fill-33" fill="#FEFEFE" points="131.933353 47.6934412 118.248523 49.5911511 131.933353 54.096491 131.933353 57.468611 113.495323 50.8029111 113.495323 47.3512312 125.997463 45.4545412 113.495323 41.0012213 113.495323 37.5500514 131.933353 34.6262214 131.933353 37.9988513 118.248523 39.7374413 131.933353 44.4534112"></polygon>
                <path d="M128.581021,72.2800307 C129.020641,71.2783907 129.405181,69.9875807 129.405181,68.2489908 C129.405181,64.2694609 126.986761,62.5834009 122.590051,62.1361309 C118.523311,61.7413909 116.022781,62.6634709 116.022781,66.7995708 C116.022781,68.3545608 116.600101,70.1456807 117.259531,71.5420607 L114.758491,71.8057307 C113.988901,70.3297907 113.247871,68.1694308 113.247871,65.8244508 C113.247871,60.3184909 117.561961,58.447301 122.590051,58.948121 C127.866511,59.4754609 132.208141,62.0836009 132.208141,68.0383608 C132.208141,69.7774608 131.905711,71.9102807 131.246281,73.2281207 L128.581021,72.2800307 Z" id="Fill-35" fill="#FEFEFE"></path>
                <polygon id="Fill-37" fill="#FEFEFE" points="129.157729 83.5324155 113.522149 81.9789555 113.522149 78.8424556 129.157729 80.3974456 129.157729 75.1281257 131.933149 75.4178056 131.933149 89.0669354 129.157729 88.7762354"></polygon>
                <path d="M166.189032,45.4238392 C164.840082,45.4238392 163.746642,44.3293792 163.746642,42.9814493 C163.746642,29.3241595 152.635782,18.2122797 138.977982,18.2122797 C137.629032,18.2122797 136.535593,17.1188397 136.535593,15.7703998 C136.535593,14.4219598 137.629032,13.3295398 138.977982,13.3295398 C155.328072,13.3295398 168.629892,26.6308496 168.629892,42.9814493 C168.629892,44.3293792 167.537472,45.4238392 166.189032,45.4238392" id="Fill-39" fill="#22AB39"></path>
                <g transform="translate(136.109998, 3.010200)">
                    <mask id="mask-4" fill="white">
                        <use xlink:href="#path-3"></use>
                    </mask>
                    <g id="Clip-42"></g>
                    <path d="M39.8980133,42.4136392 C38.5495733,42.4136392 37.4561333,41.3191792 37.4561333,39.9712493 C37.4561333,20.8997996 21.9398936,5.3830499 2.86793395,5.3830499 C1.51898397,5.3830499 0.426053992,4.29062992 0.426053992,2.94167994 C0.426053992,1.59221997 1.51898397,0.499799991 2.86793395,0.499799991 C24.6321835,0.499799991 42.3393832,18.2069997 42.3393832,39.9712493 C42.3393832,41.3191792 41.2464532,42.4136392 39.8980133,42.4136392" id="Fill-41" fill="#22AB39" mask="url(#mask-4)"></path>
                </g>
            </g>
        </g>
    </g>
</svg>