<?xml version="1.0" encoding="UTF-8"?>
<svg width="60px" height="60px" viewBox="0 0 60 60" version="1.1" xmlns="http://www.w3.org/2000/svg" xmlns:xlink="http://www.w3.org/1999/xlink">
    <!-- Generator: Sketch 59.1 (86144) - https://sketch.com -->
    <title>员工福利</title>
    <desc>Created with Sketch.</desc>
    <g id="页面-1" stroke="none" stroke-width="1" fill="none" fill-rule="evenodd">
        <g id="傲创首页备份-2" transform="translate(-1011.000000, -3990.000000)" fill="#22263B" fill-rule="nonzero">
            <g id="fuli" transform="translate(1011.000000, 3990.000000)">
                <path d="M56.8740249,12.9432733 L49.073104,12.9432733 C49.7088323,11.7696209 50.042638,10.4510338 50.042638,9.09897662 C50.042812,6.9395691 49.1991699,4.90673712 47.6671083,3.37488299 C46.135457,1.84343899 44.1028236,1 41.9436022,1 C37.5391599,1 33.9036591,4.4252869 32.1288546,6.46674952 C31.3498986,7.35980112 30.6200291,8.34111871 29.9996768,9.32756991 C29.3829416,8.34817899 28.6534201,7.36715144 27.8713152,6.46715973 C26.0938922,4.42540708 22.4550145,1 18.0559336,1 C13.59024,1 9.95706776,4.6331303 9.95706776,9.09885645 C9.95706776,10.4482867 10.2916897,11.766878 10.9288682,12.9432111 L3.12719319,12.9432111 C1.95421603,12.9432111 1,13.8974808 1,15.0704329 L1,24.0285394 C1,25.2013756 1.95427816,26.1555293 3.12719319,26.1555293 L3.98527911,26.1555293 L3.98527911,53.8862606 C3.98527911,56.7059789 6.27929643,59 9.09898191,59 L50.9009062,59 C53.7199495,59 56.0134406,56.7059789 56.0134406,53.8862606 L56.0134406,26.155521 L56.8739752,26.155521 C58.0462481,26.155521 59,25.2013756 59,24.0285312 L59,15.0704951 C59,13.8975389 58.0461859,12.9432733 56.8740249,12.9432733 Z M32.7329525,15.5497328 L32.7329525,56.6160183 L27.2680875,56.6160183 L27.2680875,15.5497328 L32.7329525,15.5497328 Z M24.8874904,26.151792 L24.8874904,56.6160183 L9.09874985,56.6160183 C7.59190066,56.6160183 6.36593402,55.3914689 6.36593402,53.8863146 L6.36593402,26.1551772 L24.8874904,26.151792 Z M41.9436603,3.38240316 C45.0966377,3.38240316 47.661751,5.94676609 47.661751,9.0988523 C47.661751,10.3478351 47.2664537,11.5326248 46.5184735,12.5251336 L46.2035242,12.9433271 L30.679706,12.9433271 L31.526033,11.4217941 C32.1667664,10.2688336 32.9961471,9.0963497 33.9247986,8.03090121 C35.4339763,6.29482076 38.4824914,3.38240316 41.9436603,3.38240316 Z M35.1120993,15.3135529 L44.4158463,15.3135529 L44.4054837,15.327197 L56.6188768,15.327197 L56.6188768,23.7731759 L35.1120993,23.7731759 L35.1120993,15.3135529 Z M18.0558715,3.382457 C21.5127313,3.382457 24.5644492,6.29482076 26.0755495,8.030491 C27.0120692,9.10952144 27.8413297,10.2822457 28.473851,11.4220883 L29.3200579,12.9433313 L13.7953115,12.9433313 L13.4826369,12.5268283 C12.7337825,11.5307561 12.3378968,10.3453864 12.3378968,9.09891858 C12.3378968,5.94688212 14.9029521,3.382457 18.0558715,3.382457 Z M15.5749555,15.313611 L24.8875526,15.313611 L24.8875526,23.7502093 L4.6736363,23.7717796 L3.3805431,23.7717796 L3.3805431,15.3270188 L15.585028,15.3270188 L15.5749555,15.313611 Z M53.6331337,26.155521 L53.6331337,53.8862565 C53.6331337,55.3914109 52.4072914,56.6159603 50.9005002,56.6159603 L35.1120993,56.6159603 L35.1120993,26.155521 L53.6331337,26.155521 Z" id="形状"></path>
            </g>
        </g>
    </g>
</svg>