<?xml version="1.0" encoding="UTF-8"?>
<svg width="180px" height="180px" viewBox="0 0 180 180" version="1.1" xmlns="http://www.w3.org/2000/svg" xmlns:xlink="http://www.w3.org/1999/xlink">
    <!-- Generator: Sketch 59.1 (86144) - https://sketch.com -->
    <title>位图</title>
    <desc>Created with Sketch.</desc>
    <g id="页面-1" stroke="none" stroke-width="1" fill="none" fill-rule="evenodd">
        <g id="傲创首页备份-2" transform="translate(-942.000000, -1382.000000)">
            <g id="编组-6" transform="translate(100.000000, 1355.000000)">
                <g id="编组-5">
                    <g id="编组-4">
                        <g id="编组-3备份" transform="translate(653.000000, 0.000000)">
                            <g id="编组" transform="translate(167.000000, 0.000000)">
                                <path d="M122.708228,97.1315653 C124.567383,88.7409976 117.257237,81.4326758 108.868456,83.2918261 C104.64064,84.2295317 101.22948,87.6406841 100.291772,91.8684895 C98.4326172,100.257251 105.742763,107.567379 114.131544,105.708229 C118.35936,104.770523 121.77052,101.359371 122.708228,97.1315653" id="Fill-3" fill="#FD7E50"></path>
                                <path d="M111.499973,36 C79.423946,36 53.4834825,62.69394 54.007811,95.4162677 C54.0170097,95.4293566 54.022529,95.4387058 54.029888,95.4517948 C59.73679,98.020965 66.0360912,100.216166 72.7640539,101.983171 C72.0207953,98.1051081 71.8092241,94.0363204 72.2691614,89.8385132 C74.4271872,70.1378021 90.9168592,54.7078222 110.414521,54.1917443 C132.677326,53.6027424 150.907401,71.7683089 150.907401,94.2644417 C150.907401,96.9121455 150.647996,99.4962745 150.167821,102 C156.921541,100.231124 163.244759,98.0303142 168.970058,95.4517948 C168.977417,95.4387058 168.984776,95.4293566 168.992135,95.4181375 C169.518303,62.69394 143.576,36 111.499973,36" id="Fill-5" fill="#3C4551"></path>
                                <path d="M105.103232,137.280013 C107.062084,137.337543 109.020935,137.395073 110.99265,137.395073 C129.903101,137.395073 147.659557,134.093601 162.332568,128.554032 C164.331846,122.936519 165.943396,117.079608 167,111 C150.956161,117.036924 131.792125,120.520265 110.99265,120.520265 C90.200525,120.520265 71.0420016,117.03878 55,111.005567 C63.8864971,161.795158 110.994487,198 110.994487,198 C110.994487,198 129.239737,184.042513 145.164135,161.223571 C148.602231,156.296416 151.933749,150.964697 154.947367,145.261817 C148.183265,147.102773 140.991009,148.507615 133.486366,149.465209 C133.27872,149.494902 133.069237,149.524595 132.859754,149.552432 C125.832879,150.524872 118.502806,151.048208 110.99265,151.048208 L128.734405,156.932956 C128.734405,156.932956 120.959639,167.347718 111.018376,175.511391 C104.790845,169.413225 96.6173257,160.494241 89.2210993,149.557999 C89.2155865,149.556143 89.2100738,149.556143 89.2045611,149.556143 L89.2063987,149.533874 C86.154192,145.018707 83.2342904,140.171352 80.6414766,135.021502 C83.9895324,135.555973 87.3945529,135.967961 90.8216243,136.324275 C90.8216243,136.324275 100.292469,137.109279 105.103232,137.280013" id="Fill-7" fill="#3C4551"></path>
                            </g>
                        </g>
                    </g>
                </g>
            </g>
        </g>
    </g>
</svg>